<?xml version="1.0" standalone="no"?><!DOCTYPE svg PUBLIC "-//W3C//DTD SVG 1.1//EN" "http://www.w3.org/Graphics/SVG/1.1/DTD/svg11.dtd"><svg t="1523350174670" class="icon" style="" viewBox="0 0 1024 1024" version="1.1" xmlns="http://www.w3.org/2000/svg" p-id="3759" xmlns:xlink="http://www.w3.org/1999/xlink" width="32" height="32"><defs><style type="text/css"></style></defs><path d="M593.972455 959.951265c-25.744337 0-49.957809-10.031471-68.15117-28.243251L92.731496 498.618225c-19.908422-19.908422-30.103622-47.440475-27.962865-75.5333l19.202341-249.444189c3.672646-47.721885 40.971134-85.019349 88.691995-88.691995l249.424746-19.178805c28.519544-2.125407 55.626925 7.997138 75.547627 27.939329L930.731268 526.803147c37.578874 37.598316 37.559431 98.737792 0 136.297222L662.123624 931.712107C643.931287 949.919794 619.713722 959.951265 593.972455 959.951265L593.972455 959.951265zM429.509752 103.662965c-1.493004 0-2.986007 0.058328-4.474918 0.169869l-249.429863 19.178805c-28.818349 2.217505-51.355645 24.758893-53.572126 53.576219l-19.203364 249.424746c-1.285273 16.945951 4.866844 33.592073 16.887622 45.614897l433.095929 433.093882c21.994943 21.995967 60.317761 21.995967 82.317821 0l268.607644-268.611737c22.686698-22.681582 22.686698-59.612703 0-82.313727l-433.094906-433.093882C459.647143 109.702518 445.035354 103.662965 429.509752 103.662965L429.509752 103.662965zM301.203528 378.460588c-20.448728 0-39.612183-7.92039-53.981449-22.295795-14.371312-14.370289-22.295795-33.533744-22.295795-53.982472 0-20.425192 7.924483-39.609113 22.295795-53.978379 14.369266-14.375405 33.533744-22.296819 53.981449-22.296819 20.430308 0 39.61423 7.92039 53.983495 22.296819 14.370289 14.369266 22.294772 33.54807 22.294772 53.978379 0 20.448728-7.92346 39.612183-22.294772 53.982472C340.817758 370.540198 321.63486 378.460588 301.203528 378.460588L301.203528 378.460588zM301.203528 264.086677c-10.253528 0-19.829628 3.928472-26.990724 11.107989-7.15598 7.176446-11.109012 16.757662-11.109012 26.992771 0 10.248412 3.934612 19.830651 11.109012 26.991748 14.317077 14.331403 39.632649 14.331403 53.984518 0 7.1744-7.161097 11.107989-16.743336 11.107989-26.991748 0-10.235109-3.946892-19.816325-11.107989-26.992771C321.020876 268.033569 311.43966 264.086677 301.203528 264.086677L301.203528 264.086677zM301.203528 264.086677" p-id="3760" fill="#595757"></path></svg>