<?xml version="1.0" encoding="utf-8"?>
<!-- Generator: Adobe Illustrator 15.0.0, SVG Export Plug-In . SVG Version: 6.00 Build 0)  -->
<!DOCTYPE svg PUBLIC "-//W3C//DTD SVG 1.1//EN" "http://www.w3.org/Graphics/SVG/1.1/DTD/svg11.dtd">
<svg version="1.1" id="图层_1" xmlns="http://www.w3.org/2000/svg" xmlns:xlink="http://www.w3.org/1999/xlink" x="0px" y="0px"
	 width="20px" height="24px" viewBox="0 0 20 24" enable-background="new 0 0 20 24" xml:space="preserve">
<path fill="#FFFFFF" d="M8.75,6.856v2.57H6.251v2.575H8.75v2.57h2.499v-2.57h2.499V9.427h-2.499v-2.57H8.75L8.75,6.856z
	 M18.333,10.52c0,3.455-1.668,6.989-8.333,11.762c-6.666-4.772-8.333-8.307-8.333-11.762V5.333C6.112,5.333,10,1.711,10,1.711
	s3.888,3.623,8.333,3.623V10.52L18.333,10.52z M18.333,3.619L18.333,3.619c0.919,0,1.667,0.77,1.667,1.715v5.186
	c0,4.69-2.706,8.635-9.049,13.17C10.665,23.894,10.33,24,10,24s-0.665-0.106-0.951-0.311C2.706,19.154,0,15.21,0,10.52V5.333
	c0-0.945,0.746-1.715,1.667-1.715c3.719,0,7.163-3.131,7.214-3.176C9.2,0.147,9.598,0,10,0s0.8,0.147,1.118,0.442
	C11.15,0.475,14.632,3.619,18.333,3.619z"/>
</svg>
