<?xml version="1.0" encoding="utf-8"?>
<!-- Generator: Adobe Illustrator 15.0.0, SVG Export Plug-In . SVG Version: 6.00 Build 0)  -->
<!DOCTYPE svg PUBLIC "-//W3C//DTD SVG 1.1//EN" "http://www.w3.org/Graphics/SVG/1.1/DTD/svg11.dtd">
<svg version="1.1" id="图层_1" xmlns="http://www.w3.org/2000/svg" xmlns:xlink="http://www.w3.org/1999/xlink" x="0px" y="0px"
	 width="21px" height="26px" viewBox="0 0 21 26" enable-background="new 0 0 21 26" xml:space="preserve">
<g>
	<path fill="#FFFFFF" d="M8.996,7.913v0.753l3.417,4.336h1.718v-2.542h-2.568V7.913H8.996L8.996,7.913z M6.577,10.459H6.428v2.542
		h2.159L6.577,10.459L6.577,10.459z M8.996,13.52v2.024h1.595L8.996,13.52L8.996,13.52z M18.841,11.536V6.407
		c-4.567,0-8.561-3.579-8.561-3.579S8.681,4.261,6.348,5.314l-1.09-1.376c2.22-0.923,3.835-2.336,3.876-2.369
		c0.323-0.292,0.736-0.437,1.145-0.437c0.413,0,0.821,0.146,1.148,0.437c0.037,0.032,3.61,3.146,7.413,3.146l0,0
		c0.949,0,1.714,0.757,1.714,1.692v5.129c0,2.761-0.985,5.259-3.153,7.776l-1.083-1.368C18.236,15.621,18.841,13.565,18.841,11.536
		L18.841,11.536z M14.204,20.118l1.063,1.345c-1.137,1.012-2.47,2.04-4.012,3.101c-0.293,0.203-0.633,0.304-0.976,0.304
		c-0.344,0-0.683-0.101-0.978-0.304c-6.516-4.489-9.298-8.384-9.298-13.027V6.407c0-0.935,0.767-1.692,1.713-1.692l0.319-0.008
		l1.239,1.567C2.768,6.358,2.247,6.407,1.717,6.407v5.129c0,3.417,1.713,6.919,8.563,11.639
		C11.841,22.094,13.137,21.082,14.204,20.118z"/>
	<path fill="#FFFFFF" d="M1.728,0.27c-0.276-0.353-0.854-0.36-1.29-0.017C0,0.593-0.131,1.152,0.145,1.504l19.129,24.226
		c0.274,0.353,0.851,0.36,1.292,0.021c0.434-0.34,0.564-0.902,0.286-1.251L1.728,0.27z"/>
</g>
</svg>
