<?xml version="1.0" encoding="utf-8"?>
<!-- Generator: Adobe Illustrator 15.0.0, SVG Export Plug-In . SVG Version: 6.00 Build 0)  -->
<!DOCTYPE svg PUBLIC "-//W3C//DTD SVG 1.1//EN" "http://www.w3.org/Graphics/SVG/1.1/DTD/svg11.dtd">
<svg version="1.1" id="图层_1" xmlns="http://www.w3.org/2000/svg" xmlns:xlink="http://www.w3.org/1999/xlink" x="0px" y="0px"
	 width="43px" height="43px" viewBox="0 0 43 43" enable-background="new 0 0 43 43" xml:space="preserve">
<g>
	<path fill="#332C2B" d="M26.423,36.279c0,0.78-0.632,1.411-1.409,1.411H6.716c-0.778,0-1.409-0.631-1.409-1.411V17.977
		c0-0.776,0.631-1.402,1.409-1.402h18.298c0.777,0,1.409,0.625,1.409,1.402V36.279L26.423,36.279z M2.502,17.706v18.846
		c0.14,2.202,1.977,3.953,4.214,3.953h18.298c2.33,0,4.228-1.896,4.228-4.226V17.977c0-2.329-1.897-4.223-4.228-4.223H6.716
		C4.479,13.754,2.642,15.502,2.502,17.706z"/>
	<path fill="#332C2B" d="M22.197,32.055H9.527c-0.771,0-1.403,0.632-1.403,1.41c0,0.776,0.632,1.408,1.403,1.408h12.67
		c0.784,0,1.415-0.632,1.415-1.408C23.612,32.687,22.981,32.055,22.197,32.055L22.197,32.055z M30.647,8.125
		c2.325,0,4.22,1.894,4.22,4.223v18.299c0,0.783-0.628,1.408-1.405,1.408c-0.772,0-1.403-0.625-1.403-1.408V12.348
		c0-0.777-0.639-1.411-1.411-1.411H12.346c-0.777,0-1.408-0.623-1.408-1.406c0-0.773,0.631-1.406,1.408-1.406H30.647z"/>
	<path fill="#332C2B" d="M36.281,2.495H17.979c-0.777,0-1.41,0.629-1.41,1.409c0,0.772,0.633,1.41,1.41,1.41h18.303
		c0.779,0,1.404,0.631,1.404,1.404v18.3c0,0.772,0.629,1.404,1.408,1.404s1.404-0.632,1.404-1.404v-18.3
		C40.498,4.387,38.61,2.495,36.281,2.495z"/>
</g>
</svg>
