<?xml version="1.0" encoding="utf-8"?>
<!-- Generator: Adobe Illustrator 15.0.0, SVG Export Plug-In . SVG Version: 6.00 Build 0)  -->
<!DOCTYPE svg PUBLIC "-//W3C//DTD SVG 1.1//EN" "http://www.w3.org/Graphics/SVG/1.1/DTD/svg11.dtd">
<svg version="1.1" id="图层_1" xmlns="http://www.w3.org/2000/svg" xmlns:xlink="http://www.w3.org/1999/xlink" x="0px" y="0px"
	 width="43px" height="43px" viewBox="0 0 43 43" enable-background="new 0 0 43 43" xml:space="preserve">
<g>
	
		<path fill-rule="evenodd" clip-rule="evenodd" fill="none" stroke="#9B9FAC" stroke-width="1.1339" stroke-miterlimit="22.9256" d="
		M5.477,2.823h8.563c2.051,0,3.728,1.678,3.728,3.729v8.563c0,2.05-1.677,3.727-3.728,3.727H5.477c-2.05,0-3.727-1.677-3.727-3.727
		V6.552C1.75,4.501,3.427,2.823,5.477,2.823z"/>
	
		<path fill-rule="evenodd" clip-rule="evenodd" fill="none" stroke="#9B9FAC" stroke-width="1.1339" stroke-miterlimit="22.9256" d="
		M5.477,24.16h8.563c2.051,0,3.728,1.676,3.728,3.726v8.565c0,2.05-1.677,3.726-3.728,3.726H5.477c-2.05,0-3.727-1.676-3.727-3.726
		v-8.565C1.75,25.836,3.427,24.16,5.477,24.16z"/>
	
		<path fill-rule="evenodd" clip-rule="evenodd" fill="#9B9FAC" stroke="#9B9FAC" stroke-width="1.1339" stroke-miterlimit="22.9256" d="
		M27.03,2.823h8.563c2.052,0,3.729,1.678,3.729,3.729v8.563c0,2.05-1.677,3.727-3.729,3.727H27.03c-2.051,0-3.728-1.677-3.728-3.727
		V6.552C23.303,4.501,24.979,2.823,27.03,2.823z"/>
	
		<path fill-rule="evenodd" clip-rule="evenodd" fill="none" stroke="#9B9FAC" stroke-width="1.1339" stroke-miterlimit="22.9256" d="
		M27.03,24.16h8.563c2.052,0,3.729,1.676,3.729,3.726v8.565c0,2.05-1.677,3.726-3.729,3.726H27.03c-2.051,0-3.728-1.676-3.728-3.726
		v-8.565C23.303,25.836,24.979,24.16,27.03,24.16z"/>
</g>
</svg>
