<?xml version="1.0" encoding="utf-8"?>
<!-- Generator: Adobe Illustrator 15.0.0, SVG Export Plug-In . SVG Version: 6.00 Build 0)  -->
<!DOCTYPE svg PUBLIC "-//W3C//DTD SVG 1.1//EN" "http://www.w3.org/Graphics/SVG/1.1/DTD/svg11.dtd">
<svg version="1.1" id="图层_1" xmlns="http://www.w3.org/2000/svg" xmlns:xlink="http://www.w3.org/1999/xlink" x="0px" y="0px"
	 width="50px" height="50px" viewBox="0 0 50 50" enable-background="new 0 0 50 50" xml:space="preserve">
<g>
	<path fill-rule="evenodd" clip-rule="evenodd" fill="#595757" d="M15.355,35.691v1.899c0,0.506,0.2,0.99,0.557,1.35
		c0.362,0.356,0.843,0.561,1.354,0.561h9.821c0.512-0.004,0.996-0.204,1.355-0.561c0.358-0.359,0.561-0.844,0.557-1.35v-1.899
		c0-0.507-0.198-0.991-0.557-1.354c-0.359-0.353-0.844-0.557-1.355-0.557h-9.821c-0.511,0-0.996,0.204-1.354,0.562
		C15.556,34.7,15.355,35.185,15.355,35.691z"/>
	<path fill-rule="evenodd" clip-rule="evenodd" fill="#595757" d="M25.531,32.078h-6.707c-0.92,0-1.806-0.366-2.452-1.012
		c-0.651-0.652-1.017-1.537-1.017-2.457V13.965c0-0.92,0.366-1.801,1.013-2.452c0.65-0.649,1.536-1.015,2.456-1.015h6.707
		c0.919,0,1.804,0.364,2.452,1.013C28.64,12.161,29,13.045,29,13.965v14.644c0.004,0.92-0.36,1.801-1.013,2.453
		C27.34,31.712,26.45,32.074,25.531,32.078z"/>
	<path fill-rule="evenodd" clip-rule="evenodd" fill="#595757" d="M13.649,20.677v-6.711c-0.004-0.92-0.37-1.804-1.022-2.452
		c-0.651-0.651-1.528-1.015-2.447-1.015H3.469c-0.92,0-1.805,0.368-2.451,1.017C0.362,12.169,0,13.045,0,13.965v6.711
		c0.005,0.923,0.37,1.8,1.018,2.451c0.655,0.652,1.531,1.018,2.451,1.018h6.711c0.919,0,1.801-0.366,2.451-1.021
		C13.283,22.477,13.649,21.6,13.649,20.677z"/>
	<path fill-rule="evenodd" clip-rule="evenodd" fill="#595757" d="M10.18,39.497H3.469c-0.92,0.004-1.801-0.361-2.451-1.013
		C0.37,37.837,0,36.951,0,36.032V29.32c0-0.918,0.362-1.8,1.018-2.451c0.646-0.647,1.531-1.013,2.451-1.013h6.711
		c0.919,0,1.801,0.36,2.451,1.013c0.647,0.646,1.013,1.533,1.018,2.451v6.712c0,0.919-0.366,1.8-1.013,2.452
		C11.981,39.13,11.099,39.497,10.18,39.497z"/>
	<path fill-rule="evenodd" clip-rule="evenodd" fill="#FFFFFF" d="M16.976,35.691v1.899c0,0.076,0.026,0.152,0.086,0.203
		c0.05,0.056,0.127,0.085,0.204,0.085h9.821c0.084,0,0.154-0.029,0.21-0.085c0.055-0.051,0.084-0.127,0.084-0.203v-1.899
		c0-0.076-0.029-0.153-0.084-0.208c-0.056-0.056-0.126-0.081-0.21-0.081h-9.821c-0.077,0-0.154,0.031-0.208,0.081
		C17.002,35.538,16.976,35.615,16.976,35.691z"/>
	<path fill-rule="evenodd" clip-rule="evenodd" fill="#FFFFFF" d="M25.531,30.458h-6.707c-0.495,0.004-0.962-0.192-1.312-0.538
		c-0.344-0.347-0.536-0.82-0.536-1.311V13.965c-0.004-0.49,0.192-0.961,0.536-1.306c0.35-0.345,0.817-0.541,1.312-0.541h6.707
		c0.494,0,0.962,0.191,1.311,0.537c0.349,0.349,0.54,0.821,0.54,1.311v14.644c0,0.49-0.191,0.964-0.54,1.307
		C26.498,30.266,26.025,30.458,25.531,30.458z"/>
	<path fill-rule="evenodd" clip-rule="evenodd" fill="#FFFFFF" d="M12.027,20.677v-6.711c0-0.49-0.195-0.961-0.54-1.311
		c-0.349-0.341-0.817-0.537-1.307-0.537H3.469c-0.494,0-0.962,0.196-1.311,0.544c-0.345,0.345-0.537,0.813-0.537,1.303v6.711
		c0,0.49,0.196,0.962,0.54,1.307c0.345,0.349,0.813,0.544,1.307,0.544h6.711c0.49,0,0.961-0.195,1.307-0.544
		C11.836,21.635,12.031,21.167,12.027,20.677z"/>
	<path fill-rule="evenodd" clip-rule="evenodd" fill="#FFFFFF" d="M10.18,37.879H3.469c-0.494,0-0.962-0.191-1.307-0.54
		c-0.344-0.346-0.54-0.817-0.54-1.307V29.32c0-0.488,0.191-0.961,0.537-1.307c0.348-0.348,0.816-0.539,1.311-0.539h6.711
		c0.49,0,0.958,0.191,1.307,0.535c0.345,0.35,0.54,0.822,0.54,1.311v6.712c0.004,0.489-0.191,0.961-0.54,1.307
		C11.142,37.688,10.67,37.879,10.18,37.879z"/>
</g>
</svg>
