<?xml version="1.0" encoding="utf-8"?>
<!-- Generator: Adobe Illustrator 15.0.0, SVG Export Plug-In . SVG Version: 6.00 Build 0)  -->
<!DOCTYPE svg PUBLIC "-//W3C//DTD SVG 1.1//EN" "http://www.w3.org/Graphics/SVG/1.1/DTD/svg11.dtd">
<svg version="1.1" id="图层_1" xmlns="http://www.w3.org/2000/svg" xmlns:xlink="http://www.w3.org/1999/xlink" x="0px" y="0px"
	 width="50px" height="50px" viewBox="0 0 50 50" enable-background="new 0 0 50 50" xml:space="preserve">
<g>
	<path fill="#595757" d="M18.796,38.089v2.323c0,0.62,0.245,1.213,0.682,1.652c0.443,0.437,1.032,0.688,1.658,0.688h12.022
		c0.627-0.005,1.22-0.25,1.658-0.688c0.438-0.438,0.688-1.032,0.683-1.652v-2.323c0-0.621-0.243-1.214-0.683-1.658
		c-0.438-0.431-1.033-0.683-1.658-0.683H21.136c-0.626,0-1.22,0.252-1.658,0.688C19.043,36.875,18.796,37.47,18.796,38.089z"/>
	<path fill="#595757" d="M31.254,33.666h-8.21c-1.127,0-2.211-0.448-3.002-1.239c-0.797-0.798-1.245-1.881-1.245-3.007V11.492
		c0-1.126,0.448-2.204,1.241-3.001c0.795-0.794,1.879-1.243,3.007-1.243h8.21c1.125,0,2.208,0.446,3,1.24
		c0.807,0.796,1.246,1.878,1.246,3.004V29.42c0.005,1.126-0.439,2.204-1.241,3.003C33.468,33.218,32.379,33.661,31.254,33.666z"/>
	<path fill="#595757" d="M16.708,19.708v-8.215c-0.004-1.126-0.453-2.207-1.251-3.001c-0.796-0.797-1.87-1.242-2.995-1.242H4.247
		c-1.126,0-2.209,0.45-3,1.245C0.443,9.294,0,10.366,0,11.492v8.215c0.006,1.131,0.453,2.204,1.246,3.001
		c0.802,0.798,1.874,1.246,3,1.246h8.215c1.125,0,2.205-0.448,3-1.25C16.26,21.912,16.708,20.839,16.708,19.708z"/>
	<path fill="#595757" d="M12.462,42.747H4.247c-1.126,0.005-2.205-0.441-3-1.239C0.453,40.716,0,39.631,0,38.506v-8.217
		c0-1.123,0.443-2.204,1.246-3c0.791-0.791,1.874-1.241,3-1.241h8.215c1.125,0,2.205,0.441,3,1.241c0.792,0.791,1.24,1.877,1.246,3
		v8.217c0,1.125-0.448,2.204-1.24,3.002C14.667,42.298,13.587,42.747,12.462,42.747z"/>
	<path fill="#FFFFFF" d="M20.781,38.089v2.323c0,0.095,0.032,0.188,0.105,0.249c0.061,0.069,0.155,0.104,0.25,0.104h12.022
		c0.103,0,0.188-0.034,0.257-0.104c0.067-0.062,0.103-0.154,0.103-0.249v-2.323c0-0.094-0.035-0.188-0.103-0.256
		c-0.068-0.068-0.154-0.098-0.257-0.098H21.136c-0.095,0-0.189,0.038-0.255,0.098C20.813,37.901,20.781,37.995,20.781,38.089z"/>
	<path fill="#FFFFFF" d="M31.254,31.682h-8.21c-0.607,0.005-1.179-0.234-1.607-0.658c-0.421-0.424-0.656-1.004-0.656-1.604V11.492
		c-0.004-0.6,0.235-1.177,0.656-1.599c0.428-0.422,1-0.662,1.607-0.662h8.21c0.604,0,1.178,0.234,1.604,0.657
		c0.428,0.427,0.66,1.005,0.66,1.604V29.42c0,0.6-0.232,1.181-0.66,1.601C32.438,31.447,31.858,31.682,31.254,31.682z"/>
	<path fill="#FFFFFF" d="M14.723,19.708v-8.215c0-0.6-0.238-1.176-0.661-1.604c-0.427-0.417-1-0.657-1.6-0.657H4.247
		c-0.604,0-1.178,0.24-1.604,0.666c-0.423,0.422-0.658,0.995-0.658,1.595v8.215c0,0.601,0.24,1.179,0.661,1.601
		c0.422,0.428,0.995,0.666,1.599,0.666h8.216c0.6,0,1.176-0.238,1.6-0.666C14.489,20.881,14.728,20.309,14.723,19.708z"/>
	<path fill="#FFFFFF" d="M12.462,40.767H4.247c-0.604,0-1.178-0.234-1.6-0.661c-0.421-0.423-0.661-1.001-0.661-1.6v-8.217
		c0-0.597,0.234-1.176,0.658-1.599c0.426-0.427,0.999-0.66,1.605-0.66h8.215c0.6,0,1.172,0.233,1.6,0.654
		c0.422,0.429,0.661,1.007,0.661,1.604v8.217c0.005,0.599-0.233,1.177-0.661,1.6C13.639,40.532,13.062,40.767,12.462,40.767z"/>
</g>
</svg>
