<?xml version="1.0" encoding="utf-8"?>
<!-- Generator: Adobe Illustrator 15.0.0, SVG Export Plug-In . SVG Version: 6.00 Build 0)  -->
<!DOCTYPE svg PUBLIC "-//W3C//DTD SVG 1.1//EN" "http://www.w3.org/Graphics/SVG/1.1/DTD/svg11.dtd">
<svg version="1.1" id="图层_1" xmlns="http://www.w3.org/2000/svg" xmlns:xlink="http://www.w3.org/1999/xlink" x="0px" y="0px"
	 width="50px" height="50px" viewBox="0 0 50 50" enable-background="new 0 0 50 50" xml:space="preserve">
<g>
	<path fill-rule="evenodd" clip-rule="evenodd" fill="#595757" d="M15.355,35.691v1.898c0,0.507,0.204,0.991,0.562,1.35
		c0.357,0.357,0.843,0.562,1.35,0.562h9.827c0.506-0.005,0.991-0.204,1.349-0.562c0.361-0.358,0.562-0.843,0.558-1.35v-1.898
		c0-0.506-0.2-0.991-0.558-1.354c-0.357-0.353-0.843-0.557-1.349-0.557h-9.827c-0.507,0-0.992,0.204-1.35,0.562
		S15.355,35.186,15.355,35.691z"/>
	<path fill-rule="evenodd" clip-rule="evenodd" fill="#595757" d="M25.535,32.078h-6.711c-0.92,0-1.801-0.365-2.451-1.013
		c-0.651-0.651-1.018-1.536-1.018-2.456V13.966c0-0.92,0.366-1.801,1.018-2.452c0.646-0.648,1.531-1.015,2.451-1.015h6.711
		c0.92,0,1.801,0.364,2.452,1.013C28.638,12.161,29,13.046,29,13.966v14.644c0.004,0.92-0.362,1.801-1.009,2.452
		C27.34,31.713,26.455,32.074,25.535,32.078z"/>
	<path fill-rule="evenodd" clip-rule="evenodd" fill="#595757" d="M13.648,20.677v-6.711c-0.004-0.92-0.365-1.805-1.017-2.452
		c-0.651-0.65-1.532-1.015-2.451-1.015H3.469c-0.919,0-1.8,0.368-2.452,1.018C0.366,12.169,0,13.046,0,13.966v6.711
		c0.004,0.924,0.37,1.801,1.021,2.451c0.651,0.651,1.528,1.018,2.447,1.018h6.712c0.919,0,1.8-0.366,2.451-1.021
		C13.283,22.478,13.648,21.601,13.648,20.677z"/>
	<path fill-rule="evenodd" clip-rule="evenodd" fill="#595757" d="M10.181,39.496H3.469c-0.919,0.005-1.8-0.361-2.452-1.013
		C0.37,37.837,0,36.951,0,36.032V29.32c0-0.919,0.366-1.8,1.017-2.451c0.647-0.646,1.532-1.013,2.452-1.013h6.712
		c0.919,0,1.8,0.361,2.451,1.013c0.651,0.646,1.013,1.532,1.017,2.451v6.712c0,0.919-0.365,1.8-1.013,2.451
		C11.984,39.131,11.1,39.496,10.181,39.496z"/>
	<path fill-rule="evenodd" clip-rule="evenodd" fill="#FFFFFF" d="M16.977,35.691v1.898c0,0.076,0.03,0.153,0.086,0.204
		c0.055,0.056,0.127,0.085,0.204,0.085h9.827c0.076,0,0.152-0.029,0.208-0.085c0.051-0.051,0.081-0.128,0.081-0.204v-1.898
		c0-0.076-0.03-0.153-0.081-0.208c-0.056-0.056-0.132-0.081-0.208-0.081h-9.827c-0.077,0-0.149,0.029-0.209,0.081
		C17.007,35.538,16.977,35.615,16.977,35.691z"/>
	<path fill-rule="evenodd" clip-rule="evenodd" fill="#FFFFFF" d="M25.535,30.457h-6.711c-0.489,0.004-0.962-0.191-1.307-0.536
		c-0.345-0.35-0.541-0.821-0.541-1.312V13.966c-0.004-0.49,0.191-0.962,0.541-1.307c0.345-0.345,0.817-0.541,1.307-0.541h6.711
		c0.49,0,0.962,0.191,1.307,0.536c0.35,0.35,0.541,0.821,0.541,1.312v14.644c0,0.49-0.191,0.962-0.541,1.307
		C26.497,30.266,26.025,30.457,25.535,30.457z"/>
	<path fill-rule="evenodd" clip-rule="evenodd" fill="#FFFFFF" d="M12.031,20.677v-6.711c0-0.49-0.195-0.962-0.545-1.312
		c-0.345-0.34-0.813-0.536-1.306-0.536H3.469c-0.49,0-0.962,0.196-1.307,0.545c-0.349,0.345-0.541,0.813-0.541,1.303v6.711
		c0,0.489,0.196,0.962,0.541,1.307c0.349,0.349,0.817,0.545,1.307,0.545h6.712c0.493,0,0.961-0.196,1.306-0.545
		C11.836,21.635,12.031,21.166,12.031,20.677z"/>
	<path fill-rule="evenodd" clip-rule="evenodd" fill="#FFFFFF" d="M10.181,37.879H3.469c-0.49,0-0.958-0.191-1.307-0.54
		c-0.345-0.345-0.541-0.817-0.541-1.307V29.32c0-0.489,0.191-0.962,0.541-1.307c0.345-0.349,0.817-0.54,1.307-0.54h6.712
		c0.489,0,0.961,0.191,1.306,0.536c0.35,0.349,0.545,0.821,0.545,1.311v6.712c0,0.489-0.195,0.962-0.54,1.307
		C11.142,37.688,10.67,37.879,10.181,37.879z"/>
	<path fill-rule="evenodd" clip-rule="evenodd" fill="#595757" d="M19.411,22.315h2.438v-8.104c0-0.289,0.153-0.558,0.4-0.697
		c0.251-0.146,0.562-0.146,0.813,0c0.252,0.14,0.404,0.408,0.404,0.697v8.104c0,0.885-0.719,1.608-1.608,1.617h-2.43
		C18.22,23.933,18.13,22.315,19.411,22.315z"/>
</g>
</svg>
