<?xml version="1.0" encoding="utf-8"?>
<!-- Generator: Adobe Illustrator 15.0.0, SVG Export Plug-In . SVG Version: 6.00 Build 0)  -->
<!DOCTYPE svg PUBLIC "-//W3C//DTD SVG 1.1//EN" "http://www.w3.org/Graphics/SVG/1.1/DTD/svg11.dtd">
<svg version="1.1" id="图层_1" xmlns="http://www.w3.org/2000/svg" xmlns:xlink="http://www.w3.org/1999/xlink" x="0px" y="0px"
	 width="50px" height="50px" viewBox="0 0 50 50" enable-background="new 0 0 50 50" xml:space="preserve">
<g>
	<path fill="#595757" d="M18.796,38.087v2.323c0,0.62,0.25,1.213,0.688,1.653c0.437,0.437,1.032,0.688,1.653,0.688h12.029
		c0.619-0.007,1.213-0.25,1.652-0.688c0.441-0.439,0.686-1.033,0.682-1.653v-2.323c0-0.619-0.244-1.213-0.682-1.657
		c-0.439-0.432-1.033-0.683-1.652-0.683H21.137c-0.621,0-1.215,0.251-1.653,0.688C19.046,36.874,18.796,37.468,18.796,38.087z"/>
	<path fill="#595757" d="M31.258,33.664h-8.215c-1.126,0-2.205-0.447-3-1.24c-0.796-0.797-1.246-1.88-1.246-3.006V11.493
		c0-1.126,0.448-2.205,1.246-3.001c0.791-0.794,1.874-1.243,3-1.243h8.215c1.125,0,2.203,0.445,3,1.24
		c0.799,0.795,1.24,1.878,1.24,3.004v17.925c0.006,1.126-0.441,2.206-1.234,3.003C33.467,33.217,32.383,33.659,31.258,33.664z"/>
	<path fill="#595757" d="M16.707,19.708v-8.215c-0.005-1.126-0.447-2.209-1.245-3.001c-0.797-0.796-1.875-1.243-3-1.243H4.246
		c-1.125,0-2.203,0.451-3.001,1.246C0.448,9.293,0,10.367,0,11.493v8.215c0.005,1.131,0.453,2.205,1.25,3
		c0.796,0.797,1.87,1.246,2.995,1.246h8.216c1.125,0,2.203-0.448,3-1.25C16.26,21.913,16.707,20.839,16.707,19.708z"/>
	<path fill="#595757" d="M12.463,42.744H4.246c-1.125,0.007-2.203-0.441-3.001-1.24C0.453,40.714,0,39.629,0,38.505v-8.217
		c0-1.126,0.448-2.204,1.245-3c0.792-0.791,1.875-1.241,3.001-1.241h8.217c1.125,0,2.203,0.442,3,1.241
		c0.797,0.791,1.24,1.874,1.245,3v8.217c0,1.124-0.446,2.203-1.24,2.999C14.669,42.298,13.587,42.744,12.463,42.744z"/>
	<path fill="#FFFFFF" d="M20.782,38.087v2.323c0,0.093,0.036,0.188,0.105,0.25c0.067,0.069,0.155,0.104,0.25,0.104h12.029
		c0.092,0,0.186-0.034,0.254-0.104c0.063-0.063,0.1-0.157,0.1-0.25v-2.323c0-0.093-0.037-0.188-0.1-0.256
		c-0.068-0.067-0.162-0.098-0.254-0.098H21.137c-0.095,0-0.183,0.036-0.256,0.098C20.818,37.899,20.782,37.994,20.782,38.087z"/>
	<path fill="#FFFFFF" d="M31.258,31.68h-8.215c-0.599,0.005-1.178-0.234-1.6-0.656c-0.422-0.429-0.662-1.005-0.662-1.605V11.493
		c-0.005-0.6,0.234-1.178,0.662-1.6c0.422-0.423,1-0.662,1.6-0.662h8.215c0.6,0,1.178,0.233,1.6,0.655
		c0.428,0.429,0.662,1.006,0.662,1.606v17.925c0,0.601-0.234,1.179-0.662,1.601C32.436,31.445,31.857,31.68,31.258,31.68z"/>
	<path fill="#FFFFFF" d="M14.728,19.708v-8.215c0-0.6-0.239-1.178-0.668-1.606c-0.422-0.416-0.995-0.655-1.598-0.655H4.246
		c-0.6,0-1.177,0.239-1.6,0.667c-0.427,0.422-0.662,0.995-0.662,1.595v8.215c0,0.599,0.24,1.178,0.662,1.6
		c0.427,0.428,1,0.667,1.6,0.667h8.217c0.603,0,1.176-0.239,1.598-0.667C14.488,20.881,14.728,20.307,14.728,19.708z"/>
	<path fill="#FFFFFF" d="M12.463,40.765H4.246c-0.6,0-1.173-0.234-1.6-0.661c-0.422-0.422-0.662-1-0.662-1.599v-8.217
		c0-0.599,0.234-1.179,0.662-1.599c0.422-0.429,1-0.663,1.6-0.663h8.217c0.598,0,1.176,0.234,1.598,0.656
		c0.429,0.427,0.667,1.006,0.667,1.605v8.217c0,0.599-0.239,1.177-0.661,1.599C13.639,40.53,13.061,40.765,12.463,40.765z"/>
	<path fill="#595757" d="M23.761,21.713h2.985v-9.92c0-0.354,0.187-0.684,0.488-0.853c0.308-0.179,0.688-0.179,0.996,0
		c0.309,0.171,0.494,0.499,0.494,0.853v9.92c0,1.084-0.88,1.969-1.969,1.979h-2.974C22.303,23.693,22.193,21.713,23.761,21.713z"/>
</g>
</svg>
