<?xml version="1.0" encoding="utf-8"?>
<!-- Generator: Adobe Illustrator 15.0.0, SVG Export Plug-In . SVG Version: 6.00 Build 0)  -->
<!DOCTYPE svg PUBLIC "-//W3C//DTD SVG 1.1//EN" "http://www.w3.org/Graphics/SVG/1.1/DTD/svg11.dtd">
<svg version="1.1" id="图层_1" xmlns="http://www.w3.org/2000/svg" xmlns:xlink="http://www.w3.org/1999/xlink" x="0px" y="0px"
	 width="43px" height="43px" viewBox="0 0 43 43" enable-background="new 0 0 43 43" xml:space="preserve">
<g>
	<path d="M18.191,26.157h3.449c0.331,0,0.634,0.136,0.853,0.355h0.002c0.221,0.221,0.354,0.524,0.354,0.854
		c0,0.336-0.133,0.638-0.353,0.858c-0.219,0.218-0.523,0.354-0.857,0.354h-3.449c-1.034,0-1.972-0.42-2.652-1.1h-0.002
		c-0.68-0.679-1.1-1.618-1.1-2.653v-4.717c0-0.332,0.135-0.635,0.354-0.854l0.002-0.002c0.219-0.219,0.524-0.354,0.855-0.354
		c0.332,0,0.636,0.135,0.855,0.354l0.002,0.002c0.217,0.22,0.354,0.522,0.354,0.854v4.717c0,0.367,0.148,0.699,0.39,0.941
		C17.49,26.007,17.824,26.157,18.191,26.157z"/>
	<path fill="#332C2B" d="M26.423,36.28c0,0.778-0.632,1.411-1.407,1.411H6.715c-0.78,0-1.409-0.633-1.409-1.411V17.978
		c0-0.778,0.629-1.405,1.409-1.405h18.301c0.775,0,1.407,0.627,1.407,1.405V36.28L26.423,36.28z M2.5,17.706v18.847
		c0.139,2.203,1.977,3.952,4.215,3.952h18.301c2.327,0,4.227-1.894,4.227-4.225V17.978c0-2.331-1.899-4.223-4.227-4.223H6.715
		C4.477,13.755,2.639,15.503,2.5,17.706z"/>
	<path fill="#332C2B" d="M30.647,8.125H12.344c-0.777,0-1.409,0.632-1.409,1.405c0,0.783,0.632,1.408,1.409,1.408h18.303
		c0.773,0,1.411,0.632,1.411,1.409v18.3c0,0.783,0.632,1.409,1.404,1.409c0.777,0,1.403-0.626,1.403-1.409v-18.3
		C34.866,10.018,32.973,8.125,30.647,8.125z"/>
	<path fill="#332C2B" d="M36.282,2.495H17.978c-0.776,0-1.411,0.631-1.411,1.408c0,0.773,0.635,1.411,1.411,1.411h18.304
		c0.778,0,1.404,0.63,1.404,1.403V25.02c0,0.772,0.629,1.402,1.407,1.402c0.78,0,1.406-0.63,1.406-1.402V6.717
		C40.5,4.388,38.61,2.495,36.282,2.495z"/>
</g>
</svg>
