<?xml version="1.0" encoding="utf-8"?>
<!-- Generator: Adobe Illustrator 15.0.0, SVG Export Plug-In . SVG Version: 6.00 Build 0)  -->
<!DOCTYPE svg PUBLIC "-//W3C//DTD SVG 1.1//EN" "http://www.w3.org/Graphics/SVG/1.1/DTD/svg11.dtd">
<svg version="1.1" id="图层_1" xmlns="http://www.w3.org/2000/svg" xmlns:xlink="http://www.w3.org/1999/xlink" x="0px" y="0px"
	 width="50px" height="50px" viewBox="0 0 50 50" enable-background="new 0 0 50 50" xml:space="preserve">
<g>
	<path fill="#595757" d="M16.016,36.436c-0.438-0.438-1.032-0.688-1.653-0.688H2.334c-0.619,0-1.213,0.251-1.652,0.683
		C0.244,36.874,0,37.468,0,38.087v2.323c-0.004,0.62,0.24,1.214,0.682,1.653c0.439,0.438,1.033,0.681,1.652,0.688h12.029
		c0.621,0,1.216-0.251,1.653-0.688c0.438-0.44,0.688-1.033,0.688-1.653v-2.323C16.704,37.468,16.454,36.874,16.016,36.436z"/>
	<path fill="#595757" d="M1.236,32.421c-0.793-0.797-1.24-1.877-1.234-3.003V11.493c0-1.126,0.441-2.209,1.24-3.004
		c0.797-0.795,1.875-1.24,3-1.24h8.215c1.126,0,2.209,0.449,3,1.243c0.798,0.796,1.246,1.875,1.246,3.001v17.925
		c0,1.126-0.45,2.209-1.246,3.006c-0.796,0.793-1.874,1.24-3,1.24H4.242C3.117,33.659,2.033,33.217,1.236,32.421z"/>
	<path fill="#595757" d="M20.039,22.704c0.797,0.802,1.875,1.25,3,1.25h8.216c1.125,0,2.198-0.449,2.995-1.246
		c0.797-0.795,1.245-1.869,1.25-3v-8.215c0-1.126-0.448-2.2-1.245-2.998c-0.798-0.795-1.876-1.246-3.001-1.246h-8.215
		c-1.125,0-2.203,0.447-3,1.243c-0.798,0.792-1.24,1.875-1.245,3.001v8.215C18.793,20.839,19.24,21.913,20.039,22.704z"/>
	<path fill="#595757" d="M20.033,41.504c-0.794-0.796-1.24-1.875-1.24-2.999v-8.217c0.005-1.126,0.448-2.209,1.245-3
		c0.796-0.799,1.875-1.241,3-1.241h8.217c1.126,0,2.209,0.45,3.001,1.241c0.797,0.796,1.245,1.874,1.245,3v8.217
		c0,1.124-0.453,2.209-1.245,2.999c-0.798,0.799-1.876,1.247-3.001,1.24h-8.217C21.913,42.744,20.831,42.298,20.033,41.504z"/>
	<path fill="#FFFFFF" d="M14.619,37.831c-0.073-0.062-0.161-0.098-0.256-0.098H2.334c-0.092,0-0.186,0.03-0.254,0.098
		c-0.063,0.068-0.1,0.163-0.1,0.256v2.323c0,0.093,0.037,0.188,0.1,0.25c0.068,0.069,0.162,0.104,0.254,0.104h12.029
		c0.095,0,0.183-0.034,0.25-0.104c0.069-0.063,0.105-0.157,0.105-0.25v-2.323C14.718,37.994,14.682,37.899,14.619,37.831z"/>
	<path fill="#FFFFFF" d="M2.643,31.019c-0.428-0.422-0.662-1-0.662-1.601V11.493c0-0.601,0.234-1.178,0.662-1.606
		c0.422-0.422,1-0.655,1.6-0.655h8.215c0.6,0,1.178,0.239,1.6,0.662c0.428,0.422,0.667,1,0.662,1.6v17.925
		c0,0.601-0.24,1.177-0.662,1.605c-0.422,0.422-1.001,0.661-1.6,0.656H4.242C3.643,31.68,3.064,31.445,2.643,31.019z"/>
	<path fill="#FFFFFF" d="M21.439,21.308c0.422,0.428,0.995,0.667,1.598,0.667h8.217c0.6,0,1.173-0.239,1.6-0.667
		c0.422-0.422,0.662-1.001,0.662-1.6v-8.215c0-0.6-0.235-1.173-0.662-1.595c-0.423-0.428-1-0.667-1.6-0.667h-8.215
		c-0.603,0-1.176,0.239-1.598,0.655c-0.429,0.429-0.668,1.007-0.668,1.606v8.215C20.772,20.307,21.012,20.881,21.439,21.308z"/>
	<path fill="#FFFFFF" d="M21.433,40.104c-0.422-0.422-0.661-1-0.661-1.599v-8.217c0-0.6,0.239-1.179,0.667-1.605
		c0.422-0.422,1-0.656,1.598-0.656h8.217c0.6,0,1.177,0.234,1.6,0.663c0.428,0.42,0.662,1,0.662,1.599v8.217
		c0,0.599-0.24,1.177-0.662,1.599c-0.427,0.427-1,0.661-1.6,0.661h-8.217C22.439,40.765,21.861,40.53,21.433,40.104z"/>
	<path fill="#595757" d="M11.718,23.692H8.744c-1.089-0.011-1.969-0.896-1.969-1.979v-9.92c0-0.354,0.186-0.682,0.494-0.853
		c0.308-0.179,0.688-0.179,0.996,0c0.302,0.169,0.488,0.499,0.488,0.853v9.92h2.985C13.307,21.713,13.197,23.693,11.718,23.692z"/>
</g>
</svg>
