<?xml version="1.0" standalone="no"?><!DOCTYPE svg PUBLIC "-//W3C//DTD SVG 1.1//EN" "http://www.w3.org/Graphics/SVG/1.1/DTD/svg11.dtd"><svg t="1552726713322" class="icon" style="" viewBox="0 0 1024 1024" version="1.1" xmlns="http://www.w3.org/2000/svg" p-id="5977" xmlns:xlink="http://www.w3.org/1999/xlink" width="200" height="200"><defs><style type="text/css"></style></defs><path d="M881.915 379.805v46.898h71.01v148.688h-71.01v46.898h112.627V379.805z" fill="#666666" p-id="5978"></path><path d="M825.914 824.236H84.764c-30.664 0-55.307-24.473-55.307-54.91V254.521c0-30.437 24.644-54.912 55.307-54.912h741.15c30.663 0 55.307 25.156 55.307 55.593v514.124c0 30.438-24.644 54.91-55.307 54.91z m0-551.204c0-10.562-8.688-18.511-18.681-18.511H103.448c-10.678 0-18.684 8.631-18.684 18.511V751.44c0 10.618 8.688 18.511 18.684 18.511h703.786c10.675 0 18.681-8.575 18.681-18.511V273.032z m-309.93 446.667L396.001 408.688 343.36 547.017H238.083V495.4h86.653l71.266-189.945 119.983 311.008L566.637 495.4h105.336v51.616h-69.336l-86.653 172.683z m0 0" fill="#666767" p-id="5979" data-spm-anchor-id="a313x.7781069.0.i5" class="selected"></path></svg>