<?xml version="1.0" encoding="utf-8"?>
<!-- Generator: Adobe Illustrator 15.0.0, SVG Export Plug-In . SVG Version: 6.00 Build 0)  -->
<!DOCTYPE svg PUBLIC "-//W3C//DTD SVG 1.1//EN" "http://www.w3.org/Graphics/SVG/1.1/DTD/svg11.dtd">
<svg version="1.1" id="图层_1" xmlns="http://www.w3.org/2000/svg" xmlns:xlink="http://www.w3.org/1999/xlink" x="0px" y="0px"
	 width="50px" height="50px" viewBox="0 0 50 50" enable-background="new 0 0 50 50" xml:space="preserve">
<g>
	<path fill="#5EA4FF" d="M24.999,39.475c-3.884,0-7.401-1.574-9.943-4.119l0,0c-2.537-2.541-4.112-6.06-4.112-9.938
		c0-3.878,1.575-7.396,4.112-9.939l0.005-0.004c2.543-2.538,6.06-4.114,9.938-4.114s7.396,1.576,9.938,4.114l0,0
		c2.541,2.541,4.119,6.06,4.119,9.943s-1.578,7.397-4.119,9.938C32.396,37.9,28.882,39.475,24.999,39.475L24.999,39.475z
		 M16.018,34.393h0.005c2.294,2.297,5.473,3.721,8.977,3.721c3.505,0,6.68-1.424,8.977-3.721c2.293-2.295,3.719-5.473,3.719-8.976
		s-1.426-6.683-3.719-8.978v-0.004c-2.297-2.294-5.472-3.714-8.977-3.714c-3.504,0-6.683,1.42-8.981,3.714
		c-2.294,2.299-3.714,5.479-3.714,8.982C12.304,28.92,13.724,32.098,16.018,34.393z"/>
	<path fill="#5EA4FF" d="M17.152,23.429c-0.398-0.4-1.046-0.4-1.443,0c-0.399,0.398-0.399,1.045,0,1.444l6.556,6.559
		c0.399,0.396,1.045,0.396,1.444,0l10.574-10.583c0.398-0.399,0.398-1.046,0-1.445c-0.393-0.399-1.04-0.399-1.438,0l-9.859,9.86
		L17.152,23.429z"/>
</g>
</svg>
