<?xml version="1.0" encoding="utf-8"?>
<!-- Generator: Adobe Illustrator 15.0.0, SVG Export Plug-In . SVG Version: 6.00 Build 0)  -->
<!DOCTYPE svg PUBLIC "-//W3C//DTD SVG 1.1//EN" "http://www.w3.org/Graphics/SVG/1.1/DTD/svg11.dtd">
<svg version="1.1" id="图层_1" xmlns="http://www.w3.org/2000/svg" xmlns:xlink="http://www.w3.org/1999/xlink" x="0px" y="0px"
	 width="150px" height="150px" viewBox="0 0 150 150" enable-background="new 0 0 150 150" xml:space="preserve">
<g>
	<g>
		<path fill="#838692" d="M40.421,83.441l-0.068-0.248l-0.074-0.238l-0.086-0.246l-0.081-0.225l-0.091-0.221l0,0l-0.104-0.232
			l-0.102-0.219l-0.098-0.203l-0.101-0.178l-0.111-0.189h0.003l-0.1-0.166l-0.121-0.182l-0.119-0.166l-0.063-0.078l-0.063-0.082
			l-0.058-0.07l-0.063-0.074l0,0l-0.073-0.08V80.34l-0.063-0.068l-0.069-0.068l-0.071-0.066l-0.066-0.066l-0.066-0.061l-0.064-0.059
			l-0.08-0.066l-0.053-0.045l-0.08-0.057l-0.074-0.057l-0.077-0.051l-0.06-0.039l-0.074-0.047l-0.007-0.002l-0.068-0.041
			l-0.065-0.035l-0.083-0.041v-0.002l-0.069-0.035l-0.076-0.035l-0.084-0.035v-0.004l-0.068-0.025l-0.063-0.021l0,0l-0.086-0.029
			l-0.068-0.02l-0.069-0.02l-0.085-0.02v0.002l-0.089-0.02v-0.004l-0.053-0.008l-0.088-0.012l0,0l-0.089-0.01l-0.065-0.008l0,0
			l-0.092-0.004l-0.052-0.006v0.002h-0.092h-0.068v-0.002l-0.051,0.002l-0.062,0.004l-0.07,0.004l-0.053,0.008l-0.057,0.008
			l-0.067,0.008l0,0l-0.062,0.008l-0.069,0.014l-0.042,0.012l-0.068,0.014l-0.015,0.002l-0.072,0.018v-0.004l-0.048,0.016
			l-0.055,0.014l-0.063,0.021l-0.069,0.021l-0.069,0.023l-0.063,0.021l-0.046,0.018l-0.066,0.031l-0.139,0.061v-0.002l-0.121,0.057
			l-0.124,0.064v0.006l-0.139,0.076v-0.004l-0.109,0.068l-0.135,0.09l-0.132,0.092l-0.129,0.094l-0.114,0.086v0.002l-0.123,0.105
			l-0.129,0.113l-0.132,0.121l-0.111,0.111l-0.124,0.123l-0.119,0.131l-0.126,0.143v-0.002l-0.119,0.141l-0.115,0.143l-0.115,0.146
			l-0.114,0.146h0.003l-0.111,0.164l-0.114,0.164l-0.115,0.174l-0.108,0.176l-0.104,0.174l-0.109,0.191l-0.102,0.182l-0.093,0.172
			l0,0l-0.187,0.379L31.5,83.729h-0.003l-0.174,0.416l0,0l-0.161,0.414L31.02,84.98l-0.144,0.455l-0.129,0.457l-0.112,0.463
			l-0.104,0.477l-0.092,0.477l-0.078,0.475l-0.059,0.469l-0.049,0.488l-0.038,0.467l-0.022,0.453l-0.011,0.455l0.002,0.441
			L30.2,91.02l0.032,0.477l0.043,0.459l0.059,0.449l0.061,0.416h0.004l0.083,0.432l0.049,0.211l0,0l0.046,0.201l0.054,0.215
			l0.059,0.203l0.059,0.195l0.063,0.191l0.063,0.191l0.064,0.18h0.005l0.067,0.184l0.071,0.168l0.075,0.172l0.085,0.178l0.072,0.148
			l0.089,0.17l0.083,0.15l0.086,0.146l0.083,0.139l0.098,0.148l0.091,0.131l0,0l0.098,0.133l0.1,0.129l0.09,0.105l0.1,0.115
			l0.114,0.119l0.09,0.094l0.108,0.096l0.115,0.102v0.004l0.039,0.031V97.5l0.063,0.047l0.059,0.047l0.005,0.004l0.04,0.033
			l0.052,0.035l0.063,0.041v0.004l0.057,0.039l0.046,0.023l0.063,0.041l0.006,0.004l0.063,0.039l0.046,0.023l0.052,0.029h0.007
			l0.062,0.033l0.053,0.027l0.046,0.02l0.01,0.002l0.063,0.027v0.004l0.041,0.018l0.048,0.018l0.021,0.004l0.046,0.018l0.071,0.025
			l0.003,0.002l0.054,0.016l0.055,0.016l0.069,0.016l0.057,0.014l0.052,0.014l0.052,0.012l0.061,0.008h0.003l0.057,0.01l0.034,0.004
			l0.057,0.006l0,0l0.047,0.006l0.057,0.002l0.104,0.006l0.074,0.004l0.084-0.004l0.078-0.002l0.063-0.004l0.084-0.008l0.08-0.006
			v0.004l0.051-0.008l0.068-0.012l0.069-0.012l0.072-0.016l0.065-0.012l0.046-0.01l0.068-0.018l0.063-0.02l0,0l0.062-0.02
			l0.068-0.021l0.077-0.025l0.068-0.027v-0.002l0.08-0.027l0.063-0.027l0,0L36,97.926l0.075-0.033l0.068-0.035l0.083-0.043
			l0.396,0.773l-0.08,0.041l-0.083,0.045l-0.015,0.008l-0.082,0.037l-0.007,0.004l-0.08,0.037h-0.009l-0.082,0.037l-0.015,0.006
			l-0.082,0.029h-0.004L36,98.865l-0.012,0.006L35.906,98.9h-0.003l-0.068,0.021l-0.017,0.002l-0.069,0.021v0.004l-0.069,0.02
			l-0.011,0.002l-0.074,0.02h-0.006l-0.074,0.02l-0.021,0.006l-0.076,0.014l-0.069,0.014l-0.011,0.004l-0.077,0.01l0,0l-0.078,0.012
			l-0.011,0.002l-0.08,0.01l-0.018,0.004l-0.08,0.008L34.907,99.1H34.89l-0.082,0.004h-0.009l-0.086,0.002h-0.007h-0.091h-0.011
			h-0.099h-0.011L34.386,99.1h-0.005l-0.062-0.002l-0.014-0.002l-0.051-0.008v0.004l-0.058-0.008l-0.028-0.004l-0.058-0.01H34.1
			l-0.063-0.01l-0.061-0.01h-0.003l-0.062-0.012l-0.029-0.004l-0.066-0.018l-0.009-0.002l-0.071-0.02h-0.002l-0.063-0.016
			l-0.007-0.004l-0.068-0.018l-0.021-0.008l-0.066-0.023v0.002l-0.072-0.021l-0.02-0.008l-0.058-0.021l-0.057-0.02l-0.038-0.016
			L33.2,98.82l-0.01-0.004l-0.069-0.035l0,0l-0.053-0.021l-0.021-0.01l-0.063-0.031l-0.012-0.002l-0.063-0.035l-0.056-0.031
			l-0.018-0.008l-0.06-0.035L32.757,98.6L32.7,98.566l-0.066-0.039l-0.002-0.006l-0.063-0.035l-0.02-0.014l-0.059-0.037
			l-0.062-0.043l-0.012-0.01l-0.06-0.043l-0.016-0.014l-0.057-0.045l-0.058-0.041l-0.004-0.002l-0.061-0.049l-0.011-0.008
			l-0.057-0.049l-0.011-0.01l-0.121-0.104l-0.003-0.006l-0.117-0.104l-0.019-0.02l-0.112-0.113l-0.006-0.006l-0.112-0.119
			l-0.009-0.014l-0.107-0.121l-0.013-0.012l-0.103-0.129l-0.012-0.012l-0.103-0.131l-0.007-0.008l-0.102-0.143l-0.007-0.006
			l-0.103-0.143l-0.008-0.014l-0.099-0.146l-0.008-0.012l-0.093-0.154v-0.006l-0.097-0.16l-0.005-0.01l-0.093-0.166l-0.005-0.008
			l-0.087-0.17l-0.005-0.008l-0.08-0.166l-0.005-0.008l-0.085-0.182l-0.003-0.01l-0.08-0.18v-0.008l-0.08-0.184l-0.005-0.012
			l-0.068-0.184v-0.004l-0.072-0.197l-0.003-0.012l-0.068-0.195v-0.006l-0.068-0.199v-0.01l-0.061-0.199l-0.003-0.008l-0.058-0.217
			L29.791,94.1l-0.054-0.215l-0.006-0.01l-0.052-0.217l-0.003-0.01l-0.048-0.215v-0.008l-0.087-0.438v-0.018l-0.068-0.441
			l-0.002-0.014l-0.062-0.467v-0.012l-0.046-0.477l-0.002-0.014l-0.029-0.475v-0.008l-0.02-0.475v-0.016l-0.002-0.465v-0.014
			l0.01-0.467v-0.014l0.024-0.467v-0.012l0.037-0.463v-0.01l0.051-0.498l0.003-0.012l0.066-0.49v-0.016l0.08-0.486v-0.014
			l0.091-0.488l0.003-0.014l0.105-0.475l0.003-0.014l0.118-0.477l0.005-0.01l0.132-0.467l0.003-0.014l0.147-0.467l0.005-0.012
			l0.148-0.441l0.007-0.014l0.165-0.436l0.005-0.012l0.182-0.43l0.003-0.016l0.191-0.424l0.009-0.014l0.194-0.389l0.006-0.012
			l0.1-0.189l0.004-0.006l0.103-0.188l0.006-0.008l0.108-0.191v-0.002l0.108-0.186l0.006-0.008l0.117-0.188l0.008-0.008l0.116-0.182
			l0.006-0.01l0.118-0.168l0.114-0.164l0.014-0.016l0.119-0.16l0.003-0.002l0.127-0.16l0.003-0.006l0.12-0.148l0.005-0.01
			l0.126-0.146l0.007-0.008l0.125-0.143l0.012-0.01l0.13-0.137l0.005-0.006l0.128-0.135l0.007-0.002l0.127-0.129l0.017-0.014
			l0.131-0.121l0,0l0.137-0.123l0.012-0.012l0.132-0.107l0.012-0.004l0.132-0.107l0.012-0.008l0.138-0.104l0.011-0.006l0.138-0.096
			l0.006-0.006l0.138-0.09l0.015-0.008l0.139-0.082l0.013-0.008l0.137-0.078l0.011-0.008l0.144-0.076l0.018-0.008l0.138-0.066
			l0.012-0.008l0.139-0.059l0.07-0.029l0.025-0.008l0.072-0.025l0.071-0.031l0.006-0.002l0.074-0.021l0.006-0.002l0.068-0.023
			l0.006-0.002l0.069-0.021l0.013-0.004l0.07-0.02l0.071-0.016l0.022-0.008l0.068-0.018l0.059-0.016l0.021-0.004l0.075-0.014
			l0.005-0.004l0.068-0.01h0.015l0.072-0.014l0.065-0.006l0.015-0.004l0.071-0.012h0.009l0.071-0.006h0.01l0.07-0.006h0.012
			l0.069-0.006h0.011l0.071-0.002h0.012h0.068h0.092h0.018l0.089,0.006h0.013l0.093,0.008h0.006l0.091,0.01l0.018,0.004l0.089,0.01
			l0.085,0.012l0.021,0.006l0.086,0.014l0.02,0.002l0.087,0.018h0.002l0.091,0.023l0.013,0.008l0.089,0.018l0.022,0.008l0.089,0.031
			l0,0l0.085,0.025l0.006,0.004l0.087,0.029l0.017,0.004l0.085,0.035l0.019,0.006l0.082,0.035l0.004,0.002l0.083,0.039l0.011,0.006
			l0.087,0.043h0.008l0.086,0.043l0.005,0.004l0.087,0.047l0.02,0.012l0.08,0.051l0.077,0.045l0.015,0.01l0.08,0.053l0.017,0.01
			l0.077,0.055l0.003,0.004l0.077,0.057l0.004,0.004l0.084,0.059l0.01,0.012l0.08,0.063l0.009,0.008l0.078,0.063l0.006,0.004
			l0.075,0.068l0.008,0.006l0.072,0.066l0.01,0.006l0.075,0.072l0.009,0.008l0.071,0.068l0.003,0.006l0.072,0.074l0.01,0.016
			l0.075,0.078l0.072,0.082l0.005,0.01l0.071,0.082l0.009,0.012l0.068,0.082l0.009,0.01l0.066,0.084l0.003,0.002l0.068,0.092
			l0.006,0.008l0.125,0.174l0.01,0.014l0.123,0.18l0.011,0.021l0.115,0.186v0.002l0.114,0.191L40.375,81l0.104,0.193l0.008,0.012
			l0.114,0.23l0.01,0.012l0.103,0.229l0.006,0.008l0.101,0.229l0.002,0.016l0.096,0.232l0.002,0.012l0.092,0.25l0.005,0.012
			l0.086,0.252v0.004l0.084,0.25l0.003,0.016l0.074,0.248L40.421,83.441L40.421,83.441z M39.287,80.895h-0.003H39.287L39.287,80.895
			z M39.293,80.906l-0.006-0.012L39.293,80.906L39.293,80.906z M39.041,80.568l-0.003-0.002L39.041,80.568L39.041,80.568z
			 M39.046,80.574l-0.005-0.006L39.046,80.574L39.046,80.574z M37.215,79.264h-0.006H37.215L37.215,79.264z M36.075,79.182
			L36.075,79.182L36.075,79.182L36.075,79.182z M32.509,81.857l-0.003,0.002L32.509,81.857L32.509,81.857z M32.515,81.852
			l-0.006,0.006L32.515,81.852L32.515,81.852z M31.162,84.559l-0.003,0.01L31.162,84.559L31.162,84.559z M31.165,84.557
			l-0.003,0.002L31.165,84.557L31.165,84.557z M30.36,87.783v0.002V87.783L30.36,87.783z M30.363,87.775l-0.003,0.008L30.363,87.775
			L30.363,87.775z M30.481,93.252l0.002,0.006L30.481,93.252L30.481,93.252z M30.481,93.248v0.004V93.248L30.481,93.248z
			 M32.863,97.627v0.004V97.627L32.863,97.627z M35.05,98.211l0.009-0.004L35.05,98.211L35.05,98.211z M35.044,98.211h0.006H35.044
			L35.044,98.211z M35.188,98.188h0.009H35.188L35.188,98.188z M35.185,98.188h0.003H35.185L35.185,98.188z M35.325,98.16
			l0.006-0.002L35.325,98.16L35.325,98.16z M35.439,98.133l0.006-0.002L35.439,98.133L35.439,98.133z M35.435,98.133h0.005H35.435z"
			/>
	</g>
	<g>
		<path fill="#838692" d="M74.999,44.076c-2.121,0-4.073,0.163-6.151,0.415l-1.391,0.211l0,0l-1.397,0.264l-1.415,0.315
			l-1.185,0.294l0,0l-1.14,0.307l-1.057,0.312l-1.032,0.33l-1.003,0.344l0,0l-1.9,0.729l-0.942,0.401l-1.18,0.536l0,0l-1.142,0.552
			l-2.306,1.24v-0.003l-1.135,0.669l-1.104,0.692h0.003l-1.108,0.734l-1.104,0.779v-0.003l-1.063,0.793l-1.062,0.833l-1.06,0.876
			v-0.003l-1.014,0.888l-1.016,0.938l-0.979,0.948l-0.955,0.979l-0.94,1.01l0.003,0.003l-0.927,1.05l-0.878,1.051l-0.879,1.099
			l-0.828,1.1l0.002,0.003l-0.824,1.145l0,0l-0.772,1.14l-0.762,1.191l-0.727,1.19l-0.693,1.198l0.006,0.002l-0.673,1.24h-0.003
			l-0.636,1.237l-0.598,1.239h0.003l-0.582,1.276H29.45l-0.532,1.264l-0.513,1.279l-0.483,1.309l-0.447,1.291l-0.41,1.295
			l-0.384,1.305l0,0l-0.362,1.322l0,0l-0.319,1.293L25.7,87.301l0,0l-0.261,1.295h0.003l-0.233,1.318h-0.003l-0.201,1.283h0.003
			l-0.181,1.307l-0.146,1.289l0,0l-0.114,1.273l0,0l-0.092,1.287l-0.063,1.264l-0.037,1.254l-0.014,1.24h0.003v1.498h50.635h50.637
			v-1.498h0.003l-0.012-1.24l-0.04-1.254l-0.063-1.264l-0.091-1.287l0,0l-0.114-1.273l0,0l-0.146-1.289l-0.181-1.307h0.006
			l-0.203-1.283h-0.003l-0.234-1.318h0.003l-0.261-1.299h-0.003l-0.29-1.307l-0.325-1.307l0,0l-0.361-1.322l0,0l-0.383-1.305
			l-0.413-1.295l-0.445-1.291l-0.484-1.309l-0.513-1.279l-0.532-1.264h-0.004l-0.58-1.276h0.002l-0.598-1.239l-0.636-1.237h-0.002
			l-0.674-1.24l0.007-0.002l-0.693-1.198l-0.727-1.19l-0.763-1.191l-0.773-1.14l0,0l-0.823-1.145l0.003-0.003l-0.828-1.1
			l-0.879-1.099l-0.878-1.051l-0.928-1.05l0.003-0.003l-0.939-1.01l-0.953-0.979l-0.981-0.948l-1.018-0.938l-1.013-0.888v0.003
			l-1.059-0.876l-1.063-0.833l-1.063-0.793v0.003l-1.105-0.779l-1.107-0.734h0.003l-1.105-0.692l-1.136-0.669v0.003l-1.143-0.636
			l-1.161-0.604l-1.144-0.552l0,0l-1.182-0.536v-0.003l-0.925-0.39l-0.957-0.383l-0.933-0.35l-0.965-0.337l-0.962-0.309v0.002
			l-0.985-0.293l-1.015-0.275v-0.003l-1.022-0.26l-1.703-0.38l-1.563-0.302l-0.704-0.116l0,0l-0.715-0.104
			C79.079,44.238,77.127,44.076,74.999,44.076L74.999,44.076z M74.999,42.745c2.176,0,4.199,0.171,6.336,0.429h0.018l0.714,0.105
			l0.016,0.004l0.732,0.122l0.015,0.003l1.564,0.301l0.019,0.006l1.74,0.389l0.015,0.003l1.036,0.264h0.015l1.016,0.277l0.018,0.006
			l0.996,0.299l0.014,0.004l0.983,0.316l0.018,0.006l0.972,0.337l0.013,0.006l0.961,0.361l0.017,0.002l0.954,0.384l0.009,0.006
			l0.954,0.404l0.014,0.003l1.186,0.538l0.013,0.008l1.172,0.57l0.018,0.005l1.168,0.607l0.021,0.008l1.153,0.645l0.015,0.009
			l1.147,0.676l0.014,0.011l1.137,0.71l0.015,0.009l1.119,0.742l0.018,0.008l1.107,0.779l0.013,0.011l1.09,0.811l0.018,0.011
			l1.076,0.845l0.014,0.011l1.057,0.874l0.012,0.011l1.042,0.91l0.011,0.009l1.014,0.939l0.018,0.014l0.996,0.968l0.011,0.011
			l0.974,0.997l0.013,0.011l0.952,1.025l0.015,0.011l0.922,1.053l0.011,0.012l0.902,1.075l0.011,0.012l0.88,1.103l0.009,0.017
			l0.85,1.125l0.008,0.012l0.822,1.145l0.006,0.017l0.794,1.168l0.008,0.014l0.764,1.188l0.009,0.015l0.733,1.205l0.009,0.014
			l0.706,1.226l0.009,0.014l0.673,1.24l0.007,0.014l0.641,1.251l0.009,0.015l0.609,1.271l0.012,0.014l0.578,1.278l0.005,0.017
			l0.548,1.29l0.006,0.008l0.518,1.297l0.006,0.021l0.486,1.307v0.01l0.455,1.311l0.006,0.018l0.422,1.316l0.002,0.012l0.392,1.32
			l0.004,0.01l0.359,1.326l0.003,0.016l0.327,1.32v0.016l0.298,1.324v0.014l0.269,1.322l0.006,0.012l0.234,1.318v0.016l0.207,1.313
			v0.012l0.177,1.309l0.003,0.018l0.146,1.303v0.014l0.121,1.297l0.004,0.014l0.091,1.287v0.018l0.066,1.279v0.016l0.037,1.266
			v0.012l0.011,1.258l0.003,0.006v1.619c0,0.16-0.031,0.314-0.092,0.459c-0.073,0.186-0.107,0.24-0.263,0.393
			c-0.111,0.113-0.25,0.207-0.404,0.266l0,0c-0.146,0.061-0.298,0.088-0.446,0.088H74.999H24.237c-0.148,0-0.301-0.027-0.446-0.088
			l0,0c-0.153-0.059-0.295-0.152-0.403-0.266c-0.229-0.225-0.354-0.535-0.354-0.852v-1.619l0.002-0.006l0.012-1.258v-0.012
			l0.037-1.266v-0.016l0.063-1.279v-0.018l0.094-1.287l0.003-0.014l0.12-1.297v-0.014l0.146-1.303l0.002-0.018l0.178-1.309v-0.012
			l0.206-1.313v-0.016l0.236-1.318l0.005-0.012l0.267-1.322l0.003-0.014l0.297-1.324v-0.016l0.327-1.32l0.002-0.016l0.361-1.326
			L25.396,83l0.393-1.32l0.003-0.012l0.42-1.316l0.007-0.018l0.455-1.311l0.002-0.01l0.485-1.307l0.005-0.021l0.519-1.297
			l0.006-0.008l0.546-1.29l0.007-0.017l0.578-1.278l0.011-0.014l0.61-1.271l0.008-0.015l0.642-1.251l0.006-0.014l0.673-1.24
			l0.012-0.014l0.704-1.226l0.009-0.014l0.732-1.205l0.009-0.015l0.765-1.188l0.008-0.014l0.794-1.168l0.005-0.017l0.822-1.145
			l0.009-0.012l0.85-1.125l0.009-0.017l0.879-1.103l0.012-0.012l0.901-1.075l0.012-0.012l0.922-1.053l0.017-0.011l0.95-1.025
			l0.013-0.011l0.973-0.997l0.011-0.011l0.997-0.968L41.2,56.54l1.014-0.939l0.01-0.009l1.042-0.91l0.013-0.011l1.056-0.874
			l0.015-0.011l1.076-0.845l0.017-0.011l1.091-0.811l0.012-0.011l1.108-0.779l0.017-0.008l1.119-0.742l0.015-0.009l1.137-0.71
			l0.015-0.011l1.147-0.676l0.015-0.009c0.79-0.438,1.54-0.845,2.341-1.26l0.017-0.005l1.171-0.57l0.016-0.008l1.185-0.538
			l0.012-0.003l0.95-0.407l0.017-0.005l0.963-0.382l0.012-0.005l0.985-0.367l0.01-0.005l1.015-0.347l0.014-0.006l1.04-0.332
			l0.017-0.003l1.082-0.321l0.018-0.005l1.14-0.307h0.011l1.2-0.298l0.015-0.006l1.453-0.324l0.021-0.006l1.417-0.266l0.022-0.003
			l1.394-0.214l0.021-0.003l1.39-0.167l0.016-0.002C71.72,42.83,73.364,42.745,74.999,42.745L74.999,42.745z M97.097,49.689
			l-0.015-0.009L97.097,49.689L97.097,49.689z M97.103,49.692l-0.006-0.003L97.103,49.692L97.103,49.692z M89.831,46.535h-0.005
			H89.831L89.831,46.535z M89.837,46.538l-0.006-0.003L89.837,46.538z"/>
	</g>
	<g>
		<path fill="#838692" d="M108.74,83.203l0.071-0.248l0.002-0.016l0.084-0.25v-0.004l0.086-0.252l0.006-0.012l0.091-0.25
			l0.003-0.012l0.095-0.232l0.003-0.016l0.1-0.229l0.007-0.008l0.102-0.229l0.013-0.012l0.111-0.23l0.01-0.012L109.624,81
			l0.006-0.01l0.108-0.189l0.007-0.008l0.117-0.189l0.008-0.016l0.123-0.18l0.008-0.014l0.127-0.174l0.007-0.002l0.065-0.092
			l0.008-0.014l0.07-0.082l0.002-0.006l0.067-0.082l0.01-0.012l0.071-0.082l0.006-0.01l0.074-0.082l0.072-0.078l0.011-0.016
			l0.072-0.074l0.003-0.006l0.071-0.068l0.009-0.008l0.074-0.072l0.011-0.006l0.072-0.066l0.008-0.006l0.075-0.068l0.005-0.004
			l0.077-0.063l0.013-0.008l0.077-0.063l0.011-0.012l0.084-0.059l0.002-0.004l0.078-0.057l0.002-0.004l0.078-0.055l0.018-0.01
			l0.08-0.053l0.008-0.006l0.08-0.049l0.006-0.002l0.081-0.049l0.017-0.012l0.085-0.047l0.006-0.004l0.087-0.043h0.008l0.086-0.043
			l0.011-0.006l0.084-0.039l0.003-0.002l0.083-0.035l0.017-0.006l0.086-0.035l0.017-0.004l0.087-0.029l0.005-0.004l0.087-0.025l0,0
			l0.089-0.031l0.022-0.008l0.089-0.018l0.012-0.008l0.091-0.023h0.003l0.089-0.018l0.018-0.002l0.085-0.014l0.021-0.006
			l0.087-0.012l0.088-0.01l0.018-0.004l0.091-0.01h0.007l0.09-0.008h0.016l0.089-0.006h0.017h0.092h0.071h0.009l0.071,0.002h0.012
			l0.068,0.006h0.012l0.071,0.006h0.009l0.071,0.006h0.013l0.067,0.012l0.013,0.004l0.067,0.006l0.072,0.014h0.015l0.068,0.01
			l0.006,0.004l0.074,0.014l0.022,0.004l0.058,0.016l0.069,0.018l0.022,0.008l0.071,0.016l0.068,0.02l0.015,0.004l0.069,0.021
			l0.005,0.002l0.069,0.025l0.074,0.021l0.012,0.002l0.074,0.031l0.069,0.025l0.025,0.008l0.072,0.029l0.136,0.059l0.012,0.008
			l0.139,0.066l0.018,0.008l0.143,0.076l0.011,0.008l0.138,0.078l0.01,0.008l0.142,0.082l0.015,0.008l0.138,0.09l0.005,0.006
			l0.138,0.096l0.011,0.006l0.139,0.104l0.011,0.008l0.133,0.107l0.011,0.004l0.131,0.107l0.013,0.012l0.137,0.123l0,0l0.132,0.121
			l0.017,0.014l0.126,0.129l0.007,0.002l0.129,0.135l0.005,0.006l0.129,0.137l0.012,0.01l0.126,0.143l0.005,0.008l0.127,0.146
			l0.006,0.01l0.12,0.148l0.003,0.006l0.125,0.16l0.003,0.004l0.121,0.16l0.011,0.014l0.114,0.162l0.003,0.002l0.118,0.168
			l0.005,0.01l0.117,0.182l0.006,0.008l0.117,0.188l0.008,0.008l0.106,0.186v0.002l0.109,0.191l0.005,0.008l0.104,0.188l0.005,0.006
			l0.101,0.189l0.006,0.014l0.192,0.391l0.005,0.01l0.194,0.424l0.004,0.016l0.18,0.43l0.006,0.012l0.166,0.438l0.006,0.012
			l0.149,0.438l0.005,0.016l0.147,0.467l0.002,0.014l0.134,0.467l0.004,0.01l0.118,0.477l0.002,0.014l0.104,0.475l0.005,0.014
			l0.091,0.488v0.012l0.08,0.488v0.016l0.069,0.49v0.012l0.051,0.498v0.01l0.037,0.463v0.012l0.023,0.467v0.014l0.008,0.471v0.006
			v0.469v0.016l-0.02,0.475v0.008l-0.028,0.475l-0.003,0.014l-0.047,0.477v0.012l-0.06,0.467l-0.003,0.014l-0.068,0.441v0.018
			l-0.086,0.438v0.008l-0.05,0.215l-0.002,0.01l-0.052,0.217l-0.002,0.01l-0.059,0.215l-0.002,0.004l-0.057,0.217l-0.004,0.008
			l-0.06,0.199v0.01l-0.069,0.199v0.006l-0.067,0.195v0.012l-0.075,0.197v0.004l-0.068,0.184l-0.006,0.012l-0.08,0.184v0.008
			l-0.081,0.18l-0.002,0.01l-0.084,0.182l-0.005,0.008l-0.08,0.166l-0.006,0.008l-0.086,0.17l-0.006,0.008l-0.092,0.166l-0.005,0.01
			l-0.096,0.16l-0.002,0.006l-0.092,0.154l-0.008,0.012l-0.099,0.146l-0.008,0.014l-0.104,0.143l-0.005,0.006l-0.103,0.143
			l-0.007,0.008l-0.103,0.131l-0.012,0.012l-0.103,0.129l-0.012,0.012l-0.109,0.121l-0.008,0.014l-0.111,0.119l-0.006,0.006
			l-0.108,0.113l-0.024,0.02l-0.116,0.104l-0.003,0.006l-0.121,0.104l-0.01,0.01l-0.059,0.049l-0.009,0.008l-0.063,0.049
			l-0.002,0.002l-0.06,0.047l-0.061,0.041l-0.006,0.008l-0.06,0.043l-0.015,0.014l-0.063,0.043l-0.058,0.037l-0.021,0.014
			l-0.063,0.035l-0.003,0.006l-0.065,0.039l-0.058,0.033l-0.018,0.008l-0.061,0.035l-0.017,0.008l-0.057,0.031l-0.063,0.035
			l-0.011,0.002l-0.063,0.031l-0.023,0.01l-0.051,0.021l0,0l-0.069,0.035l-0.011,0.004l-0.063,0.023l-0.038,0.016l-0.059,0.02
			l-0.056,0.021l-0.019,0.008l-0.069,0.021l-0.074,0.025l-0.018,0.004l-0.071,0.018l-0.069,0.02l-0.015,0.006l-0.074,0.02
			l-0.011,0.002l-0.072,0.014h-0.003l-0.071,0.014l-0.072,0.014l-0.02,0.004l-0.07,0.012h-0.021l-0.071,0.008l-0.066,0.01
			l-0.065,0.006l-0.017,0.002l-0.063,0.004h-0.012l-0.059,0.002h-0.01h-0.059h-0.085h-0.017l-0.088-0.006h-0.069h-0.024
			l-0.074-0.006l-0.009-0.002l-0.073-0.006h-0.007l-0.068-0.01l-0.022-0.002l-0.075-0.01l-0.012-0.002l-0.068-0.012l-0.068-0.01
			l-0.012-0.004l-0.068-0.014l-0.068-0.014l-0.034-0.008l-0.063-0.02v0.002l-0.069-0.02l-0.017-0.002l-0.068-0.02v-0.004
			l-0.069-0.021l-0.015-0.002l-0.071-0.021l0,0l-0.082-0.029l-0.021-0.006l-0.08-0.033l-0.08-0.029l-0.018-0.006l-0.083-0.037
			h-0.008l-0.08-0.037l-0.006-0.004l-0.083-0.037l-0.015-0.008l-0.083-0.045l-0.08-0.041l0.396-0.773l0.084,0.043l0.067,0.035
			l0.074,0.033l0.08,0.037l0,0l0.063,0.027l0.08,0.027l0.083,0.035l0,0l0.061,0.02l0,0l0.071,0.021l0.06,0.02l0,0l0.053,0.014
			l0.071,0.02l0.009,0.004l0.04,0.008l0.071,0.014l0,0l0.072,0.016l0.056,0.012l0.072,0.012l0.061,0.008l0.045,0.004l0.07,0.006l0,0
			l0.073,0.006l0.061,0.004h0.008l0.069,0.002v-0.002h0.085h0.059v0.002l0.031-0.002l0.054-0.004l0.055-0.006l0.066-0.008h0.002
			l0.05-0.002l0.059-0.012l0.061-0.008l0.075-0.018l0.063-0.014l0.063-0.014l0,0l0.057-0.014l0.049-0.014l0.069-0.021l0.071-0.025
			l0.046-0.018l0.019-0.004l0.05-0.018l0.04-0.018V98.02l0.063-0.027l0.012-0.002l0.046-0.02l0.051-0.027l0.063-0.033h0.006
			l0.052-0.029l0.046-0.023l0.063-0.039l0.006-0.004l0.065-0.041l0.043-0.023l0.058-0.039v-0.004l0.063-0.041l0.004,0.004
			l0.043-0.035l0.051-0.041l0.057-0.047l0.063-0.047v0.002l0.04-0.031v-0.004l0.115-0.102l0.108-0.096l0.089-0.094l0.114-0.119
			l0.101-0.115l0.091-0.105l0.098-0.129l0.097-0.133l0,0l0.093-0.131l0.097-0.148l0.086-0.139l0.084-0.146l0.085-0.15l0.088-0.17
			l0.07-0.148l0.086-0.178l0.075-0.172l0.07-0.168l0.068-0.184h0.003l0.066-0.18l0.063-0.191l0.063-0.191l0.06-0.195l0.058-0.203
			l0.054-0.215l0.046-0.201l0,0l0.049-0.211l0.083-0.432h0.004l0.063-0.416l0.058-0.449l0.043-0.459l0.031-0.477l0.017-0.463v-0.445
			l-0.009-0.451l-0.022-0.453l-0.034-0.467l-0.051-0.488l-0.062-0.467l-0.08-0.488l-0.089-0.465l-0.105-0.477l-0.111-0.463
			l-0.129-0.457l-0.141-0.449l-0.146-0.42l-0.16-0.422l-0.175-0.416l-0.194-0.424l-0.187-0.379l-0.092-0.172l-0.104-0.182
			l-0.108-0.191l-0.103-0.174l-0.109-0.176l-0.111-0.174l-0.117-0.164l-0.111-0.162l0.002-0.002l-0.108-0.143l-0.12-0.15
			l-0.115-0.143l-0.12-0.141v0.002l-0.125-0.143l-0.12-0.131l-0.124-0.123l-0.111-0.111l-0.132-0.121l-0.128-0.113l-0.124-0.105
			v-0.002l-0.114-0.086l-0.129-0.094l-0.132-0.092l-0.135-0.09l-0.109-0.068v0.004l-0.14-0.076v-0.006l-0.123-0.064l-0.12-0.057
			v0.002l-0.141-0.061l-0.064-0.031l-0.047-0.018l-0.075-0.025l-0.06-0.02l-0.057-0.02l-0.072-0.023l-0.054-0.014l-0.049-0.016
			v0.004l-0.068-0.018l-0.018-0.002l-0.066-0.014l-0.044-0.012l-0.07-0.014l-0.061-0.008l-0.059-0.008l-0.069-0.008l0,0l-0.05-0.008
			l-0.07-0.004l-0.061-0.004l-0.049-0.002v0.002h-0.071h-0.092v-0.002l-0.058,0.006l-0.088,0.004l0,0l-0.063,0.008l-0.089,0.01l0,0
			l-0.089,0.012l-0.051,0.008v0.004l-0.089,0.02v-0.002l-0.086,0.02l-0.069,0.02l-0.068,0.02l-0.085,0.029l0,0l-0.063,0.021
			l-0.068,0.025v0.004l-0.084,0.035l-0.076,0.035l-0.07,0.035v0.002l-0.082,0.041l-0.077,0.043l-0.061,0.033l-0.08,0.049
			l-0.057,0.039l-0.077,0.051l-0.074,0.057l-0.08,0.057l-0.053,0.045l-0.08,0.066l-0.063,0.059l-0.067,0.061l-0.066,0.066
			l-0.071,0.066l-0.069,0.068l-0.063,0.068v0.004l-0.071,0.08h-0.003l-0.063,0.074l-0.058,0.07l-0.067,0.09l-0.059,0.07
			l-0.117,0.166l-0.12,0.18l-0.101,0.162l-0.109,0.191l-0.102,0.182l-0.098,0.203l-0.104,0.219l-0.102,0.232l0,0l-0.089,0.221
			l-0.084,0.225l-0.085,0.246l-0.075,0.238l-0.068,0.248L108.74,83.203L108.74,83.203z M110.718,80.895h-0.003l-0.009,0.012
			L110.718,80.895L110.718,80.895z M112.79,79.264h-0.006H112.79L112.79,79.264z M117.496,81.859l-0.002-0.002l-0.009-0.006
			L117.496,81.859L117.496,81.859z M119.515,93.258l0.003-0.006v-0.004L119.515,93.258L119.515,93.258z M115.986,98.168l0.002-0.002
			L115.986,98.168z"/>
	</g>
	<g>
		<path fill="#838692" d="M36.088,77.807h-0.08v-0.002l-0.054,0.002l-0.08,0.006l-0.08,0.006l-0.063,0.006l-0.079,0.008L35.6,77.84
			l-0.08,0.014h-0.002l-0.083,0.014l-0.063,0.014l-0.074,0.018l-0.086,0.02l-0.061,0.02h-0.003l-0.08,0.02l-0.072,0.021l-0.06,0.016
			l-0.084,0.033l-0.07,0.023l-0.08,0.035v-0.002l-0.075,0.029l-0.151,0.066l-0.143,0.068l-0.17,0.086l-0.148,0.08l-0.157,0.096
			l-0.138,0.088V78.6l-0.157,0.104l-0.165,0.117l0,0l-0.15,0.115l-0.14,0.107l-0.164,0.139l-0.148,0.129v0.002l-0.154,0.148
			l-0.143,0.135l-0.155,0.156l-0.148,0.16l-0.14,0.158l-0.152,0.17v-0.002l-0.144,0.174l-0.14,0.172l-0.146,0.191l-0.132,0.178
			l-0.144,0.203l0,0l-0.144,0.213l-0.266,0.408l-0.249,0.416l-0.246,0.445l-0.243,0.463l-0.226,0.477l0,0l-0.219,0.492l0,0
			l-0.194,0.486l-0.203,0.523l-0.175,0.508l-0.163,0.523l-0.153,0.541h-0.004L28.58,87.18l-0.126,0.543h0.003l-0.112,0.561
			l-0.09,0.533l-0.08,0.541l-0.063,0.541l-0.046,0.557l-0.034,0.549l-0.015,0.516l-0.002,0.518l0.017,0.518l0.034,0.533l0.046,0.479
			l0.061,0.475l0.037,0.234l0.039,0.234l0.046,0.234l0.051,0.246l0.053,0.221l0.052,0.219l0.057,0.201l0.063,0.215l0.067,0.203
			l0.071,0.205l0.068,0.189l0.077,0.188l0.077,0.188h0.003l0.083,0.189l0.086,0.172l0.088,0.178l0.09,0.156l0.083,0.145l0.106,0.162
			l0,0l0.1,0.15l0.103,0.148l0.101,0.133l0.1,0.121l0.112,0.127l0.114,0.121l0.055,0.055l0.057,0.055l0.05,0.045l0.012,0.006
			l0.051,0.055l0.063,0.055v0.004l0.051,0.041l0.057,0.045l0.063,0.049l0.059,0.041l0.057,0.041l0.069,0.045l0.068,0.047
			l0.055,0.037l0.063,0.037l0.056,0.031l0.063,0.035l0.068,0.033l0.051,0.025l0,0l0.075,0.033l0.065,0.027l0.061,0.027l0.068,0.025
			l0.074,0.025v0.002l0.042,0.016v-0.004l0.079,0.025l0,0l0.055,0.016l0,0l0.076,0.016l0.067,0.02l0.073,0.016l0.06,0.012
			l0.046,0.01l0.081,0.008l0.017,0.002l0.063,0.012l0.051,0.002l0.08,0.006h0.006l0.077,0.008h0.05l0,0h0.077h0.08l0,0h0.054
			l0.08-0.008l0.08-0.006l0,0l0.043-0.002l0.081-0.012l0.019-0.002l0.059-0.006l0.075-0.014l0,0l0.073-0.012l0.074-0.014l0.065-0.02
			l0.083-0.02l0.08-0.02v0.004l0.063-0.021l0.075-0.023v0.002l0.082-0.027l0.062-0.02l0.082-0.029v-0.004l0.077-0.027l0.069-0.027
			l0.16-0.072v0.004l0.138-0.066l0.168-0.088l0.146-0.076l0.16-0.098l0.144-0.092l0.154-0.102l0.165-0.121v0.004l0.149-0.111
			l0.144-0.119l0.154-0.127v-0.006l0.16-0.139l0.146-0.137l0.144-0.139l0.159-0.162l0.003,0.002l0.139-0.148l0.151-0.168l0.14-0.156
			l0.151-0.189l0.146-0.178l0,0l0.132-0.172l0,0l0.137-0.191l0.144-0.197l0.144-0.211l0.258-0.398l0.264-0.443l0.234-0.42
			l0.251-0.48l0.224-0.467l0,0l0.219-0.496l0.199-0.49l0.194-0.518l0.178-0.506l0,0l0.166-0.537l0.151-0.529l0.136-0.529
			l0.122-0.543l0.112-0.541l0.091-0.559l0.078-0.531l0.063-0.545l0.048-0.553l0.034-0.551l0.013-0.518l0.003-0.512l-0.016-0.518
			l-0.034-0.533l-0.046-0.48l-0.06-0.477l-0.034-0.232h-0.003l-0.04-0.244L40.3,82.756l-0.051-0.24L40.2,82.309l-0.055-0.227
			l-0.06-0.205l-0.065-0.223l-0.063-0.197l-0.068-0.207l-0.069-0.184l-0.074-0.191l-0.079-0.182h-0.003l-0.087-0.191h0.002
			l-0.08-0.164l-0.09-0.174l-0.096-0.172l-0.086-0.143l-0.1-0.158l-0.109-0.162l-0.091-0.137L38.83,79.27l-0.112-0.139l-0.106-0.117
			l-0.119-0.127l-0.05-0.053l-0.055-0.051l-0.063-0.061l-0.056-0.055l-0.052-0.045l-0.061-0.049l-0.065-0.055l-0.052-0.039
			l-0.049-0.035l-0.065-0.047l-0.012-0.008l-0.063-0.043l-0.052-0.031v0.004l-0.063-0.047h-0.003l-0.063-0.039l-0.056-0.033
			l-0.009-0.002l-0.041-0.025l-0.073-0.035l-0.063-0.031h-0.003l-0.072-0.035l-0.06-0.029l-0.063-0.021h-0.003l-0.072-0.031
			l-0.046-0.016L37.1,77.973l-0.064-0.023l-0.061-0.018l-0.059-0.02l-0.07-0.014l-0.01-0.002l-0.077-0.018l-0.057-0.014
			l-0.061-0.012l0,0l-0.08-0.014l-0.051-0.008l-0.075-0.008l-0.068-0.006l-0.071-0.006l-0.077-0.006l-0.053-0.002v0.002H36.088
			L36.088,77.807z M36.008,76.934h0.08h0.078h0.007l0.082,0.002h0.019l0.082,0.008l0,0l0.077,0.006h0.018l0.077,0.012l0.08,0.008
			h0.013l0.073,0.01l0.017,0.004l0.08,0.012v0.002l0.078,0.014h0.015l0.075,0.02l0.017,0.002l0.074,0.02l0.068,0.018l0.022,0.006
			l0.08,0.023h0.004l0.07,0.025l0.019,0.002l0.074,0.025l0.068,0.023l0.028,0.01l0.068,0.027l0.075,0.027l0.013,0.01l0.072,0.029
			l0.013,0.006l0.074,0.033l0.068,0.035l0.006,0.004l0.068,0.033l0.028,0.016l0.062,0.037v-0.004l0.071,0.039l0.022,0.014
			l0.066,0.041l0.068,0.041l0.009,0.008l0.068,0.045l0.017,0.012l0.059,0.037l0.068,0.049l0.017,0.016l0.066,0.049l0.002,0.006
			l0.069,0.047l0.006,0.006l0.063,0.053l0.006,0.006l0.067,0.057l0.066,0.057l0.012,0.01l0.065,0.059l0.007,0.002l0.063,0.059v0.006
			l0.065,0.061l0.008,0.008l0.06,0.061l0.007,0.006l0.118,0.127l0.01,0.014l0.121,0.141l0.005,0.012l0.121,0.139l0.003,0.01
			l0.111,0.143l0.012,0.012l0.108,0.148l0.012,0.018l0.104,0.162l0.006,0.006l0.103,0.168l0.009,0.012l0.1,0.166l0.006,0.008
			l0.092,0.174l0.009,0.008l0.095,0.188l0.006,0.006l0.089,0.191l0.008,0.008l0.086,0.188v0.006l0.084,0.191l0.002,0.014l0.08,0.211
			l0.003,0.002l0.077,0.205l0.006,0.016l0.068,0.207l0.003,0.002l0.066,0.211l0.005,0.012l0.066,0.221l0.003,0.008l0.063,0.227
			l0.002,0.012l0.056,0.223V82.1l0.054,0.23l0.003,0.01l0.053,0.246v0.004l0.048,0.246l0.003,0.01l0.04,0.246v0.004l0.04,0.246
			v0.014l0.063,0.49l0.003,0.016l0.048,0.496v0.016l0.034,0.533v0.012l0.016,0.531v0.016l-0.004,0.533v0.012l-0.012,0.535v0.014
			l-0.034,0.557v0.012l-0.048,0.557l-0.003,0.016l-0.066,0.553v0.01l-0.08,0.553L41.2,88.828l-0.092,0.559l-0.007,0.018
			l-0.112,0.557l-0.002,0.008l-0.123,0.553l-0.003,0.014l-0.143,0.549v0.008l-0.155,0.543l-0.002,0.012l-0.169,0.537l-0.006,0.012
			l-0.184,0.531l-0.005,0.012l-0.202,0.527v0.012l-0.205,0.504l-0.006,0.014l-0.218,0.492l-0.006,0.01l-0.233,0.488l-0.007,0.012
			l-0.246,0.484l-0.012,0.01l-0.246,0.443l-0.005,0.014l-0.258,0.438l-0.012,0.016l-0.274,0.426l-0.006,0.008l-0.144,0.209
			l-0.006,0.01l-0.148,0.205l-0.006,0.004l-0.141,0.189L37.81,97.26l-0.143,0.191l-0.006,0.008l-0.149,0.188l-0.005,0.006
			l-0.155,0.186l-0.005,0.002l-0.149,0.172l-0.002,0.006l-0.152,0.17l-0.006,0.006l-0.151,0.162l-0.012,0.016l-0.16,0.162
			l-0.009,0.006l-0.155,0.145v0.004l-0.153,0.148l-0.012,0.008l-0.161,0.145l-0.012,0.002l-0.165,0.141l-0.006,0.006l-0.16,0.123
			l-0.007,0.01l-0.16,0.119l-0.005,0.01l-0.166,0.117l-0.012,0.008l-0.166,0.111l-0.012,0.008l-0.16,0.098l-0.009,0.008
			l-0.163,0.098l-0.018,0.01l-0.169,0.092l-0.005,0.004l-0.166,0.088l-0.021,0.008l-0.16,0.074l-0.006,0.004l-0.166,0.074
			l-0.011,0.002l-0.087,0.035h-0.006l-0.08,0.031h-0.005l-0.083,0.033l-0.014,0.004l-0.087,0.029l-0.006,0.002l-0.08,0.023v0.002
			l-0.08,0.027l-0.018,0.004l-0.08,0.021l-0.005,0.002l-0.087,0.023l-0.08,0.02l-0.018,0.004l-0.08,0.018l-0.082,0.016l-0.02,0.004
			l-0.081,0.014l-0.077,0.014l-0.031,0.002l-0.063,0.012l-0.08,0.012h-0.029l-0.073,0.008l-0.012,0.002l-0.082,0.006l-0.08,0.004
			h-0.019l-0.082,0.002l-0.009,0.002h-0.08h-0.077l-0.012-0.002l-0.075-0.002h-0.022l-0.077-0.004l-0.079-0.006l-0.011-0.002
			l-0.08-0.008l-0.025-0.004l-0.06-0.006l-0.077-0.014l-0.032-0.002l-0.074-0.014l-0.08-0.014l-0.017-0.004l-0.078-0.016h-0.002
			l-0.074-0.021h-0.01l-0.077-0.02l-0.006-0.002l-0.074-0.021l-0.012-0.002l-0.076-0.021l-0.009-0.006l-0.075-0.027l-0.018-0.002
			l-0.073-0.029l-0.075-0.027l-0.005-0.002l-0.075-0.031l-0.012-0.004l-0.073-0.033h-0.007l-0.071-0.031l-0.014-0.012l-0.071-0.035
			h-0.004l-0.071-0.039h-0.002l-0.07-0.037l-0.018-0.008l-0.067-0.041l-0.006-0.002L30.41,99.98l-0.009-0.002l-0.067-0.043
			l-0.013-0.01l-0.068-0.045l0,0l-0.071-0.049l-0.01-0.004l-0.069-0.049l-0.005-0.008l-0.065-0.047l-0.002-0.002l-0.067-0.051
			l-0.008-0.008l-0.066-0.055l-0.065-0.055l-0.017-0.01l-0.063-0.055l-0.012-0.008L29.68,99.43l-0.063-0.059l-0.023-0.02
			l-0.06-0.061l-0.004-0.002l-0.057-0.064l-0.002-0.002L29.348,99.1l-0.012-0.018l-0.12-0.137l-0.011-0.016l-0.115-0.139
			l-0.005-0.012l-0.115-0.145l-0.012-0.014l-0.103-0.148l-0.005-0.012l-0.109-0.162h-0.003l-0.106-0.164l-0.011-0.021l-0.101-0.168
			l-0.003-0.006l-0.095-0.168l-0.008-0.018L28.32,97.57l-0.005-0.012l-0.09-0.188l-0.006-0.006l-0.083-0.189l-0.003-0.008
			l-0.083-0.189l-0.002-0.01l-0.081-0.205l-0.006-0.014l-0.074-0.207l-0.006-0.006l-0.071-0.209l-0.003-0.006l-0.066-0.211
			L27.739,96.1l-0.069-0.225v-0.004l-0.06-0.225l-0.004-0.008l-0.057-0.227l-0.003-0.006l-0.055-0.229v-0.004l-0.051-0.242V94.92
			l-0.052-0.246v-0.01l-0.041-0.244v-0.006l-0.039-0.246v-0.012l-0.063-0.496l-0.003-0.014l-0.048-0.492v-0.018l-0.034-0.533V92.59
			l-0.017-0.531v-0.012l0.002-0.535V91.5l0.015-0.537v-0.016l0.034-0.559v-0.006l0.048-0.555l0.003-0.014l0.063-0.557l0.003-0.014
			l0.077-0.549l0.005-0.01l0.093-0.563l0.003-0.014l0.111-0.557l0.005-0.012l0.124-0.553l0.002-0.012l0.144-0.553v-0.008
			l0.155-0.541l0.005-0.01l0.167-0.537l0.006-0.012l0.179-0.531l0.008-0.018l0.199-0.525l0.003-0.008l0.206-0.504l0.002-0.012
			l0.219-0.496l0.008-0.01l0.232-0.488l0.009-0.016l0.251-0.479v-0.008l0.247-0.447l0.011-0.016l0.265-0.436l0.005-0.014
			l0.277-0.426l0.007-0.01l0.143-0.213l0.003-0.002l0.148-0.207l0.005-0.01l0.144-0.191l0.004-0.004l0.143-0.191l0.009-0.012
			l0.148-0.182l0.006-0.004l0.154-0.184v-0.012l0.152-0.168l0.004-0.002l0.149-0.17l0.011-0.008l0.154-0.166l0.005-0.01l0.16-0.16
			l0.008-0.006l0.155-0.148l0.003-0.006l0.158-0.15l0.014-0.008l0.16-0.139l0.006-0.004l0.167-0.139l0.005-0.008l0.16-0.125
			l0.009-0.004l0.157-0.123l0.007-0.008l0.165-0.121l0.012-0.008l0.166-0.109l0.012-0.004l0.157-0.102l0.008-0.008l0.168-0.098
			l0.014-0.01l0.168-0.09l0.01-0.006l0.168-0.086l0.012-0.008l0.161-0.076l0.017-0.006l0.162-0.068l0.01-0.008l0.08-0.033h0.006
			l0.08-0.035l0.017-0.004l0.086-0.029l0.08-0.031l0.022-0.002l0.08-0.025l0.081-0.023l0.008-0.002l0.084-0.023l0.076-0.023
			l0.021-0.006l0.08-0.02l0,0l0.085-0.018l0.017-0.002l0.087-0.02l0.006-0.002l0.08-0.014l0.08-0.012l0.017-0.004l0.081-0.01h0.012
			l0.08-0.008l0,0l0.08-0.012h0.018l0.08-0.006l0.08-0.008h0.02L36,76.934H36.008L36.008,76.934z M34.02,78.412l-0.006,0.002
			L34.02,78.412L34.02,78.412z M29.032,85.588v0.006V85.588L29.032,85.588z M29.036,85.586l-0.004,0.002L29.036,85.586
			L29.036,85.586z M29.189,97.357l0.004,0.002L29.189,97.357L29.189,97.357z M29.185,97.342l0.005,0.016L29.185,97.342
			L29.185,97.342z M30.98,99.309l0.011,0.002L30.98,99.309L30.98,99.309z M30.973,99.303l0.008,0.006L30.973,99.303L30.973,99.303z
			 M32.995,99.67h0.006H32.995L32.995,99.67z M34.572,99.1h0.003H34.572L34.572,99.1z M36.923,77.914l-0.007-0.002L36.923,77.914z"
			/>
	</g>
	<g>
		<path fill="#838692" d="M117.494,100.576h-0.08l-0.009-0.002l-0.083-0.002h-0.018l-0.08-0.004l-0.083-0.006l-0.009-0.002
			l-0.076-0.008h-0.029l-0.08-0.012l-0.063-0.012l-0.031-0.002l-0.077-0.014l-0.08-0.014l-0.02-0.004l-0.084-0.016l-0.08-0.018
			l-0.022-0.006l-0.074-0.02v0.002l-0.086-0.023l-0.006-0.002l-0.08-0.021l-0.012-0.004l-0.08-0.027l-0.012-0.002l-0.081-0.023
			v-0.002l-0.082-0.029l-0.015-0.004l-0.085-0.029l-0.013-0.004l-0.077-0.031h-0.003l-0.085-0.035l-0.012-0.002l-0.166-0.074
			l-0.005-0.004l-0.16-0.074l-0.021-0.008l-0.165-0.088l-0.006-0.004l-0.17-0.092l-0.017-0.01l-0.162-0.098l-0.009-0.008
			l-0.161-0.098l-0.011-0.008l-0.166-0.111l-0.013-0.008l-0.165-0.117l-0.006-0.008l-0.16-0.121l-0.012-0.01l-0.155-0.123
			l-0.005-0.006l-0.166-0.141l-0.012-0.002l-0.16-0.145l-0.012-0.008l-0.154-0.148v-0.004l-0.154-0.145l-0.009-0.006l-0.161-0.162
			l-0.008-0.012l-0.155-0.164l-0.005-0.008l-0.152-0.17l-0.008-0.006l-0.146-0.172l-0.002-0.002l-0.155-0.186l-0.005-0.006
			l-0.15-0.188l-0.005-0.008l-0.144-0.191l-0.009-0.008l-0.14-0.189l-0.006-0.004l-0.149-0.205l-0.005-0.01l-0.144-0.209
			l-0.006-0.008l-0.274-0.426l-0.007-0.016l-0.264-0.438l-0.005-0.014l-0.248-0.443l-0.009-0.01l-0.247-0.484l-0.006-0.012
			l-0.234-0.488l-0.006-0.01l-0.217-0.492l-0.007-0.014l-0.207-0.504v-0.012l-0.199-0.527l-0.005-0.012l-0.185-0.531l-0.005-0.012
			l-0.17-0.537l-0.003-0.012l-0.154-0.543v-0.008l-0.142-0.549l-0.004-0.014l-0.123-0.553l-0.004-0.008l-0.11-0.557l-0.006-0.016
			l-0.095-0.561l-0.002-0.014l-0.078-0.553v-0.01l-0.065-0.553l-0.003-0.016l-0.05-0.557v-0.012l-0.033-0.557v-0.014l-0.015-0.533
			l-0.003-0.014v-0.533l0.003-0.016l0.015-0.531v-0.012l0.033-0.533v-0.016l0.05-0.496l0.003-0.016l0.063-0.49v-0.014l0.041-0.246
			v-0.004l0.04-0.246l0.002-0.01l0.049-0.246v-0.004l0.052-0.246v-0.008l0.055-0.227l0.002-0.01l0.054-0.227l0.004-0.006
			l0.063-0.227l0.003-0.008l0.065-0.221l0.003-0.008l0.065-0.209l0.003-0.01l0.072-0.207l0.005-0.014l0.078-0.205l0.002-0.002
			l0.08-0.211l0.003-0.014l0.084-0.191v-0.006l0.085-0.188l0.009-0.008l0.089-0.191l0.005-0.006l0.096-0.188l0.002-0.004
			l0.095-0.172l0.012-0.018l0.1-0.166v-0.008l0.104-0.162l0.01-0.016l0.106-0.164l0.009-0.012l0.108-0.148l0.009-0.008l0.112-0.146
			l0.005-0.014l0.12-0.141l0.007-0.006l0.12-0.141l0.011-0.014l0.12-0.127l0.003-0.006l0.061-0.061l0.008-0.008l0.066-0.061v-0.006
			l0.063-0.059l0.01-0.002l0.063-0.059l0.013-0.01l0.064-0.057l0.068-0.057l0.006-0.006l0.063-0.053l0.006-0.006l0.068-0.047
			l0.006-0.006l0.063-0.049l0.011-0.01l0.069-0.049l0.068-0.047l0.012-0.008l0.068-0.045l0.009-0.008l0.071-0.041l0.063-0.041
			l0.023-0.014l0.071-0.039v0.004l0.061-0.037l0.028-0.016l0.071-0.033l0.003-0.004l0.069-0.035l0.073-0.033l0.012-0.006
			l0.071-0.029l0.016-0.01l0.074-0.027l0.067-0.027l0.029-0.01l0.068-0.023l0.075-0.025l0.017-0.002l0.072-0.025h0.003l0.08-0.023
			l0.022-0.006l0.068-0.018l0.075-0.02l0.017-0.002l0.075-0.02h0.015l0.077-0.014v-0.002l0.08-0.012l0.017-0.004l0.077-0.01h0.009
			l0.08-0.008l0.078-0.012h0.017l0.077-0.006l0,0l0.083-0.008h0.021l0.077-0.002h0.008h0.08h0.08h0.009l0.08,0.002h0.021l0.08,0.008
			l0.08,0.006h0.018l0.08,0.012l0,0l0.08,0.008h0.012l0.079,0.01l0.019,0.004l0.08,0.012l0.079,0.014l0.007,0.002l0.085,0.02
			l0.018,0.002l0.086,0.018l0,0l0.08,0.02l0.021,0.006l0.077,0.023l0.083,0.023l0.008,0.002l0.08,0.023l0.08,0.025l0.024,0.002
			l0.08,0.031l0.085,0.029l0.018,0.004l0.08,0.035h0.005l0.08,0.033l0.009,0.008l0.164,0.068l0.017,0.006l0.16,0.076l0.013,0.008
			l0.168,0.086l0.009,0.006l0.169,0.09l0.018,0.01l0.162,0.1l0,0l0.164,0.104l0.014,0.008l0.166,0.109l0.012,0.008l0.166,0.121
			l0.006,0.008l0.161,0.123l0.005,0.004l0.16,0.125l0.008,0.008l0.164,0.139l0.012,0.004l0.157,0.139l0.009,0.008l0.157,0.148
			l0.008,0.008l0.152,0.148l0.009,0.006l0.16,0.16l0.006,0.01l0.154,0.166l0.009,0.008l0.151,0.17l0.003,0.002l0.152,0.168
			l0.002,0.012l0.151,0.188h0.004l0.151,0.182l0.01,0.012l0.145,0.191l0.004,0.004l0.14,0.191l0.006,0.01l0.148,0.207l0.003,0.002
			l0.143,0.213l0.007,0.01l0.278,0.426l0.005,0.014l0.264,0.436l0.012,0.016l0.245,0.447v0.008l0.253,0.479l0.008,0.016l0.232,0.488
			l0.009,0.01l0.217,0.496l0.003,0.012l0.207,0.504l0.002,0.01l0.197,0.527l0.007,0.014l0.183,0.529l0.005,0.014l0.168,0.537
			l0.005,0.01l0.155,0.541v0.008l0.143,0.553l0.003,0.012l0.126,0.553l0.003,0.012l0.108,0.561l0.003,0.008l0.094,0.561l0.007,0.014
			l0.077,0.549l0.003,0.014l0.064,0.557v0.014l0.05,0.555v0.006l0.034,0.559v0.016l0.014,0.537l0.003,0.012v0.535l-0.003,0.012
			l-0.014,0.531v0.014l-0.034,0.533v0.018l-0.05,0.492v0.014l-0.064,0.496v0.012l-0.04,0.246v0.006l-0.04,0.244v0.01l-0.05,0.246
			l-0.003,0.012l-0.051,0.242v0.004l-0.056,0.229l-0.002,0.006l-0.054,0.227l-0.006,0.008l-0.061,0.225v0.004L122.26,96.1
			l-0.003,0.012l-0.064,0.211l-0.004,0.006l-0.071,0.209l-0.006,0.006l-0.075,0.207l-0.005,0.014l-0.08,0.205l-0.003,0.01
			l-0.082,0.189l-0.003,0.008l-0.084,0.189l-0.005,0.006l-0.09,0.188l-0.008,0.014l-0.095,0.186l-0.006,0.008l-0.094,0.172
			l-0.003,0.008l-0.102,0.168l-0.01,0.021l-0.106,0.164h-0.003l-0.109,0.162l-0.005,0.012l-0.104,0.148l-0.01,0.014l-0.115,0.145
			l-0.008,0.018l-0.117,0.139l-0.007,0.008l-0.117,0.137l-0.015,0.02l-0.123,0.123l-0.003,0.002l-0.057,0.064l-0.004,0.002
			l-0.059,0.061l-0.023,0.02l-0.063,0.059l-0.057,0.055h-0.004l-0.065,0.057l-0.02,0.021l-0.068,0.049l-0.056,0.047l-0.013,0.014
			l-0.067,0.051l-0.003,0.002l-0.065,0.047l-0.006,0.008l-0.068,0.049l-0.009,0.004l-0.068,0.049h-0.003l-0.068,0.045l-0.012,0.01
			l-0.069,0.043l-0.008,0.002l-0.072,0.045l-0.008,0.006l-0.072,0.039l-0.005,0.002l-0.069,0.041h-0.009l-0.071,0.039h-0.003
			l-0.071,0.035l-0.015,0.012l-0.071,0.031h-0.006l-0.074,0.033l-0.011,0.004l-0.075,0.031l-0.006,0.002l-0.075,0.027l-0.073,0.029
			l-0.019,0.002l-0.073,0.027l-0.012,0.006l-0.08,0.021l-0.003,0.002l-0.072,0.021l-0.011,0.002l-0.078,0.02h-0.011l-0.074,0.021
			l-0.077,0.016l-0.017,0.004l-0.08,0.014l-0.075,0.014l-0.031,0.002l-0.078,0.014l-0.06,0.006l-0.026,0.004l-0.08,0.008
			l-0.009,0.002l-0.08,0.006l-0.076,0.004h-0.024l-0.073,0.002l-0.012,0.002H117.494L117.494,100.576z M117.414,99.705
			L117.414,99.705h0.08h0.077l0,0h0.049l0.081-0.008h0.002l0.08-0.006l0.051-0.002l0.063-0.012l0.017-0.002l0.08-0.008l0.046-0.01
			l0.059-0.012l0.076-0.016h0.004l0.063-0.02l0.076-0.016l0.06-0.018l0.075-0.023l0.039-0.012v-0.002l0.075-0.025l0.068-0.025
			l0.061-0.027l0.065-0.027l0.075-0.033l0,0l0.052-0.025l0.063-0.033l0.063-0.035l0.068-0.039l0.054-0.029l0.056-0.037l0.071-0.047
			l0.064-0.045l0.059-0.041l0.057-0.041l0.063-0.049l0.052-0.039l0.007-0.012l0.051-0.041l0.055-0.049l0.065-0.061l0.006-0.004
			l0.048-0.045l0.059-0.055l0.054-0.055l0.114-0.119l0.109-0.127l0.108-0.135l0.096-0.121l0.102-0.148l0.101-0.15l0,0l0.106-0.162
			l0.08-0.139l0.094-0.17l0.086-0.166l0.087-0.176l0.082-0.189h0.003l0.077-0.188l0.078-0.188l0.068-0.189l0.071-0.205l0.067-0.203
			l0.061-0.215l0.059-0.201l0.051-0.219l0.051-0.221l0.054-0.246l0.045-0.234l0.04-0.234l0.037-0.234l0.061-0.475l0.046-0.479
			l0.034-0.533l0.014-0.508h-0.002v-0.535h0.002l-0.014-0.508l-0.034-0.549l-0.046-0.557l-0.063-0.541l-0.08-0.529l-0.093-0.551
			l-0.11-0.557l-0.123-0.541l-0.131-0.527h-0.004l-0.154-0.541l-0.167-0.525h0.004l-0.177-0.508l-0.195-0.514l-0.201-0.494l0,0
			l-0.217-0.492l0,0l-0.227-0.477l-0.243-0.463l-0.246-0.445l-0.25-0.416l-0.267-0.408l-0.142-0.213l0,0l-0.143-0.203l-0.134-0.178
			l-0.136-0.176l-0.148-0.186l0,0l-0.144-0.174l0,0l-0.152-0.17l-0.141-0.158l-0.149-0.16l-0.153-0.156l-0.14-0.133l-0.152-0.141
			l-0.161-0.141h0.003l-0.16-0.139l-0.14-0.107l-0.149-0.115l0,0l-0.166-0.117l-0.158-0.104l-0.146-0.094l-0.157-0.094l-0.141-0.078
			l-0.169-0.086l-0.143-0.068l-0.151-0.066l-0.075-0.029v0.002l-0.08-0.035l-0.067-0.023l-0.088-0.033l-0.059-0.016l-0.072-0.021
			l-0.08-0.02h-0.002l-0.062-0.02l-0.085-0.02l-0.074-0.018l-0.063-0.014l-0.083-0.014h-0.003l-0.08-0.014l-0.052-0.008l-0.08-0.008
			l-0.063-0.006l-0.08-0.006h-0.002l-0.078-0.006l-0.053-0.002v0.002h-0.08h-0.08v-0.002l-0.051,0.002l-0.077,0.006l-0.071,0.006
			l-0.069,0.006l-0.074,0.008l-0.051,0.008l-0.081,0.014l0,0l-0.061,0.012l-0.057,0.014l-0.077,0.018l-0.009,0.002l-0.071,0.014
			l-0.058,0.02l-0.061,0.018l-0.066,0.023l-0.005,0.002l-0.046,0.016l-0.075,0.031h-0.002l-0.063,0.021l-0.059,0.029l-0.072,0.035
			h-0.003l-0.063,0.031l-0.072,0.035l-0.042,0.025l-0.009,0.002l-0.058,0.033l-0.06,0.039h-0.005l-0.063,0.047v-0.004l-0.058,0.033
			l-0.063,0.045l-0.068,0.045l-0.051,0.041l-0.053,0.039l-0.065,0.055l-0.06,0.049l-0.052,0.045l-0.058,0.055l-0.063,0.061
			l-0.056,0.051l-0.048,0.053l-0.12,0.127l-0.103,0.117l-0.118,0.143l-0.095,0.119l-0.097,0.139l0,0l-0.109,0.162l-0.093,0.156
			l-0.088,0.139l-0.091,0.172l-0.095,0.178l-0.08,0.164h0.003l-0.083,0.191h-0.006l-0.08,0.182l-0.074,0.191l-0.069,0.189l0,0
			l-0.068,0.201l-0.065,0.207l-0.063,0.213l-0.061,0.211l0,0l-0.056,0.225l-0.052,0.213l-0.046,0.23l-0.046,0.236l-0.041,0.244
			h-0.002l-0.034,0.232l-0.061,0.477l-0.047,0.48l-0.034,0.533l-0.014,0.506h0.003v0.533h-0.003l0.014,0.508l0.034,0.551l0.05,0.553
			l0.063,0.545l0.074,0.527l0.096,0.563l0.111,0.541l0.122,0.543l0.135,0.529l0.151,0.529l0.167,0.537l0,0l0.177,0.506l0.196,0.518
			l0.199,0.49l0.217,0.496l0,0l0.224,0.467l0.249,0.48l0.238,0.424l0.258,0.426l0.264,0.412l0.144,0.211l0.143,0.197l0.137,0.191
			l0,0l0.131,0.172h0.005l0.143,0.178l0.153,0.189l0.136,0.156l0.149,0.16l0.146,0.154l0.16,0.162l0.144,0.139l0.146,0.137
			l0.16,0.139v0.006l0.149,0.125l0,0l0.157,0.125h-0.003l0.143,0.107v-0.004l0.166,0.121l0.155,0.102l0.144,0.092l0.16,0.098
			l0.146,0.076l0.168,0.088l0.139,0.066v-0.004l0.16,0.072l0.068,0.027l0.068,0.025l0.089,0.035l0,0l0.066,0.023v-0.004l0.083,0.027
			l0.06,0.02l0.075,0.023v-0.004l0.079,0.02l0.006,0.004l0.063,0.016l0.08,0.02l0,0l0.074,0.014l0.074,0.012l0,0l0.075,0.014
			l0.058,0.006l0.02,0.002l0.08,0.012l0.043,0.002l0,0l0.081,0.006l0.08,0.008H117.414L117.414,99.705z M116.999,99.67h0.005
			H116.999L116.999,99.67z M116.689,99.609l0.006,0.002L116.689,99.609L116.689,99.609z M115.425,99.1h0.003H115.425L115.425,99.1z
			 M111.935,95.301l0.003,0.004l0.006,0.008L111.935,95.301L111.935,95.301z M110.042,81.455v0.002v0.006V81.455L110.042,81.455z
			 M112.012,78.439v0.002V78.439L112.012,78.439z M113.083,77.912l-0.007,0.002L113.083,77.912z"/>
	</g>
	<path fill="#838692" d="M123.979,102.4l-0.607,3.021v0.002c-0.106,0.531-0.396,0.992-0.791,1.314l-0.003,0.002
		c-0.395,0.324-0.901,0.516-1.445,0.516H28.867c-0.544,0-1.047-0.191-1.443-0.512l-0.003-0.004
		c-0.392-0.322-0.685-0.783-0.793-1.316v-0.002l-0.61-3.021l1.297-0.256l0.612,3.016c0.047,0.221,0.168,0.418,0.33,0.555
		l0.003-0.006c0.165,0.135,0.378,0.219,0.607,0.219h92.266c0.229,0,0.439-0.084,0.609-0.219h0.003
		c0.163-0.131,0.286-0.328,0.326-0.549l0.606-3.016L123.979,102.4z"/>
	<g>
		<path fill="#838692" d="M48.798,66.588l0.003-0.321v-0.006l0.008-0.321v-0.008l0.017-0.341v-0.011l0.023-0.341l0.003-0.009
			l0.031-0.338V64.89l0.035-0.34l0.002-0.015l0.046-0.337v-0.008l0.049-0.335l0.002-0.014l0.062-0.335v-0.009l0.065-0.335
			l0.003-0.005l0.069-0.338l0.003-0.012l0.082-0.335v-0.006l0.08-0.335l0.006-0.008l0.091-0.333v-0.009l0.104-0.332v-0.006
			l0.108-0.329v-0.009l0.108-0.332l0.006-0.009l0.12-0.329l0.005-0.009l0.127-0.323v-0.003l0.131-0.327l0.007-0.011l0.137-0.324
			l0.007-0.008l0.144-0.324l0.005-0.003l0.155-0.321v-0.003l0.159-0.318l0.003-0.009l0.164-0.315l0.005-0.011l0.172-0.313
			l0.005-0.008l0.182-0.313l0.002-0.005l0.187-0.307l0.003-0.008l0.192-0.31l0.005-0.005l0.198-0.304l0.006-0.006l0.205-0.303
			l0.004-0.006l0.212-0.298l0.002-0.006l0.219-0.298l0.005-0.009l0.224-0.292l0.005-0.006l0.23-0.292l0.005-0.006l0.235-0.29
			l0.005-0.005l0.241-0.284l0.005-0.009l0.246-0.282l0.008-0.006l0.514-0.552l0.011-0.011l0.538-0.544l0.013-0.011l0.558-0.527
			l0.015-0.009l0.581-0.512l0.009-0.008l0.604-0.498l0.014-0.012l0.625-0.481l0.012-0.006l0.566-0.409l0.011-0.009l0.431-0.295
			l0.008-0.005l0.44-0.29l0.009-0.006l0.449-0.283h0.01l0.458-0.275l0.006-0.005l0.466-0.264l0.009-0.006l0.473-0.258l0.009-0.002
			l0.481-0.25l0.008-0.006l0.486-0.241l0.009-0.006l0.498-0.229l0.003-0.003l0.501-0.225h0.008l0.514-0.216l0.005-0.006l0.517-0.206
			l0.008-0.003l0.523-0.197l0.006-0.003l0.526-0.186l0.006-0.002l0.533-0.181l0.011-0.003l0.538-0.167l0.006-0.003l0.538-0.16
			l0.013-0.003l0.549-0.145l0.005-0.006l0.554-0.137l0.008-0.003l0.557-0.128l0.008-0.004l0.558-0.116l0.012-0.003l0.561-0.109
			l0.007-0.002l0.567-0.101h0.011l0.567-0.085l0.01-0.003l0.573-0.077l0.006-0.003l0.572-0.069h0.013l0.575-0.057l0.002-0.003
			l0.578-0.048h0.012l0.578-0.037h0.013l0.58-0.026h0.008l0.579-0.014h0.006l0.584-0.006h0.006l0.583,0.006h0.007l0.578,0.014h0.008
			l0.581,0.026h0.013l0.577,0.037h0.012l0.578,0.048l0.003,0.003l0.575,0.057h0.009l0.574,0.069l0.008,0.003l0.572,0.077
			l0.011,0.003l0.567,0.085h0.011l0.567,0.101l0.005,0.002l0.562,0.109l0.012,0.003l0.559,0.116l0.008,0.004l0.556,0.128
			l0.009,0.003l0.553,0.137l0.006,0.006l0.549,0.145l0.009,0.003l0.542,0.16l0.005,0.003l0.541,0.167l0.008,0.003l0.533,0.181
			l0.006,0.002l0.526,0.186l0.006,0.003l0.524,0.197l0.008,0.003l0.517,0.206l0.005,0.006l0.512,0.216h0.009l0.502,0.225
			l0.003,0.003l0.498,0.229l0.009,0.006l0.486,0.241l0.008,0.006l0.484,0.25l0.006,0.002l0.472,0.258l0.01,0.006l0.466,0.264
			l0.009,0.005l0.455,0.275h0.005l0.453,0.283l0.006,0.006l0.444,0.29l0.008,0.005l0.433,0.295l0.009,0.009l0.566,0.409l0.012,0.006
			l0.624,0.481l0.015,0.012l0.604,0.498l0.009,0.008l0.581,0.512l0.018,0.009l0.555,0.527l0.012,0.011l0.538,0.544l0.012,0.011
			l0.512,0.552l0.009,0.006l0.246,0.282l0.006,0.009l0.241,0.284l0.005,0.005l0.235,0.29l0.005,0.006l0.229,0.292l0.006,0.006
			l0.223,0.292l0.006,0.009l0.218,0.298l0.006,0.006l0.208,0.298l0.005,0.006l0.205,0.3l0.006,0.009l0.197,0.304l0.005,0.005
			l0.192,0.31l0.004,0.008l0.185,0.307l0.004,0.005l0.18,0.313l0.006,0.008l0.173,0.313l0.005,0.011l0.165,0.315v0.009l0.161,0.318
			v0.003l0.155,0.321l0.005,0.003l0.147,0.324l0.002,0.008l0.137,0.324l0.007,0.011l0.131,0.327v0.003l0.126,0.323l0.007,0.009
			l0.12,0.329l0.005,0.009l0.109,0.332v0.009l0.108,0.329v0.006l0.101,0.336l0.002,0.005l0.093,0.333l0.003,0.005l0.082,0.334v0.009
			l0.083,0.335l0.003,0.012l0.072,0.338v0.005l0.065,0.335v0.009l0.06,0.335l0.003,0.014l0.05,0.335v0.008l0.045,0.337l0.003,0.015
			l0.034,0.34v0.003l0.032,0.338l0.002,0.009l0.023,0.341v0.011l0.018,0.341v0.012l0.005,0.317v0.009l-0.003,0.31v0.008
			l-0.018,0.713v0.015l-0.036,0.667v0.014l-0.055,0.625l-0.003,0.009l-0.031,0.304l-0.003,0.013l-0.041,0.296v0.006l-0.039,0.289
			l-0.006,0.006l-0.045,0.283v0.015l-0.059,0.281v0.006l-0.057,0.277l-0.003,0.009l-0.06,0.278l-0.004,0.011l-0.071,0.279
			l-0.003,0.008l-0.154,0.556l-0.003,0.012l-0.16,0.521l-0.007,0.014l-0.177,0.515l-0.003,0.014l-0.194,0.509l-0.006,0.014
			l-0.209,0.502l-0.006,0.011l-0.154,0.352l-0.002,0.006l-0.165,0.346l-0.005,0.012l-0.172,0.347l-0.005,0.009l-0.181,0.343
			l-0.004,0.006l-0.188,0.345l-0.007,0.008l-0.195,0.338l-0.005,0.01l-0.206,0.336l-0.003,0.01l-0.209,0.332l-0.009,0.008
			l-0.221,0.328l-0.003,0.006l-0.227,0.328l-0.005,0.01l-0.237,0.324l-0.003,0.004l-0.243,0.326l-0.007,0.008l-0.248,0.316
			l-0.006,0.006l-0.258,0.314l-0.005,0.012l-0.267,0.309l-0.003,0.006l-0.27,0.311l-0.012,0.008l-0.28,0.301l-0.003,0.006
			l-0.289,0.301l-0.005,0.008l-0.296,0.299l-0.003,0.002l-0.301,0.295l-0.005,0.004l-0.31,0.287l-0.006,0.008l-0.317,0.285
			l-0.007,0.002l-0.322,0.281l-0.003,0.004l-0.33,0.275l-0.008,0.008l-0.339,0.271h-0.005l-0.341,0.27l-0.005,0.002L92.7,82.25
			l-0.005,0.002l-0.359,0.26l-0.005,0.004l-0.357,0.25l-0.013,0.008l-0.366,0.244l-0.01,0.004l-0.752,0.48l-0.014,0.006
			l-0.742,0.432l-0.01,0.01l-0.757,0.408l-0.012,0.008l-0.768,0.389l-0.017,0.006l-0.779,0.361l-0.005,0.002l-0.717,0.311
			l-0.011,0.002l-0.729,0.289l-0.009,0.006l-0.744,0.273l-0.012,0.006l-0.753,0.252l-0.011,0.002l-0.762,0.234L83.968,86.5
			l-0.772,0.215l-0.005,0.006l-0.785,0.195l-0.011,0.004l-0.79,0.174l-0.012,0.002l-0.802,0.158h-0.012l-0.801,0.139l-0.013,0.002
			l-0.807,0.111l-0.015,0.002l-0.81,0.096h-0.012l-0.818,0.074h-0.012l-0.824,0.051H76.66l-0.821,0.035h-0.012l-0.821,0.008h-0.012
			l-0.822-0.008h-0.011l-0.824-0.035H73.33l-0.824-0.051h-0.012l-0.817-0.074h-0.013l-0.81-0.096l-0.014-0.002l-0.807-0.111
			l-0.013-0.002l-0.802-0.139h-0.012l-0.801-0.158l-0.013-0.002l-0.789-0.174l-0.018-0.004l-0.778-0.195l-0.006-0.006L66.03,86.5
			l-0.014-0.002l-0.762-0.234l-0.011-0.002l-0.753-0.252l-0.012-0.006l-0.741-0.273l-0.012-0.006l-0.729-0.289l-0.013-0.002
			l-0.715-0.311l-0.006-0.002l-0.779-0.361l-0.018-0.006L60.7,84.365l-0.015-0.008l-0.753-0.408l-0.011-0.01l-0.742-0.432
			l-0.014-0.006l-0.75-0.48l-0.012-0.004l-0.367-0.244l-0.011-0.008l-0.357-0.25l-0.005-0.004l-0.359-0.26L57.3,82.25l-0.347-0.264
			l-0.006-0.002l-0.34-0.27h-0.007l-0.338-0.271l-0.008-0.008l-0.33-0.275l-0.002-0.004l-0.324-0.281l-0.005-0.002l-0.315-0.285
			L55.27,80.58l-0.309-0.287l-0.006-0.004l-0.301-0.295l-0.003-0.002l-0.295-0.299l-0.005-0.008l-0.29-0.301l-0.002-0.006
			l-0.282-0.301l-0.011-0.008l-0.269-0.311l-0.003-0.006l-0.267-0.309l-0.005-0.012l-0.258-0.314l-0.007-0.006l-0.249-0.316
			l-0.006-0.008l-0.243-0.326l-0.002-0.004l-0.237-0.324l-0.004-0.01l-0.229-0.328l-0.003-0.006l-0.22-0.328l-0.01-0.008
			l-0.209-0.332l-0.002-0.01l-0.207-0.336l-0.006-0.01l-0.194-0.338l-0.006-0.008l-0.188-0.345l-0.003-0.006l-0.181-0.343
			l-0.005-0.009l-0.172-0.347l-0.006-0.012l-0.163-0.346l-0.004-0.006l-0.153-0.352l-0.007-0.008l-0.212-0.505l-0.005-0.014
			l-0.192-0.509l-0.002-0.011l-0.178-0.516l-0.009-0.021l-0.158-0.52l-0.002-0.012l-0.151-0.56l-0.007-0.006l-0.073-0.284v-0.011
			l-0.063-0.287v-0.006l-0.063-0.289v-0.009L49.08,69.8l-0.002-0.009L49.029,69.5l-0.003-0.009l-0.047-0.298v-0.006l-0.04-0.298
			v-0.008l-0.034-0.307v-0.008l-0.057-0.625v-0.014l-0.034-0.647V67.27l-0.017-0.665V66.588L48.798,66.588z M49.671,66.282
			l-0.004,0.306l0.018,0.649l0.034,0.645l0.052,0.595l0,0l0.034,0.304l0.037,0.284h0.003l0.046,0.298l0.047,0.286l0.051,0.281
			l0.057,0.272l0.063,0.277l0.072,0.285h-0.002l0.151,0.546l0.152,0.498l0.178,0.504l0.182,0.494l0.212,0.496l0.155,0.352
			l0.16,0.341l0.166,0.327l0.177,0.337l0.189,0.343h-0.006l0.192,0.333l0.196,0.32l0,0l0.213,0.332l0.208,0.314l0.228,0.33
			l0.23,0.318l0.231,0.311l0.253,0.316l0.243,0.303l0.261,0.307l0.003-0.004l0.271,0.313l0.275,0.293l0.28,0.301l0.287,0.283
			l0.291,0.287l0.301,0.281l0.317,0.283l-0.005,0.004l0.321,0.273l0.313,0.262l0.338,0.271l0.333,0.258l0.34,0.258l0.355,0.256
			l0.346,0.242l0.367,0.244l0.75,0.473l0.719,0.424l0.736,0.398l0.755,0.381l0.778,0.361l0.706,0.305v0.002l0.705,0.279l0,0
			l0.744,0.273l0.734,0.246l0.756,0.23l0.754,0.211l0,0l0.782,0.195v0.006l0.764,0.164l0.802,0.158l0.787,0.133l0.794,0.111
			l0.81,0.094v0.002l0.796,0.068l0.824,0.053l0.813,0.033l0.804,0.012l0.806-0.012l0.812-0.033l0.825-0.053l0.797-0.068v-0.002
			l0.809-0.094l0.794-0.111l0.785-0.133l0.804-0.158l0.764-0.164V86.07l0.781-0.195l0,0l0.756-0.211l0.76-0.23l0.731-0.246
			l0.743-0.273l0,0l0.703-0.279v-0.002l0.708-0.305l0.774-0.361l0.756-0.381l0.743-0.398l0.714-0.424l0.751-0.473l0.366-0.244
			l0.346-0.242l0.355-0.256l0.341-0.258l0.333-0.258l0.338-0.271l0.313-0.262l0.32-0.273l-0.003-0.004l0.318-0.283l0.298-0.281
			l0.292-0.287l0.287-0.283l0.279-0.301l0.274-0.293l0.272-0.313l0.002,0.004l0.262-0.307l0.244-0.303l0.251-0.316l0.231-0.311
			l0.232-0.318l0.227-0.33l0.209-0.314l0.212-0.332l0,0l0.197-0.32l0.191-0.333h-0.002l0.187-0.343l0.179-0.337l0.164-0.327
			l0.16-0.341l0.155-0.352l0.208-0.492l0.181-0.487l0.18-0.515l0.155-0.504l0.151-0.535h-0.003l0.068-0.281l0.061-0.267l0.058-0.263
			l0.051-0.284l0.046-0.266l0.042-0.29h0.004l0.034-0.277l0.032-0.292l0.055-0.627l0.036-0.655l0.018-0.699l0.003-0.294
			l-0.006-0.304l-0.015-0.327l-0.025-0.34l0,0l-0.028-0.327l-0.037-0.335l-0.043-0.324l0,0l-0.052-0.332l-0.058-0.332L100,63.325
			l-0.068-0.333l-0.075-0.312l0,0l-0.085-0.335l0,0l-0.087-0.317l-0.097-0.332l-0.101-0.312h-0.003l-0.109-0.319l-0.119-0.332
			l-0.123-0.313L99.01,60.11l-0.138-0.316l-0.148-0.321l-0.15-0.312l-0.153-0.309l-0.16-0.307l-0.173-0.312l-0.171-0.3l-0.181-0.298
			l-0.191-0.307l-0.189-0.289l-0.2-0.296l-0.209-0.301h0.003l-0.214-0.289l-0.216-0.284l-0.227-0.286L96.055,55.3l-0.229-0.272
			l-0.24-0.275l-0.516-0.552l-0.515-0.523l-0.559-0.527l-0.573-0.498l-0.596-0.493l-0.604-0.463l-0.56-0.404L91.239,51l-0.44-0.289
			l-0.44-0.279l-0.441-0.263l-0.457-0.26l0,0l-0.477-0.258l0,0l-0.466-0.243l-0.479-0.235l-0.493-0.229l-0.498-0.227l0,0
			L86.55,48.51l-0.503-0.203l-0.516-0.191l-0.523-0.189l-0.518-0.171l-0.539-0.167l-0.535-0.161l-0.529-0.145l0,0l-0.554-0.141
			l-0.541-0.123l-0.554-0.12l-0.554-0.106l-0.566-0.097v-0.003l-0.553-0.086l-0.566-0.074l-0.573-0.068l-0.561-0.06v0.002
			l-0.578-0.048l-0.573-0.037l-0.571-0.026l-0.573-0.014l-0.57-0.006L74.43,46.28l-0.572,0.014l-0.573,0.026l-0.568,0.037
			l-0.581,0.048v-0.002l-0.562,0.06l-0.572,0.068l-0.566,0.074l-0.553,0.086v0.003l-0.566,0.097l-0.554,0.106l-0.555,0.12
			l-0.542,0.123l-0.553,0.141l0,0l-0.532,0.145l-0.532,0.161l-0.538,0.167l-0.519,0.171l-0.524,0.189l-0.515,0.191l-0.503,0.203
			l-0.499,0.208l0,0l-0.498,0.227l-0.492,0.229l-0.476,0.235l-0.469,0.243l0,0L60.54,49.91l0,0l-0.458,0.26l-0.441,0.263l0,0
			l-0.448,0.281l0,0l-0.426,0.281l-0.431,0.298l-0.562,0.404l-0.604,0.463l-0.596,0.493l-0.572,0.498l-0.557,0.527l-0.52,0.523
			l-0.513,0.552l-0.24,0.275L53.944,55.3l-0.237,0.287l-0.226,0.286l-0.216,0.284l-0.215,0.295l-0.203,0.287l-0.197,0.294
			l-0.194,0.298l-0.191,0.307l-0.181,0.298l-0.173,0.3l-0.171,0.312l-0.16,0.307l-0.154,0.309l-0.149,0.312l-0.148,0.321
			l-0.139,0.316l-0.122,0.311l-0.123,0.313l-0.12,0.332l-0.108,0.319h-0.003l-0.102,0.314l0,0l-0.098,0.329l-0.09,0.317h0.005
			l-0.085,0.335l0,0l-0.075,0.312L50,63.325l-0.063,0.33l-0.059,0.332l-0.051,0.332l0,0l-0.043,0.324l-0.037,0.335l-0.029,0.327l0,0
			l-0.026,0.34L49.68,65.97L49.671,66.282L49.671,66.282z M68.768,46.898h-0.006l-0.003,0.003L68.768,46.898L68.768,46.898z
			 M81.24,46.901l-0.002-0.003H81.23L81.24,46.901L81.24,46.901z M97.91,75.334h0.003l0.003-0.008L97.91,75.334L97.91,75.334z
			 M52.084,75.326l0.003,0.008h0.002L52.084,75.326z"/>
	</g>
	<g>
		<path fill-rule="evenodd" clip-rule="evenodd" fill="#838692" d="M54.271,65.425c0.074,0,0.138-0.06,0.138-0.134
			s-0.063-0.134-0.138-0.134c-0.07,0-0.131,0.06-0.131,0.134S54.2,65.425,54.271,65.425z"/>
		<circle fill-rule="evenodd" clip-rule="evenodd" fill="#838692" cx="53.79" cy="65.291" r="0.134"/>
		<circle fill-rule="evenodd" clip-rule="evenodd" fill="#838692" cx="53.309" cy="65.291" r="0.134"/>
		<path fill-rule="evenodd" clip-rule="evenodd" fill="#838692" d="M52.825,65.425c0.077,0,0.134-0.06,0.134-0.134
			s-0.057-0.134-0.134-0.134c-0.075,0-0.134,0.06-0.134,0.134S52.75,65.425,52.825,65.425z"/>
		<circle fill-rule="evenodd" clip-rule="evenodd" fill="#838692" cx="52.345" cy="65.291" r="0.134"/>
		<path fill-rule="evenodd" clip-rule="evenodd" fill="#838692" d="M53.173,66.256c0,0.074,0.061,0.134,0.133,0.134
			c0.078,0,0.135-0.06,0.135-0.134c0-0.075-0.057-0.134-0.135-0.134C53.233,66.122,53.173,66.181,53.173,66.256z"/>
		<path fill-rule="evenodd" clip-rule="evenodd" fill="#838692" d="M53.173,65.772c0,0.075,0.061,0.134,0.133,0.134
			c0.078,0,0.135-0.059,0.135-0.134c0-0.074-0.057-0.134-0.135-0.134C53.233,65.638,53.173,65.698,53.173,65.772z"/>
		<path fill-rule="evenodd" clip-rule="evenodd" fill="#838692" d="M53.173,64.808c0,0.074,0.061,0.134,0.133,0.134
			c0.078,0,0.135-0.06,0.135-0.134c0-0.072-0.057-0.135-0.135-0.135C53.233,64.673,53.173,64.736,53.173,64.808z"/>
		<path fill-rule="evenodd" clip-rule="evenodd" fill="#838692" d="M53.173,64.327c0,0.074,0.061,0.134,0.133,0.134
			c0.078,0,0.135-0.06,0.135-0.134c0-0.074-0.057-0.135-0.135-0.135C53.233,64.191,53.173,64.253,53.173,64.327z"/>
	</g>
	<g>
		<path fill-rule="evenodd" clip-rule="evenodd" fill="#838692" d="M97.77,65.285c0.075,0,0.136-0.063,0.136-0.137
			c0-0.074-0.061-0.135-0.136-0.135c-0.071,0-0.135,0.061-0.135,0.135C97.635,65.223,97.698,65.285,97.77,65.285z"/>
		<path fill-rule="evenodd" clip-rule="evenodd" fill="#838692" d="M97.286,65.285c0.077,0,0.138-0.063,0.138-0.137
			c0-0.074-0.061-0.135-0.138-0.135c-0.075,0-0.132,0.061-0.132,0.135C97.154,65.223,97.211,65.285,97.286,65.285z"/>
		<circle fill-rule="evenodd" clip-rule="evenodd" fill="#838692" cx="96.806" cy="65.149" r="0.136"/>
		<circle fill-rule="evenodd" clip-rule="evenodd" fill="#838692" cx="96.324" cy="65.149" r="0.136"/>
		<circle fill-rule="evenodd" clip-rule="evenodd" fill="#838692" cx="95.843" cy="65.149" r="0.136"/>
	</g>
	<g>
		<path fill-rule="evenodd" clip-rule="evenodd" fill="#838692" d="M74.911,84.826c0.046-0.215,0.054-0.453,0.006-0.783
			c-0.269-0.027-0.484-0.246-0.484-0.533s0.237-0.533,0.532-0.533c0.296,0,0.533,0.27,0.533,0.533c0,0.262-0.149,0.428-0.357,0.504
			l0,0c0,0,0.137,0.326,0.134,0.779C75.163,84.82,75.021,84.832,74.911,84.826z"/>
		<path fill-rule="evenodd" clip-rule="evenodd" fill="#838692" d="M74.676,84.832c0.041,0.008,0.081-0.018,0.092-0.059
			c0.006-0.041-0.02-0.082-0.063-0.09c-0.04-0.012-0.08,0.016-0.092,0.057C74.607,84.785,74.634,84.822,74.676,84.832z"/>
		<circle fill-rule="evenodd" clip-rule="evenodd" fill="#838692" cx="74.427" cy="84.671" r="0.078"/>
		<path fill-rule="evenodd" clip-rule="evenodd" fill="#838692" d="M74.145,84.594c0.033,0.025,0.08,0.02,0.105-0.016
			c0.025-0.033,0.018-0.08-0.017-0.107c-0.034-0.025-0.084-0.018-0.106,0.018C74.098,84.523,74.107,84.572,74.145,84.594z"/>
		<path fill-rule="evenodd" clip-rule="evenodd" fill="#838692" d="M73.927,84.4c0.028,0.031,0.074,0.033,0.108,0.006
			c0.028-0.029,0.034-0.078,0.006-0.111c-0.028-0.029-0.08-0.033-0.108-0.004C73.897,84.318,73.896,84.369,73.927,84.4z"/>
		<path fill-rule="evenodd" clip-rule="evenodd" fill="#838692" d="M73.755,84.16c0.018,0.039,0.065,0.053,0.103,0.031
			c0.038-0.02,0.051-0.068,0.029-0.107c-0.023-0.035-0.069-0.047-0.106-0.027C73.743,84.078,73.731,84.125,73.755,84.16z"/>
		<circle fill-rule="evenodd" clip-rule="evenodd" fill="#838692" cx="73.707" cy="83.871" r="0.078"/>
		<path fill-rule="evenodd" clip-rule="evenodd" fill="#838692" d="M73.57,83.609c0.008,0.041,0.044,0.072,0.088,0.068
			c0.039-0.004,0.07-0.043,0.068-0.084c-0.007-0.045-0.042-0.072-0.087-0.07C73.6,83.529,73.567,83.568,73.57,83.609z"/>
		<path fill-rule="evenodd" clip-rule="evenodd" fill="#838692" d="M73.57,83.314c-0.003,0.043,0.029,0.08,0.069,0.086
			c0.045,0.002,0.08-0.025,0.087-0.07c0.002-0.041-0.029-0.08-0.068-0.084C73.614,83.242,73.578,83.273,73.57,83.314z"/>
		<circle fill-rule="evenodd" clip-rule="evenodd" fill="#838692" cx="73.707" cy="83.053" r="0.077"/>
		<path fill-rule="evenodd" clip-rule="evenodd" fill="#838692" d="M73.755,82.764c-0.023,0.037-0.012,0.082,0.025,0.102
			c0.037,0.023,0.083,0.008,0.106-0.025c0.021-0.037,0.009-0.086-0.029-0.105C73.82,82.709,73.772,82.725,73.755,82.764z"/>
		<path fill-rule="evenodd" clip-rule="evenodd" fill="#838692" d="M73.927,82.525c-0.031,0.029-0.029,0.08,0.006,0.107
			c0.028,0.029,0.08,0.027,0.108-0.006c0.028-0.031,0.022-0.08-0.006-0.107C74.001,82.49,73.955,82.492,73.927,82.525z"/>
		<path fill-rule="evenodd" clip-rule="evenodd" fill="#838692" d="M74.145,82.326c-0.037,0.027-0.047,0.074-0.018,0.109
			c0.022,0.033,0.072,0.043,0.106,0.018s0.042-0.072,0.017-0.107C74.225,82.313,74.178,82.305,74.145,82.326z"/>
		<path fill-rule="evenodd" clip-rule="evenodd" fill="#838692" d="M74.396,82.18c-0.04,0.02-0.057,0.063-0.04,0.105
			c0.018,0.039,0.063,0.053,0.104,0.039c0.04-0.02,0.057-0.064,0.04-0.102C74.481,82.18,74.436,82.164,74.396,82.18z"/>
		<path fill-rule="evenodd" clip-rule="evenodd" fill="#838692" d="M74.676,82.092c-0.042,0.008-0.068,0.049-0.063,0.088
			c0.012,0.045,0.052,0.07,0.092,0.061c0.043-0.008,0.068-0.047,0.061-0.088C74.757,82.109,74.717,82.082,74.676,82.092z"/>
		<circle fill-rule="evenodd" clip-rule="evenodd" fill="#838692" cx="74.965" cy="82.14" r="0.077"/>
		<path fill-rule="evenodd" clip-rule="evenodd" fill="#838692" d="M75.258,82.092c-0.043-0.012-0.083,0.018-0.092,0.061
			c-0.009,0.041,0.018,0.08,0.061,0.088c0.039,0.01,0.08-0.016,0.091-0.061C75.323,82.141,75.298,82.1,75.258,82.092z"/>
		<path fill-rule="evenodd" clip-rule="evenodd" fill="#838692" d="M75.535,82.18c-0.04-0.016-0.085,0-0.104,0.043
			c-0.014,0.037,0.003,0.082,0.04,0.102c0.04,0.014,0.086,0,0.104-0.039C75.593,82.242,75.575,82.199,75.535,82.18z"/>
		<path fill-rule="evenodd" clip-rule="evenodd" fill="#838692" d="M75.79,82.326c-0.034-0.021-0.082-0.014-0.106,0.02
			c-0.029,0.033-0.02,0.082,0.015,0.107c0.036,0.025,0.083,0.016,0.108-0.018C75.832,82.4,75.822,82.354,75.79,82.326z"/>
		<circle fill-rule="evenodd" clip-rule="evenodd" fill="#838692" cx="75.95" cy="82.576" r="0.076"/>
		<path fill-rule="evenodd" clip-rule="evenodd" fill="#838692" d="M76.179,82.764c-0.02-0.039-0.068-0.055-0.106-0.029
			c-0.034,0.02-0.048,0.068-0.027,0.105c0.022,0.033,0.068,0.049,0.105,0.025C76.188,82.846,76.198,82.801,76.179,82.764z"/>
		<path fill-rule="evenodd" clip-rule="evenodd" fill="#838692" d="M76.296,83.029c-0.01-0.041-0.056-0.063-0.093-0.049
			c-0.041,0.014-0.063,0.057-0.051,0.096c0.013,0.043,0.059,0.064,0.099,0.051S76.313,83.068,76.296,83.029z"/>
		<path fill-rule="evenodd" clip-rule="evenodd" fill="#838692" d="M76.359,83.314c-0.005-0.041-0.042-0.072-0.086-0.068
			c-0.041,0.004-0.07,0.043-0.067,0.084c0.005,0.045,0.045,0.072,0.085,0.07C76.331,83.395,76.366,83.357,76.359,83.314z"/>
		<circle fill-rule="evenodd" clip-rule="evenodd" fill="#838692" cx="76.283" cy="83.602" r="0.077"/>
		<path fill-rule="evenodd" clip-rule="evenodd" fill="#838692" d="M76.296,83.896c0.017-0.041-0.005-0.086-0.045-0.098
			c-0.04-0.016-0.086,0.008-0.099,0.047c-0.013,0.043,0.01,0.084,0.051,0.1C76.24,83.957,76.286,83.936,76.296,83.896z"/>
		<path fill-rule="evenodd" clip-rule="evenodd" fill="#838692" d="M76.179,84.16c0.02-0.035,0.01-0.082-0.026-0.104
			c-0.039-0.02-0.085-0.008-0.107,0.027c-0.021,0.039-0.007,0.088,0.027,0.107C76.11,84.213,76.159,84.199,76.179,84.16z"/>
		<circle fill-rule="evenodd" clip-rule="evenodd" fill="#838692" cx="75.95" cy="84.348" r="0.078"/>
		<path fill-rule="evenodd" clip-rule="evenodd" fill="#838692" d="M75.79,84.594c0.034-0.021,0.042-0.07,0.017-0.105
			s-0.072-0.043-0.106-0.018c-0.036,0.027-0.046,0.074-0.017,0.107C75.708,84.613,75.756,84.619,75.79,84.594z"/>
		<path fill-rule="evenodd" clip-rule="evenodd" fill="#838692" d="M75.535,84.742c0.04-0.018,0.058-0.063,0.04-0.102
			c-0.018-0.041-0.063-0.059-0.104-0.041c-0.037,0.02-0.054,0.064-0.037,0.105C75.452,84.742,75.495,84.76,75.535,84.742z"/>
	</g>
</g>
</svg>
