<?xml version="1.0" encoding="utf-8"?>
<!-- Generator: Adobe Illustrator 15.0.0, SVG Export Plug-In . SVG Version: 6.00 Build 0)  -->
<!DOCTYPE svg PUBLIC "-//W3C//DTD SVG 1.1//EN" "http://www.w3.org/Graphics/SVG/1.1/DTD/svg11.dtd">
<svg version="1.1" id="图层_1" xmlns="http://www.w3.org/2000/svg" xmlns:xlink="http://www.w3.org/1999/xlink" x="0px" y="0px"
	 width="50px" height="50px" viewBox="0 0 50 50" enable-background="new 0 0 50 50" xml:space="preserve">
<g>
	<path fill="#9B9FAC" d="M29.477,28.995h-8.81c-0.21,0-0.375-0.173-0.375-0.375c0-0.211,0.165-0.376,0.375-0.376h8.81
		c0.201,0,0.375,0.173,0.375,0.376C29.852,28.822,29.678,28.995,29.477,28.995L29.477,28.995z M29.477,25.375h-8.81
		c-0.21,0-0.375-0.172-0.375-0.375s0.165-0.376,0.375-0.376h8.81c0.201,0,0.375,0.173,0.375,0.376
		C29.852,25.21,29.678,25.375,29.477,25.375L29.477,25.375z M24.625,21.756h-3.958c-0.21,0-0.375-0.166-0.375-0.376
		s0.165-0.376,0.375-0.376h3.958c0.202,0,0.375,0.166,0.375,0.376S24.834,21.756,24.625,21.756z"/>
	<path fill="#9B9FAC" d="M30.557,31.743c-0.008,0.008-0.021,0.016-0.053,0.016H19.496c-0.022,0-0.045-0.008-0.053-0.016V18.256
		c0.008-0.007,0.022-0.015,0.053-0.015h6.639v3.236c0,0.413,0.359,0.751,0.803,0.751h3.619V31.743L30.557,31.743z M26.885,18.421
		v3.042c0.008,0.008,0.029,0.015,0.053,0.015h3.289L26.885,18.421L26.885,18.421z M31.309,21.447l-4.334-3.957h-7.479
		c-0.443,0-0.804,0.338-0.804,0.751v13.518c0,0.413,0.36,0.751,0.804,0.751h11.008c0.443,0,0.805-0.338,0.805-0.751V21.447z"/>
</g>
</svg>
