<?xml version="1.0" standalone="no"?><!DOCTYPE svg PUBLIC "-//W3C//DTD SVG 1.1//EN" "http://www.w3.org/Graphics/SVG/1.1/DTD/svg11.dtd"><svg t="1522479228432" class="icon" style="" viewBox="0 0 1024 1024" version="1.1" xmlns="http://www.w3.org/2000/svg" p-id="12655" xmlns:xlink="http://www.w3.org/1999/xlink" width="64" height="64"><defs><style type="text/css"></style></defs><path d="M511.666386 64.672544c-246.535449 0-446.391147 199.856497-446.391147 446.391147 0 246.535449 199.855698 446.391946 446.391147 446.391946s446.391147-199.856497 446.391147-446.391946C958.057333 264.529041 758.202635 64.672544 511.666386 64.672544M511.666386 901.55134c-215.659983 0-390.487849-174.826867-390.487849-390.487849 0-215.659983 174.827867-390.48705 390.487849-390.48705s390.487849 174.826867 390.487849 390.48705C902.154036 726.724473 727.326369 901.55134 511.666386 901.55134M424.771701 416.363098c0 0 14.002107-86.168378 100.170484-76.473751 86.167379 9.693628 66.780123 74.320011 58.162366 87.244448-8.615958 21.541995-88.322118 73.243141-101.246555 104.478963-12.925237 31.235822-11.848367 89.399987-11.848367 89.399987l77.55162 0c0 0-4.308479-61.394774 38.77571-87.245248 43.084189-25.850473 116.326331-101.247354 84.013839-173.413626-51.700947-82.936769-102.324224-91.553727-168.027477-89.398987-65.703253 2.15374-134.637915 34.467231-157.25698 134.637915C398.921227 413.131489 424.771701 416.363098 424.771701 416.363098M468.93276 650.093828l80.78223 0L549.714989 738.404354l-80.78223 0L468.93276 650.093828 468.93276 650.093828z" p-id="12656" fill="#a7dcef"></path></svg>