<?xml version="1.0" encoding="utf-8"?>
<!-- Generator: Adobe Illustrator 15.0.0, SVG Export Plug-In . SVG Version: 6.00 Build 0)  -->
<!DOCTYPE svg PUBLIC "-//W3C//DTD SVG 1.1//EN" "http://www.w3.org/Graphics/SVG/1.1/DTD/svg11.dtd">
<svg version="1.1" id="图层_1" xmlns="http://www.w3.org/2000/svg" xmlns:xlink="http://www.w3.org/1999/xlink" x="0px" y="0px"
	 width="43px" height="43px" viewBox="0 0 43 43" enable-background="new 0 0 43 43" xml:space="preserve">
<g>
	<path fill="#9B9FAC" d="M31.209,34.957c0.088,0.653,0.688,1.11,1.341,1.024c0.653-0.088,1.109-0.688,1.024-1.342
		c-0.42-3.051-1.937-5.716-4.114-7.613c-1.107-0.966-2.388-1.736-3.781-2.259c1.494-1.271,2.354-3.116,2.354-5.082
		c0-3.68-2.992-6.67-6.67-6.67c-1.842,0-3.51,0.748-4.716,1.954c-1.207,1.206-1.954,2.875-1.954,4.716s0.748,3.51,1.954,4.716
		c0.126,0.127,0.258,0.248,0.395,0.365c-1.396,0.522-2.678,1.292-3.786,2.259c-2.178,1.897-3.693,4.563-4.113,7.613
		c-0.086,0.654,0.371,1.254,1.023,1.342c0.653,0.086,1.254-0.371,1.341-1.024c0.338-2.455,1.561-4.604,3.317-6.136
		c1.751-1.526,4.045-2.442,6.532-2.442c2.488,0,4.782,0.916,6.533,2.442C29.647,30.353,30.871,32.502,31.209,34.957L31.209,34.957z
		 M25.64,19.686c0,2.367-1.908,4.276-4.277,4.276c-2.361,0-4.277-1.914-4.277-4.276c0-2.36,1.917-4.277,4.277-4.277
		C23.727,15.409,25.64,17.321,25.64,19.686z"/>
	<path fill="#9B9FAC" d="M40.453,21.204c0.472,0.459,1.229,0.448,1.688-0.023c0.458-0.472,0.447-1.23-0.023-1.688l-3.719-3.604
		c-0.039-0.042-0.081-0.083-0.125-0.121L22.332,0.323c-0.228-0.221-1.075-0.613-1.691,0.023L4.722,15.774
		c-0.041,0.034-0.078,0.069-0.113,0.109l-3.726,3.61c-0.471,0.458-0.482,1.215-0.023,1.688c0.458,0.471,1.215,0.482,1.688,0.023
		L4.3,19.507l0.003,18.177c0,0.708,0.141,1.402,0.404,2.035c0.266,0.643,0.657,1.23,1.151,1.726c0.519,0.541,1.324,0.995,1.801,1.18
		C8.136,42.809,8.944,43,9.615,43h23.771c0.701,0,1.393-0.144,2.033-0.41c0.642-0.266,1.23-0.653,1.727-1.15
		c0.98-0.979,1.555-2.378,1.555-3.756V19.508L40.453,21.204L40.453,21.204z M6.691,17.189L21.5,2.841l14.81,14.348v20.495
		c0,0.37-0.068,0.732-0.198,1.063c-0.168,0.378-0.351,0.694-0.657,1.001c-0.277,0.276-0.602,0.492-0.951,0.638
		c-0.345,0.144-0.729,0.221-1.116,0.221H9.615c-0.371,0-0.731-0.068-1.062-0.197c-0.35-0.129-0.689-0.354-0.958-0.611l-0.044-0.046
		c-0.276-0.277-0.494-0.603-0.638-0.949c-0.147-0.354-0.226-0.736-0.226-1.119L6.691,17.189z"/>
</g>
</svg>
