<?xml version="1.0" encoding="utf-8"?>
<!-- Generator: Adobe Illustrator 15.0.0, SVG Export Plug-In . SVG Version: 6.00 Build 0)  -->
<!DOCTYPE svg PUBLIC "-//W3C//DTD SVG 1.1//EN" "http://www.w3.org/Graphics/SVG/1.1/DTD/svg11.dtd">
<svg version="1.1" id="图层_1" xmlns="http://www.w3.org/2000/svg" xmlns:xlink="http://www.w3.org/1999/xlink" x="0px" y="0px"
	 width="16px" height="16px" viewBox="0 0 16 16" enable-background="new 0 0 16 16" xml:space="preserve">
<path fill="#FFFFFF" d="M6.85,14.851C6.85,15.484,7.365,16,7.999,16c0.638,0,1.153-0.516,1.153-1.149V9.151h5.695
	c0.638,0,1.153-0.515,1.153-1.151c0-0.634-0.516-1.149-1.153-1.149H9.152V1.149C9.152,0.515,8.637,0,7.999,0
	C7.365,0,6.85,0.515,6.85,1.149v5.701H1.15C0.516,6.851-0.001,7.366-0.001,8c0,0.637,0.517,1.151,1.151,1.151H6.85V14.851z"/>
</svg>
