<?xml version="1.0" encoding="utf-8"?>
<!-- Generator: Adobe Illustrator 15.0.0, SVG Export Plug-In . SVG Version: 6.00 Build 0)  -->
<!DOCTYPE svg PUBLIC "-//W3C//DTD SVG 1.1//EN" "http://www.w3.org/Graphics/SVG/1.1/DTD/svg11.dtd">
<svg version="1.1" id="图层_1" xmlns="http://www.w3.org/2000/svg" xmlns:xlink="http://www.w3.org/1999/xlink" x="0px" y="0px"
	 width="50px" height="50px" viewBox="0 0 50 50" enable-background="new 0 0 50 50" xml:space="preserve">
<path fill="#6F7378" d="M25,0C11.193,0,0,11.193,0,25C0,38.807,11.193,50,25,50c13.807,0,25-11.193,25-25C50,11.193,38.807,0,25,0z
	 M25,48.449C12.049,48.449,1.55,37.951,1.55,25C1.55,12.05,12.049,1.551,25,1.551c12.952,0,23.45,10.499,23.45,23.449
	C48.449,37.951,37.951,48.449,25,48.449z M39.816,23.024H26.975v-12.84c0-1.091-0.885-1.975-1.975-1.975
	c-1.091,0-1.975,0.884-1.975,1.975v12.84h-12.84c-1.093,0-1.977,0.885-1.977,1.976s0.884,1.975,1.977,1.975h12.84v12.841
	c0,1.093,0.884,1.977,1.975,1.977c1.09,0,1.975-0.884,1.975-1.977V26.975h12.842c1.092,0,1.975-0.884,1.975-1.975
	S40.908,23.024,39.816,23.024z"/>
</svg>
