<?xml version="1.0" encoding="utf-8"?>
<!-- Generator: Adobe Illustrator 15.0.0, SVG Export Plug-In . SVG Version: 6.00 Build 0)  -->
<!DOCTYPE svg PUBLIC "-//W3C//DTD SVG 1.1//EN" "http://www.w3.org/Graphics/SVG/1.1/DTD/svg11.dtd">
<svg version="1.1" id="图层_1" xmlns="http://www.w3.org/2000/svg" xmlns:xlink="http://www.w3.org/1999/xlink" x="0px" y="0px"
	 width="39px" height="30px" viewBox="0 0 39 30" enable-background="new 0 0 39 30" xml:space="preserve">
<g>
	<path d="M28.251,7.163c-0.773-0.598-1.884-0.456-2.486,0.313c-0.598,0.769-0.46,1.884,0.313,2.486
		c0.017,0.008,6.015,4.59-0.105,10.169c-0.721,0.655-0.773,1.774-0.118,2.499c0.659,0.72,1.778,0.772,2.498,0.113
		C37.606,14.316,28.275,7.183,28.251,7.163z"/>
	<path d="M31.979,2.231c-0.765-0.603-1.88-0.468-2.482,0.301c-0.606,0.765-0.472,1.88,0.297,2.482
		c0.033,0.024,11.919,9.107-0.098,20.053c-0.72,0.654-0.772,1.773-0.118,2.498c0.66,0.721,1.778,0.773,2.499,0.118
		C47.222,13.881,32.023,2.268,31.979,2.231z"/>
	<path fill-rule="evenodd" clip-rule="evenodd" d="M4.225,6.967h7.695l10.309-6.966v29.998l-11.03-6.967H4.225
		c-2.21,0-4.017-1.807-4.017-4.017v-8.032C0.208,8.774,2.015,6.967,4.225,6.967z"/>
</g>
</svg>
