<?xml version="1.0" encoding="utf-8"?>
<!-- Generator: Adobe Illustrator 15.0.0, SVG Export Plug-In . SVG Version: 6.00 Build 0)  -->
<!DOCTYPE svg PUBLIC "-//W3C//DTD SVG 1.1//EN" "http://www.w3.org/Graphics/SVG/1.1/DTD/svg11.dtd">
<svg version="1.1" id="图层_1" xmlns="http://www.w3.org/2000/svg" xmlns:xlink="http://www.w3.org/1999/xlink" x="0px" y="0px"
	 width="30px" height="30px" viewBox="0 0 30 30" enable-background="new 0 0 30 30" xml:space="preserve">
<path fill="#9B9FAC" d="M19.947,25.107c-1.358,0-3.113-0.908-4.346-1.67c-1.651-1.018-3.429-2.43-5.008-3.971l-0.005-0.006
	l-0.501-0.502c-1.539-1.582-2.945-3.363-3.963-5.019c-0.759-1.236-1.665-2.993-1.665-4.356c0-1.457,1.041-3.006,1.487-3.603
	c0.348-0.466,1.568-1.988,2.604-1.988c0.425,0,0.882,0.279,1.485,0.905c0.532,0.553,1.043,1.24,1.378,1.72
	c0.449,0.645,0.865,1.318,1.171,1.9c0.495,0.938,0.551,1.341,0.551,1.563c0,0.445-0.232,0.833-0.691,1.149
	c-0.303,0.211-0.666,0.367-1.016,0.521c-0.236,0.103-0.615,0.266-0.759,0.381c0.051,0.214,0.271,0.729,0.864,1.603
	c0.554,0.814,1.27,1.698,1.916,2.362c0.664,0.648,1.543,1.365,2.355,1.92c0.872,0.596,1.387,0.816,1.601,0.865
	c0.115-0.145,0.277-0.521,0.381-0.758c0.152-0.354,0.308-0.717,0.517-1.02c0.317-0.461,0.704-0.693,1.149-0.693
	c0.221,0,0.622,0.057,1.561,0.553c0.577,0.307,1.251,0.725,1.894,1.176c0.479,0.334,1.165,0.846,1.717,1.381
	c0.624,0.602,0.902,1.061,0.902,1.488c0,1.037-1.519,2.26-1.984,2.609C22.946,24.064,21.403,25.107,19.947,25.107L19.947,25.107
	L19.947,25.107L19.947,25.107z M11.465,18.576c1.514,1.479,3.214,2.828,4.79,3.801c1.525,0.943,2.873,1.482,3.692,1.482
	c0.732,0,1.775-0.445,2.791-1.197c0.445-0.328,0.849-0.695,1.141-1.029c0.271-0.314,0.371-0.521,0.397-0.604
	c-0.106-0.229-0.731-0.938-2.191-1.947c-0.573-0.396-1.166-0.76-1.667-1.023c-0.632-0.332-0.895-0.391-0.956-0.398
	c-0.021,0.014-0.091,0.072-0.196,0.246c-0.116,0.197-0.228,0.459-0.336,0.711c-0.136,0.311-0.274,0.629-0.442,0.889
	c-0.277,0.42-0.616,0.637-1.008,0.637c-0.007,0-0.015,0-0.021,0c-0.191-0.006-0.772-0.02-2.351-1.098
	c-0.872-0.594-1.818-1.363-2.532-2.061l-0.011-0.014c-0.695-0.713-1.464-1.661-2.058-2.535c-1.075-1.582-1.087-2.165-1.092-2.355
	c-0.009-0.401,0.203-0.747,0.626-1.028c0.26-0.172,0.582-0.313,0.894-0.446c0.251-0.108,0.511-0.222,0.707-0.339
	c0.175-0.104,0.233-0.174,0.249-0.197c-0.01-0.061-0.067-0.324-0.399-0.956c-0.264-0.504-0.627-1.098-1.022-1.671
	C9.463,5.979,8.755,5.351,8.53,5.246C8.447,5.272,8.241,5.372,7.926,5.644c-0.335,0.291-0.7,0.698-1.028,1.145
	C6.149,7.805,5.704,8.85,5.704,9.583c0,0.822,0.54,2.171,1.48,3.703c0.97,1.577,2.316,3.282,3.792,4.799L11.465,18.576
	L11.465,18.576L11.465,18.576L11.465,18.576z M18.868,14.101c-0.217,0-0.41-0.153-0.448-0.376c-0.112-0.633-0.478-1.184-1.032-1.552
	c-0.562-0.369-1.247-0.509-1.934-0.386c-0.248,0.042-0.483-0.123-0.527-0.373c-0.043-0.248,0.122-0.485,0.37-0.528
	c0.916-0.162,1.836,0.025,2.594,0.526c0.764,0.506,1.271,1.271,1.426,2.155c0.045,0.249-0.12,0.484-0.368,0.528
	C18.92,14.101,18.894,14.101,18.868,14.101L18.868,14.101L18.868,14.101z M21.612,12.924c-0.218,0-0.409-0.157-0.449-0.378
	c-0.217-1.231-0.926-2.3-1.998-3.008c-1.077-0.714-2.396-0.98-3.711-0.748c-0.248,0.044-0.482-0.121-0.527-0.369
	c-0.043-0.249,0.122-0.486,0.37-0.529c1.544-0.274,3.097,0.04,4.372,0.885c1.281,0.848,2.133,2.13,2.393,3.61
	c0.043,0.249-0.123,0.486-0.371,0.528C21.665,12.922,21.639,12.924,21.612,12.924L21.612,12.924L21.612,12.924z M25.276,12.583
	c-0.217,0-0.409-0.154-0.449-0.378c-0.368-2.1-1.578-3.921-3.406-5.13c-1.834-1.214-4.071-1.665-6.302-1.271
	c-0.248,0.044-0.485-0.122-0.528-0.371c-0.044-0.248,0.121-0.486,0.369-0.529c2.46-0.436,4.933,0.065,6.964,1.407
	c2.038,1.35,3.389,3.385,3.802,5.735c0.043,0.249-0.122,0.484-0.37,0.529C25.329,12.581,25.302,12.583,25.276,12.583L25.276,12.583
	L25.276,12.583z"/>
</svg>
