<?xml version="1.0" encoding="utf-8"?>
<!-- Generator: Adobe Illustrator 15.0.0, SVG Export Plug-In . SVG Version: 6.00 Build 0)  -->
<!DOCTYPE svg PUBLIC "-//W3C//DTD SVG 1.1//EN" "http://www.w3.org/Graphics/SVG/1.1/DTD/svg11.dtd">
<svg version="1.1" id="图层_1" xmlns="http://www.w3.org/2000/svg" xmlns:xlink="http://www.w3.org/1999/xlink" x="0px" y="0px"
	 width="43px" height="43px" viewBox="0 0 43 43" enable-background="new 0 0 43 43" xml:space="preserve">
<g>
	<path fill="#9B9FAC" d="M12.278,24.135c0-0.603-0.489-1.09-1.091-1.09c-0.604,0-1.092,0.487-1.092,1.09v9.616
		c0,0.641,0.131,1.27,0.374,1.854c0.243,0.586,0.598,1.122,1.05,1.573l0.062,0.057c0.486,0.471,0.965,0.753,1.581,1.021
		c0.565,0.223,1.172,0.341,1.786,0.341h5.584c0.099,0.494,0.266,0.969,0.492,1.414c0.382,0.751,0.947,1.42,1.659,1.938
		c0.686,0.499,1.614,0.904,2.459,0.999c0.8,0.113,1.765,0.044,2.52-0.237c1.834-0.586,9.354-2.662,10.454-3.366
		c0.967-0.563,1.731-1.375,2.237-2.324l0.042-0.09c0.473-0.925,0.701-1.974,0.634-3.042V4.983c0.118-0.485,0.129-0.987,0.034-1.463
		c-0.104-0.536-0.338-1.047-0.693-1.487c-0.117-0.145-0.248-0.282-0.39-0.408C39.946,1.58,39.91,1.539,39.869,1.5
		c-0.488-0.489-1.071-0.871-1.703-1.126c-0.623-0.251-1.301-0.379-1.989-0.37V0h-0.02H14.946c-0.64,0-1.272,0.13-1.856,0.372
		c-0.585,0.243-1.123,0.598-1.575,1.049c-0.45,0.45-0.806,0.987-1.049,1.576c-0.243,0.586-0.371,1.215-0.371,1.85v8.833
		c0,0.602,0.489,1.091,1.092,1.091c0.603,0,1.091-0.489,1.091-1.091V4.846c0-0.36,0.069-0.707,0.199-1.022
		c0.129-0.312,0.327-0.606,0.582-0.861c0.252-0.252,0.549-0.449,0.867-0.581c0.316-0.131,0.665-0.202,1.02-0.202h17.997
		l-7.395,2.358c-1.526,0.487-2.809,1.439-3.707,2.665c-0.896,1.227-1.413,2.735-1.412,4.333h-0.005v24.879h-5.479
		c-0.339,0-0.668-0.063-0.97-0.181c-0.321-0.117-0.628-0.322-0.874-0.558c-0.276-0.292-0.465-0.53-0.622-0.909
		c-0.131-0.315-0.202-0.662-0.202-1.018V24.135L12.278,24.135z M22.608,37.548l0.001-0.042l-0.001-0.043V11.537h-0.004
		c0-1.121,0.364-2.184,0.995-3.048c0.634-0.866,1.535-1.538,2.605-1.879L37.712,2.94c0.144-0.044,0.348,0.013,0.479,0.061
		c0.214,0.099,0.32,0.199,0.479,0.395c0.128,0.157,0.214,0.345,0.251,0.541c0.035,0.179,0.03,0.369-0.017,0.551
		c-0.039,0.112-0.06,0.232-0.06,0.357v29.022V33.9l0.002,0.081h0.002c0.049,0.687-0.09,1.361-0.385,1.946l-0.041,0.071
		c-0.309,0.579-0.773,1.079-1.353,1.432l-10.072,3.21c-0.587,0.187-1.285,0.205-1.617,0.145c-0.503-0.091-0.996-0.283-1.421-0.593
		c-0.42-0.304-0.759-0.709-0.993-1.17C22.738,38.573,22.61,38.067,22.608,37.548z"/>
	<path fill="#9B9FAC" d="M1.51,19.958l5.324,5.254c0.428,0.421,1.119,0.414,1.54-0.014s0.416-1.117-0.013-1.538l-3.49-3.442h12.896
		c0.603,0,1.092-0.489,1.092-1.092c0-0.602-0.489-1.089-1.092-1.089H4.87l3.49-3.445c0.428-0.42,0.434-1.11,0.013-1.538
		c-0.421-0.427-1.111-0.433-1.54-0.013L1.51,18.297c-0.236,0.2-0.385,0.497-0.385,0.829S1.274,19.758,1.51,19.958z"/>
</g>
</svg>
