<?xml version="1.0" encoding="utf-8"?>
<!-- Generator: Adobe Illustrator 15.0.0, SVG Export Plug-In . SVG Version: 6.00 Build 0)  -->
<!DOCTYPE svg PUBLIC "-//W3C//DTD SVG 1.1//EN" "http://www.w3.org/Graphics/SVG/1.1/DTD/svg11.dtd">
<svg version="1.1" id="图层_1" xmlns="http://www.w3.org/2000/svg" xmlns:xlink="http://www.w3.org/1999/xlink" x="0px" y="0px"
	 width="200px" height="200px" viewBox="0 0 200 200" enable-background="new 0 0 200 200" xml:space="preserve">
<path fill-rule="evenodd" clip-rule="evenodd" fill="none" stroke="#DCDDDD" stroke-width="2.2677" stroke-miterlimit="22.9256" d="
	M22.747,137.805v2.461c0,0.453,0.368,0.82,0.82,0.82h77.096h77.097c0.451,0,0.82-0.368,0.82-0.82
	c0-41.693-23.32-79.352-66.216-87.588C61.28,44.183,23.224,89.535,22.747,137.805z"/>
<path fill-rule="evenodd" clip-rule="evenodd" fill="none" stroke="#DCDDDD" stroke-width="2.2677" stroke-linejoin="bevel" stroke-miterlimit="22.9256" d="
	M27.258,141.133h146.81l-0.927,4.588c-0.231,1.148-1.24,1.973-2.411,1.973H30.596c-1.171,0-2.179-0.824-2.413-1.973L27.258,141.133z
	 M27.258,141.133h146.81"/>
<path fill-rule="evenodd" clip-rule="evenodd" fill="none" stroke="#DCDDDD" stroke-width="1.4173" stroke-miterlimit="22.9256" d="
	M100.664,113.615c20.676,0,37.541-12.767,37.541-28.419s-16.864-28.418-37.541-28.418c-20.677,0-37.541,12.766-37.541,28.418
	S79.987,113.615,100.664,113.615z"/>
<ellipse fill-rule="evenodd" clip-rule="evenodd" fill="none" stroke="#DCDDDD" stroke-width="0.2835" stroke-miterlimit="22.9256" cx="100.422" cy="53.793" rx="1.348" ry="0.432"/>
<path fill-rule="evenodd" clip-rule="evenodd" fill="none" stroke="#DCDDDD" stroke-width="1.4173" stroke-miterlimit="22.9256" d="
	M46.537,127.938c2.74-6.7,4.478-21.603-3.257-24.382c-7.188-2.341-12.957,10.078-14.163,16.15
	c-0.908,5.283-1.022,14.983,4.766,17.675C39.656,139.875,44.577,132.36,46.537,127.938z"/>
<path fill-rule="evenodd" clip-rule="evenodd" fill="none" stroke="#DCDDDD" stroke-width="0.8504" stroke-linecap="round" stroke-linejoin="bevel" stroke-miterlimit="22.9256" d="
	M48.635,111.926l-0.12-0.381c-0.929-2.718-2.586-5.519-5.514-6.135l-0.134-0.024c-6.586-1.009-9.879,8.554-10.691,13.597
	c-0.397,3.004-0.39,5.557,0.188,8.539c1.035,4.688,4.178,9.603,9.05,7.676c0.213-0.089,0.418-0.186,0.623-0.292"/>
<path fill-rule="evenodd" clip-rule="evenodd" fill="none" stroke="#DCDDDD" stroke-width="1.4173" stroke-miterlimit="22.9256" d="
	M154.789,127.938c-2.74-6.7-4.479-21.603,3.257-24.382c7.188-2.341,12.957,10.078,14.162,16.15
	c0.909,5.283,1.022,14.983-4.766,17.675C161.669,139.875,156.748,132.36,154.789,127.938z"/>
<path fill-rule="evenodd" clip-rule="evenodd" fill="none" stroke="#DCDDDD" stroke-width="0.8504" stroke-linecap="round" stroke-linejoin="bevel" stroke-miterlimit="22.9256" d="
	M152.69,111.926l0.12-0.381c0.93-2.718,2.586-5.519,5.515-6.135l0.134-0.024c6.586-1.009,9.879,8.554,10.69,13.597
	c0.397,3.004,0.391,5.557-0.188,8.539c-1.035,4.688-4.178,9.603-9.05,7.676c-0.213-0.089-0.418-0.186-0.623-0.292"/>
<path fill-rule="evenodd" clip-rule="evenodd" fill="#DCDDDD" stroke="#EEEEEE" stroke-width="2.8346" stroke-miterlimit="22.9256" d="
	M55.295,35.03L55.295,35.03c1.272-0.86,3.033-0.537,3.915,0.72l88.06,125.392c0.882,1.257,0.563,2.987-0.707,3.848h-0.001
	c-1.271,0.86-3.032,0.536-3.914-0.72L54.588,38.877C53.706,37.621,54.024,35.89,55.295,35.03z"/>
</svg>
