<?xml version="1.0" encoding="utf-8"?>
<!-- Generator: Adobe Illustrator 15.0.0, SVG Export Plug-In . SVG Version: 6.00 Build 0)  -->
<!DOCTYPE svg PUBLIC "-//W3C//DTD SVG 1.1//EN" "http://www.w3.org/Graphics/SVG/1.1/DTD/svg11.dtd">
<svg version="1.1" id="图层_1" xmlns="http://www.w3.org/2000/svg" xmlns:xlink="http://www.w3.org/1999/xlink" x="0px" y="0px"
	 width="30px" height="30px" viewBox="0 0 30 30" enable-background="new 0 0 30 30" xml:space="preserve">
<g>
	<path fill="#DCDDDD" d="M13.902,26.969v0.1h5.659h5.659c-0.016-1.5-0.472-2.92-1.332-4.023c-0.81-1.037-1.979-1.795-3.479-2.074
		c-0.285-0.047-0.564-0.07-0.836-0.072c-1.47-0.016-2.755,0.572-3.728,1.506c-0.976,0.939-1.64,2.227-1.861,3.607
		C13.934,26.328,13.905,26.648,13.902,26.969L13.902,26.969L13.902,26.969z M13.63,27.146v-0.178l0,0
		c0.004-0.338,0.032-0.672,0.086-1c0.231-1.439,0.923-2.781,1.941-3.76c1.021-0.982,2.372-1.598,3.918-1.582
		c0.287,0.002,0.58,0.027,0.878,0.076h0.004c1.57,0.291,2.796,1.086,3.646,2.174c0.914,1.172,1.391,2.682,1.391,4.27
		c0,0.055-0.022,0.104-0.06,0.141c-0.035,0.033-0.085,0.055-0.138,0.055h-5.734h-5.734c-0.053,0-0.103-0.021-0.138-0.055
		C13.652,27.25,13.63,27.201,13.63,27.146z"/>
	<path fill="#DCDDDD" d="M25.155,27.23c0.015-0.074-0.032-0.146-0.105-0.162c-0.074-0.014-0.146,0.033-0.161,0.105l-0.069,0.332
		c-0.001,0.008-0.007,0.016-0.015,0.021l0,0l-0.004,0.004c-0.008,0.006-0.018,0.008-0.027,0.008H14.35
		c-0.012,0-0.023-0.004-0.031-0.01v-0.002l0,0l0,0l-0.003-0.002c-0.005-0.006-0.01-0.012-0.012-0.02l-0.069-0.332
		c-0.015-0.072-0.087-0.119-0.16-0.105c-0.073,0.016-0.121,0.088-0.106,0.162l0.069,0.33c0.015,0.07,0.053,0.131,0.104,0.174
		l0.008,0.008l0.084-0.107l-0.084,0.105c0.056,0.045,0.126,0.07,0.2,0.07h10.424c0.068,0,0.133-0.021,0.187-0.059
		c0.005-0.004,0.01-0.006,0.014-0.01l-0.084-0.107l0.084,0.105c0.056-0.043,0.097-0.105,0.112-0.18L25.155,27.23z"/>
	<path fill="#DCDDDD" d="M19.562,25.264c-0.778,0-1.485-0.232-1.997-0.607c-0.514-0.377-0.833-0.9-0.833-1.477
		c0-0.578,0.319-1.102,0.833-1.479c0.512-0.375,1.219-0.607,1.997-0.607c0.779,0,1.486,0.232,1.997,0.607
		c0.515,0.377,0.833,0.9,0.833,1.479c0,0.576-0.318,1.1-0.833,1.477C21.048,25.031,20.341,25.264,19.562,25.264L19.562,25.264z
		 M17.609,24.596c0.498,0.367,1.189,0.594,1.952,0.594c0.764,0,1.454-0.227,1.952-0.594c0.496-0.363,0.803-0.863,0.803-1.416
		s-0.307-1.055-0.803-1.418c-0.498-0.365-1.188-0.592-1.952-0.592c-0.763,0-1.454,0.227-1.952,0.592
		c-0.496,0.363-0.803,0.865-0.803,1.418S17.113,24.232,17.609,24.596z"/>
	<path fill="#DCDDDD" d="M15.474,26.078c0.012-0.029,0.024-0.063,0.035-0.094l0,0c0.086-0.246,0.148-0.594,0.128-0.906
		c-0.021-0.299-0.115-0.561-0.338-0.654h-0.001c-0.01-0.004-0.019-0.008-0.024-0.01l0,0c-0.015-0.006-0.028-0.01-0.04-0.012
		c-0.196-0.039-0.38,0.09-0.531,0.277c-0.161,0.201-0.284,0.467-0.353,0.686c-0.019,0.057-0.033,0.111-0.043,0.158l0,0
		c-0.037,0.215-0.057,0.535,0.017,0.799c0.05,0.178,0.142,0.328,0.298,0.4c0.15,0.063,0.294,0.02,0.42-0.07l0,0
		C15.236,26.51,15.391,26.258,15.474,26.078L15.474,26.078z M15.637,26.029c-0.012,0.035-0.025,0.07-0.039,0.102v0.002
		c-0.09,0.195-0.259,0.473-0.477,0.629l0,0c-0.162,0.117-0.351,0.17-0.553,0.086h-0.002c-0.2-0.09-0.314-0.275-0.374-0.488
		c-0.08-0.287-0.061-0.631-0.02-0.859l0.001-0.002c0.011-0.055,0.026-0.113,0.046-0.174c0.072-0.23,0.204-0.516,0.377-0.729
		c0.182-0.227,0.408-0.379,0.664-0.326c0.019,0.004,0.036,0.008,0.054,0.014l0.002,0.002c0.014,0.004,0.025,0.01,0.035,0.012v0.002
		c0.28,0.117,0.398,0.426,0.421,0.77C15.794,25.4,15.729,25.768,15.637,26.029L15.637,26.029z"/>
	<path fill="#DCDDDD" d="M23.525,26.131c-0.014-0.031-0.027-0.066-0.039-0.102c-0.091-0.262-0.157-0.629-0.135-0.961
		c0.022-0.344,0.141-0.652,0.42-0.77l0,0c0.012-0.006,0.024-0.01,0.036-0.016h0.002c0.017-0.006,0.034-0.01,0.053-0.014
		c0.256-0.053,0.483,0.1,0.665,0.326c0.172,0.213,0.304,0.498,0.376,0.729c0.021,0.061,0.035,0.119,0.046,0.174L24.95,25.5
		c0.041,0.229,0.061,0.572-0.02,0.859c-0.059,0.213-0.174,0.398-0.374,0.488h-0.001c-0.203,0.086-0.391,0.031-0.553-0.086
		c-0.218-0.158-0.388-0.434-0.477-0.629L23.525,26.131L23.525,26.131z M23.614,25.984c0.012,0.033,0.023,0.064,0.036,0.094
		c0.082,0.18,0.237,0.434,0.432,0.574c0.126,0.09,0.27,0.133,0.42,0.07c0.157-0.072,0.248-0.223,0.298-0.4
		c0.073-0.264,0.055-0.584,0.017-0.799l0,0c-0.01-0.047-0.024-0.102-0.043-0.158c-0.068-0.219-0.191-0.484-0.353-0.686
		c-0.151-0.188-0.335-0.316-0.531-0.277c-0.012,0.002-0.024,0.006-0.04,0.012c-0.008,0.002-0.016,0.006-0.024,0.01l0,0
		c-0.224,0.094-0.318,0.355-0.338,0.654C23.466,25.391,23.529,25.738,23.614,25.984z"/>
	<g>
		<path fill="#DCDDDD" d="M23.399,24.941c-0.007,0.018,0.003,0.037,0.021,0.043c0.018,0.006,0.037-0.004,0.043-0.023l0.009-0.027
			c0.037-0.104,0.09-0.209,0.164-0.289c0.059-0.064,0.132-0.111,0.221-0.129l0.008-0.002l0,0c0.187-0.027,0.336,0.064,0.452,0.207
			c0.172,0.213,0.271,0.533,0.305,0.744c0.015,0.105,0.022,0.205,0.02,0.303c-0.001,0.098-0.012,0.195-0.033,0.301l0,0
			c-0.011,0.051-0.027,0.104-0.047,0.154h-0.001c-0.046,0.123-0.115,0.238-0.204,0.313c-0.085,0.072-0.19,0.107-0.313,0.08
			c-0.02-0.004-0.04-0.012-0.063-0.02l0,0l-0.021-0.01l-0.023-0.01c-0.017-0.008-0.037,0-0.045,0.016
			c-0.008,0.018-0.001,0.037,0.016,0.045l0.023,0.012h0.001l0.023,0.01l0.002,0.002c0.023,0.008,0.047,0.016,0.07,0.021l0,0
			c0.146,0.033,0.271-0.01,0.373-0.096c0.099-0.082,0.174-0.205,0.225-0.338l0,0c0.021-0.055,0.037-0.111,0.05-0.166h0.001
			c0.021-0.109,0.032-0.211,0.034-0.314c0.002-0.102-0.006-0.203-0.021-0.313v-0.002c-0.036-0.217-0.139-0.553-0.319-0.775
			c-0.13-0.16-0.3-0.264-0.515-0.23h-0.001l-0.01,0.002h-0.001c-0.104,0.021-0.189,0.076-0.257,0.148
			c-0.082,0.088-0.139,0.203-0.179,0.314v0.002L23.399,24.941L23.399,24.941z M24.622,25.465L24.622,25.465L24.622,25.465z"/>
	</g>
	<g>
		<path fill="#DCDDDD" d="M15.703,24.941c0.005,0.018-0.005,0.037-0.022,0.043s-0.037-0.004-0.043-0.023l-0.009-0.027
			c-0.037-0.104-0.09-0.209-0.164-0.289c-0.059-0.064-0.131-0.111-0.221-0.129l-0.008-0.002l0,0
			c-0.187-0.027-0.336,0.064-0.452,0.207c-0.172,0.213-0.27,0.533-0.305,0.744c-0.015,0.105-0.021,0.205-0.02,0.303
			c0.001,0.098,0.013,0.195,0.033,0.301l0,0c0.012,0.051,0.027,0.104,0.047,0.154l0,0c0.048,0.123,0.116,0.238,0.205,0.313
			c0.086,0.072,0.191,0.107,0.313,0.08c0.021-0.004,0.04-0.012,0.063-0.02l0,0l0.021-0.01l0.022-0.01
			c0.017-0.008,0.037,0,0.045,0.016c0.008,0.018,0.001,0.037-0.016,0.045l-0.023,0.012H15.17l-0.023,0.01l-0.002,0.002
			c-0.023,0.008-0.047,0.016-0.07,0.021l0,0c-0.146,0.033-0.271-0.01-0.372-0.096c-0.1-0.082-0.174-0.205-0.226-0.338l0,0
			c-0.021-0.055-0.037-0.111-0.05-0.166l0,0c-0.022-0.109-0.033-0.211-0.035-0.314c-0.002-0.102,0.006-0.203,0.021-0.313v-0.002
			c0.036-0.217,0.139-0.553,0.319-0.775c0.13-0.16,0.3-0.264,0.515-0.23h0.001l0.01,0.002h0.001
			c0.104,0.021,0.189,0.076,0.257,0.148c0.082,0.088,0.139,0.203,0.179,0.314v0.002L15.703,24.941L15.703,24.941z M14.479,25.465
			L14.479,25.465L14.479,25.465z"/>
	</g>
	<g>
		<g>
			<path fill="#DCDDDD" d="M4.7,25.639c0,0.1-0.047,0.17-0.114,0.215c-0.085,0.057-0.203,0.078-0.296,0.078H2.874
				c-0.088,0-0.184-0.041-0.261-0.092c-0.087-0.061-0.15-0.139-0.15-0.201v-0.553c0-0.096,0.067-0.172,0.161-0.229h0.002
				c0.109-0.063,0.257-0.098,0.371-0.1l0,0h0.001H3h0.582h0.583h0.004C4.287,24.76,4.44,24.785,4.55,24.85l0,0
				C4.639,24.9,4.7,24.977,4.7,25.086V25.639L4.7,25.639z M4.545,25.793c0.048-0.033,0.082-0.082,0.082-0.154v-0.553
				c0-0.078-0.046-0.135-0.114-0.174l0.02-0.031l-0.02,0.031c-0.097-0.059-0.236-0.08-0.346-0.08H4.165H3.582H2.998l0,0l0,0
				c-0.103,0-0.237,0.031-0.335,0.088L2.66,24.922c-0.072,0.041-0.124,0.098-0.124,0.164v0.553c0,0.039,0.05,0.094,0.118,0.141
				c0.065,0.045,0.147,0.078,0.22,0.078H4.29C4.371,25.857,4.474,25.842,4.545,25.793L4.545,25.793z M4.169,24.758l0.032,0.037
				C4.201,24.775,4.188,24.76,4.169,24.758z"/>
		</g>
		<path fill="#DCDDDD" d="M3.547,25.857h0.069V25.74H3.547V25.857L3.547,25.857z M3.653,25.932H3.511
			c-0.021,0-0.036-0.018-0.036-0.037v-0.189c0-0.021,0.016-0.037,0.036-0.037h0.143c0.021,0,0.036,0.016,0.036,0.037v0.189
			C3.689,25.914,3.674,25.932,3.653,25.932z"/>
		<path fill="#DCDDDD" d="M5.043,25.328v1.852c0,0.16-0.091,0.309-0.225,0.418c-0.138,0.115-0.323,0.188-0.496,0.188H2.821
			c-0.135,0-0.314-0.094-0.46-0.211c-0.146-0.121-0.261-0.275-0.261-0.395v-1.852c0-0.205,0.092-0.369,0.227-0.486
			c0.152-0.131,0.359-0.203,0.559-0.203h1.372c0.201,0,0.398,0.08,0.544,0.207C4.948,24.971,5.043,25.143,5.043,25.328L5.043,25.328
			z M4.897,27.18v-1.852c0-0.141-0.075-0.273-0.19-0.373c-0.12-0.102-0.283-0.17-0.449-0.17H2.886c-0.166,0-0.337,0.059-0.462,0.166
			c-0.106,0.092-0.177,0.219-0.177,0.377v1.852c0,0.074,0.091,0.186,0.208,0.281c0.121,0.1,0.267,0.178,0.366,0.178h1.501
			c0.14,0,0.29-0.059,0.402-0.152C4.827,27.402,4.897,27.293,4.897,27.18z"/>
		<g>
			<path fill="#DCDDDD" d="M2.445,26.506c0-0.086,0.042-0.174,0.104-0.246c0.065-0.078,0.157-0.137,0.243-0.162l0,0h0.004
				c0.225-0.045,0.449-0.041,0.679-0.039l0,0l0,0h0.002l0.112,0.002H3.59v-0.002l0.002,0.002l0.129-0.002l0,0l0,0h0.003
				c0.213,0,0.431-0.002,0.646,0.039l-0.007,0.037l0.008-0.037c0.003,0,0.006,0.002,0.009,0.004c0.088,0.037,0.18,0.098,0.245,0.174
				c0.057,0.066,0.095,0.146,0.095,0.23v0.729c0,0.086-0.073,0.209-0.174,0.305c-0.088,0.078-0.199,0.141-0.306,0.141H2.923
				c-0.095,0-0.209-0.066-0.302-0.152c-0.101-0.092-0.176-0.209-0.176-0.293V26.506L2.445,26.506z M2.604,26.307
				c-0.051,0.061-0.086,0.131-0.086,0.199v0.729c0,0.063,0.065,0.16,0.153,0.24c0.08,0.074,0.177,0.131,0.252,0.131h1.316
				c0.087,0,0.18-0.053,0.256-0.121c0.088-0.082,0.15-0.184,0.15-0.25v-0.729c0-0.064-0.03-0.127-0.077-0.182
				c-0.058-0.068-0.139-0.121-0.216-0.154c-0.208-0.039-0.419-0.039-0.628-0.039l-0.003,0.002v-0.037v0.035l-0.129,0.002H3.588l0,0
				l-0.111-0.002H3.474l0,0c-0.226-0.002-0.447-0.004-0.665,0.039C2.737,26.189,2.66,26.242,2.604,26.307L2.604,26.307z
				 M2.795,26.098L2.795,26.098L2.795,26.098z"/>
		</g>
		<path fill="#DCDDDD" d="M2.934,25.066c-0.119,0.051-0.208,0.123-0.208,0.225c0,0.098,0.091,0.17,0.213,0.221
			c0.366,0.154,0.92,0.154,1.285,0c0.123-0.051,0.214-0.123,0.214-0.221c0-0.102-0.092-0.174-0.217-0.225
			C3.871,24.924,3.282,24.918,2.934,25.066L2.934,25.066z M2.905,24.998c0.366-0.154,0.976-0.148,1.342,0
			c0.152,0.061,0.264,0.154,0.264,0.293c0,0.133-0.109,0.227-0.258,0.289c-0.383,0.16-0.96,0.16-1.342,0
			c-0.149-0.063-0.259-0.156-0.259-0.289C2.652,25.154,2.76,25.061,2.905,24.998z"/>
	</g>
	<g>
		<path fill="#DCDDDD" d="M10.457,25.943v-0.67H9.781v0.67H10.457L10.457,25.943z M10.538,25.258v0.701
			c0,0.008-0.001,0.016-0.004,0.021l-0.001,0.002l0,0v0.002C10.53,25.992,10.525,26,10.52,26.006
			c-0.007,0.006-0.014,0.01-0.021,0.014c-0.006,0.002-0.014,0.004-0.02,0.004l-0.005,0.002H9.765c-0.009,0-0.018-0.002-0.024-0.006
			c-0.008-0.004-0.016-0.008-0.021-0.014C9.714,26,9.71,25.994,9.707,25.988l-0.003-0.004C9.702,25.979,9.7,25.971,9.7,25.965
			l-0.001-0.006v-0.701c0-0.008,0.002-0.018,0.005-0.025c0.003-0.006,0.006-0.012,0.011-0.016l0.004-0.006
			c0.006-0.004,0.014-0.01,0.021-0.014c0.007-0.002,0.016-0.004,0.024-0.004h0.709c0.008,0,0.017,0.002,0.024,0.004
			c0.006,0.002,0.011,0.006,0.016,0.01l0.006,0.004c0.005,0.006,0.009,0.012,0.012,0.018l0.002,0.004l0,0l0,0
			C10.536,25.24,10.538,25.248,10.538,25.258L10.538,25.258z M10.472,25.959L10.472,25.959L10.472,25.959L10.472,25.959
			L10.472,25.959z M10.475,25.258l0.021-0.01L10.475,25.258L10.475,25.258L10.475,25.258z M10.458,25.955l0.014,0.004l0,0
			L10.458,25.955L10.458,25.955z"/>
		<g>
			<path fill="#DCDDDD" d="M11.846,25.943v-0.67H11.17v0.67H11.846L11.846,25.943z M11.927,25.258v0.701
				c0,0.008-0.002,0.018-0.005,0.025c-0.004,0.008-0.009,0.016-0.014,0.021c-0.005,0.004-0.011,0.008-0.017,0.012l-0.005,0.002
				l-0.001-0.004l0,0l0.001,0.004c-0.006,0.002-0.014,0.004-0.021,0.004l-0.005,0.002h-0.708c-0.009,0-0.017-0.002-0.024-0.006
				c-0.006-0.002-0.011-0.006-0.017-0.01l-0.005-0.004c-0.006-0.006-0.01-0.012-0.013-0.02l-0.001-0.002l0,0l0,0l0,0
				c-0.004-0.008-0.006-0.018-0.006-0.025v-0.701c0-0.008,0.002-0.014,0.004-0.021l0.001-0.002l0,0l0.001-0.002l0,0
				c0.003-0.008,0.008-0.016,0.014-0.021l0,0l0,0l0.028,0.029l-0.028-0.029c0.006-0.006,0.014-0.01,0.021-0.014
				c0.008-0.002,0.016-0.004,0.024-0.004h0.708c0.009,0,0.018,0.002,0.025,0.004c0.008,0.004,0.016,0.008,0.021,0.014
				c0.005,0.006,0.01,0.014,0.014,0.021C11.925,25.24,11.927,25.248,11.927,25.258L11.927,25.258z M11.168,25.264l-0.013-0.006
				L11.168,25.264L11.168,25.264L11.168,25.264z M11.153,25.258L11.153,25.258L11.153,25.258L11.153,25.258L11.153,25.258z"/>
		</g>
	</g>
	<path fill="#DCDDDD" d="M8.967,23.432h3.693c0.077,0,0.148,0.033,0.199,0.084l0,0c0.052,0.051,0.083,0.121,0.083,0.199v3.787
		c0,0.078-0.031,0.148-0.083,0.199l0,0c-0.051,0.053-0.122,0.084-0.199,0.084H8.967c-0.078,0-0.148-0.031-0.2-0.084
		c-0.051-0.051-0.083-0.121-0.083-0.199v-3.787c0-0.078,0.032-0.148,0.083-0.199l0,0C8.818,23.465,8.889,23.432,8.967,23.432
		L8.967,23.432z M12.66,23.574H8.967c-0.039,0-0.074,0.016-0.101,0.041h0.001c-0.026,0.025-0.042,0.061-0.042,0.1v3.787
		c0,0.039,0.016,0.074,0.042,0.1c0.025,0.025,0.061,0.043,0.1,0.043h3.693c0.039,0,0.074-0.018,0.1-0.043l0,0
		c0.025-0.025,0.041-0.061,0.041-0.1v-3.787c0-0.039-0.015-0.074-0.041-0.1l0,0C12.734,23.59,12.699,23.574,12.66,23.574z"/>
	<path fill="#DCDDDD" d="M6.292,27.191c0-0.023-0.02-0.041-0.043-0.041s-0.042,0.018-0.042,0.041v0.297
		c0,0.023,0.019,0.041,0.042,0.041s0.043-0.018,0.043-0.041V27.191z"/>
	<path fill="#DCDDDD" d="M5.494,24h1.511c0.025,0,0.052,0.006,0.075,0.016c0.024,0.01,0.046,0.025,0.064,0.043l0.008,0.008v0.002
		c0.015,0.016,0.026,0.035,0.035,0.055c0.01,0.023,0.015,0.049,0.015,0.076v3.416c0,0.027-0.005,0.053-0.015,0.076
		c-0.009,0.02-0.021,0.039-0.035,0.055l0,0l-0.008,0.01c-0.019,0.018-0.041,0.033-0.064,0.043l0,0
		c-0.023,0.01-0.05,0.014-0.075,0.014H5.494c-0.026,0-0.052-0.004-0.075-0.014l0,0c-0.024-0.01-0.046-0.025-0.064-0.043l0,0
		c-0.019-0.018-0.033-0.041-0.043-0.064l0,0c-0.01-0.023-0.015-0.049-0.015-0.076v-3.416c0-0.027,0.006-0.053,0.015-0.076
		c0.01-0.023,0.024-0.047,0.043-0.064l0,0c0.018-0.018,0.04-0.033,0.064-0.043C5.441,24.006,5.468,24,5.494,24L5.494,24z
		 M7.005,24.141H5.494c-0.008,0-0.015,0.002-0.021,0.006l0,0c-0.007,0.002-0.013,0.006-0.019,0.012
		c-0.005,0.006-0.009,0.012-0.012,0.02l0,0c-0.003,0.006-0.005,0.014-0.005,0.021v3.416c0,0.008,0.002,0.016,0.005,0.021l0,0
		c0.003,0.008,0.007,0.014,0.012,0.018c0.005,0.006,0.012,0.01,0.019,0.014l0,0c0.007,0.002,0.014,0.004,0.021,0.004h1.511
		c0.007,0,0.015-0.002,0.021-0.004l0,0c0.007-0.004,0.014-0.008,0.018-0.014c0.006-0.004,0.011-0.012,0.013-0.018
		c0.003-0.006,0.005-0.014,0.005-0.021v-3.416c0-0.008-0.002-0.016-0.005-0.023c-0.002-0.006-0.007-0.012-0.013-0.018l0,0
		c-0.005-0.006-0.011-0.01-0.018-0.012C7.02,24.143,7.012,24.141,7.005,24.141z"/>
	<path fill="#DCDDDD" d="M7.562,24.951h0.712c0.021,0,0.041,0.004,0.06,0.012l0,0c0.016,0.006,0.029,0.016,0.042,0.025h0.001
		l0.009,0.008c0.014,0.016,0.025,0.033,0.033,0.051c0.007,0.02,0.012,0.039,0.012,0.061v2.551c0,0.02-0.004,0.041-0.012,0.059
		c-0.008,0.02-0.02,0.037-0.033,0.051H8.384c-0.015,0.014-0.032,0.025-0.051,0.033s-0.039,0.012-0.06,0.012H7.562
		c-0.021,0-0.041-0.004-0.06-0.012s-0.036-0.02-0.051-0.033L7.443,27.76v-0.002c-0.011-0.012-0.02-0.025-0.025-0.041
		c-0.008-0.018-0.013-0.039-0.013-0.059v-2.551c0-0.021,0.005-0.041,0.013-0.061s0.02-0.037,0.033-0.051l0,0
		c0.015-0.014,0.032-0.025,0.051-0.033l0,0C7.521,24.955,7.541,24.951,7.562,24.951L7.562,24.951z M8.273,25.092H7.562l-0.005,0.002
		l-0.005,0.002l-0.003,0.006l-0.001,0.006v2.551l0.001,0.006l0,0l0.002,0.004l0.006,0.004h0.005h0.712l0.006-0.002l0.005-0.002
		c0.002-0.002,0.004-0.006,0.004-0.01v-2.551l-0.001-0.006l-0.003-0.006l-0.005-0.002L8.273,25.092z"/>
	<path fill="none" stroke="#DCDDDD" stroke-width="0.2835" stroke-linecap="round" stroke-miterlimit="22.9256" d="M27.899,15.44
		l-2.82,2.82 M25.079,15.44l2.82,2.82"/>
	<path fill="#DCDDDD" d="M19.02,4.916c-0.473-0.845-1.154-1.526-1.96-1.997c-0.807-0.472-1.737-0.731-2.709-0.731
		c-0.65,0-1.288,0.118-1.885,0.341c-0.598,0.225-1.155,0.556-1.644,0.981c-0.441,0.387-0.814,0.84-1.106,1.34H9.715
		C9.423,5.348,9.211,5.895,9.092,6.467L9.076,6.545L8.999,6.568C8.311,6.766,7.725,7.182,7.312,7.731
		C6.902,8.276,6.663,8.953,6.663,9.676c0,0.801,0.296,1.537,0.783,2.105c0.494,0.574,1.186,0.978,1.966,1.097l0.113,0.018v0.023
		h9.308c1.096,0,2.089-0.446,2.808-1.165c0.719-0.721,1.164-1.715,1.164-2.812c0-1.042-0.402-1.99-1.061-2.699
		c-0.663-0.714-1.587-1.185-2.618-1.261l-0.072-0.006L19.02,4.916L19.02,4.916z M18.837,12.241H9.902H9.869L9.867,12.24
		c-0.696-0.009-1.329-0.301-1.787-0.764c-0.458-0.464-0.742-1.1-0.742-1.796c0-0.617,0.221-1.19,0.593-1.638
		s0.896-0.769,1.503-0.882l0.238-0.045l0.036-0.242c0.082-0.553,0.26-1.084,0.524-1.568c0.263-0.482,0.611-0.92,1.032-1.288l0,0
		c0.428-0.373,0.915-0.662,1.438-0.857c0.522-0.195,1.079-0.298,1.647-0.298c0.763,0,1.496,0.185,2.147,0.521
		c0.657,0.34,1.233,0.836,1.672,1.453l0.119,0.167l-0.202,0.04c-0.485,0.095-0.951,0.279-1.369,0.541
		c-0.412,0.259-0.779,0.594-1.075,0.992l0,0c-0.025,0.036-0.045,0.077-0.056,0.12c-0.01,0.041-0.014,0.085-0.008,0.128l0,0
		c0.008,0.045,0.024,0.09,0.048,0.129l0,0c0.022,0.037,0.053,0.071,0.088,0.098h-0.001c0.073,0.055,0.165,0.074,0.253,0.062l0,0
		c0.086-0.013,0.168-0.06,0.225-0.135l0,0c0.31-0.421,0.708-0.753,1.16-0.98c0.453-0.228,0.959-0.349,1.485-0.349
		c0.908,0,1.733,0.369,2.33,0.966c0.597,0.596,0.967,1.419,0.967,2.328c0,0.908-0.371,1.733-0.968,2.329l0,0
		C20.568,11.87,19.743,12.241,18.837,12.241z"/>
	<path fill="none" stroke="#DCDDDD" stroke-width="0.2835" stroke-miterlimit="22.9256" stroke-dasharray="0.2835,0.2835" d="
		M21.963,10.895c0,0,8.003,3.138,2.895,13.232"/>
	<g>
		
			<path fill-rule="evenodd" clip-rule="evenodd" fill="none" stroke="#DCDDDD" stroke-width="0.1417" stroke-miterlimit="22.9256" d="
			M11.65,21.84c1.443,0,2.621-1.178,2.621-2.621s-1.178-2.621-2.621-2.621s-2.621,1.178-2.621,2.621S10.207,21.84,11.65,21.84z"/>
		
			<circle fill-rule="evenodd" clip-rule="evenodd" fill="none" stroke="#DCDDDD" stroke-width="0.0567" stroke-miterlimit="22.9256" cx="11.65" cy="19.219" r="1.563"/>
		<circle fill-rule="evenodd" clip-rule="evenodd" fill="#DCDDDD" cx="10.202" cy="17.703" r="0.078"/>
		<circle fill-rule="evenodd" clip-rule="evenodd" fill="#DCDDDD" cx="11.65" cy="18.351" r="0.062"/>
		<circle fill-rule="evenodd" clip-rule="evenodd" fill="#DCDDDD" cx="11.65" cy="20.087" r="0.062"/>
	</g>
</g>
</svg>
