<?xml version="1.0" encoding="utf-8"?>
<!-- Generator: Adobe Illustrator 15.0.0, SVG Export Plug-In . SVG Version: 6.00 Build 0)  -->
<!DOCTYPE svg PUBLIC "-//W3C//DTD SVG 1.1//EN" "http://www.w3.org/Graphics/SVG/1.1/DTD/svg11.dtd">
<svg version="1.1" id="图层_1" xmlns="http://www.w3.org/2000/svg" xmlns:xlink="http://www.w3.org/1999/xlink" x="0px" y="0px"
	 width="20px" height="22px" viewBox="0 0 20 22" enable-background="new 0 0 20 22" xml:space="preserve">
<path fill="#6DC2E1" d="M16.249,14.478c1.082,0.871,1.984,1.973,2.627,3.224c0.631,1.216,1.019,2.589,1.107,4.036L20,22h-0.267
	h-1.371h-0.23l-0.016-0.234c-0.081-1.155-0.404-2.273-0.93-3.268c-0.525-1.003-1.261-1.891-2.166-2.598l-0.255-0.206l0.044-0.032
	l-0.068-0.107c-0.068-0.127-0.109-0.271-0.109-0.427c0-0.264,0.109-0.502,0.279-0.675l0,0c0.17-0.165,0.404-0.276,0.663-0.276
	c0.129,0,0.259,0.029,0.375,0.083C16.063,14.313,16.168,14.388,16.249,14.478L16.249,14.478z M6.847,10.354
	c0.865,0.876,2.065,1.418,3.387,1.418c1.322,0,2.519-0.542,3.383-1.418c0.861-0.875,1.399-2.084,1.399-3.416
	c0-1.335-0.538-2.548-1.403-3.42c-0.864-0.872-2.057-1.414-3.379-1.414c-1.322,0-2.518,0.542-3.383,1.414
	c-0.865,0.875-1.403,2.088-1.403,3.42C5.449,8.271,5.986,9.479,6.847,10.354L6.847,10.354z M15.085,2.03
	C13.844,0.777,12.126,0,10.234,0S6.622,0.777,5.38,2.03C4.139,3.288,3.367,5.023,3.367,6.938c0,1.258,0.339,2.442,0.93,3.453
	c0.521,0.904,1.249,1.677,2.105,2.269c-1.762,0.679-3.286,1.851-4.401,3.347l0,0c-1.192,1.604-1.924,3.576-1.992,5.718L0,21.984
	h0.255h1.374h0.238l0.009-0.243c0.081-2.158,0.99-4.107,2.417-5.521c1.427-1.41,3.367-2.294,5.513-2.331l0.028-0.004h0.02
	l0.129-0.033l0.073,0.009c0.057,0.008,0.121,0.016,0.182,0.016l0,0c1.892,0,3.609-0.78,4.847-2.034
	c1.241-1.254,2.013-2.988,2.013-4.904C17.098,5.023,16.326,3.288,15.085,2.03z"/>
</svg>
