<?xml version="1.0" encoding="utf-8"?>
<!-- Generator: Adobe Illustrator 15.0.0, SVG Export Plug-In . SVG Version: 6.00 Build 0)  -->
<!DOCTYPE svg PUBLIC "-//W3C//DTD SVG 1.1//EN" "http://www.w3.org/Graphics/SVG/1.1/DTD/svg11.dtd">
<svg version="1.1" id="图层_1" xmlns="http://www.w3.org/2000/svg" xmlns:xlink="http://www.w3.org/1999/xlink" x="0px" y="0px"
	 width="43px" height="43px" viewBox="0 0 43 43" enable-background="new 0 0 43 43" xml:space="preserve">
<g>
	<path fill="#9B9FAC" d="M34.849,5.206h-3.962c-0.292,0-0.53,0.237-0.53,0.53s0.238,0.53,0.53,0.53h1.935l-2.152,1.206
		c-0.538,0.269-0.323,1.013,0.218,1.013h3.962c0.292,0,0.529-0.237,0.529-0.53c0-0.292-0.237-0.529-0.529-0.529h-1.934l2.162-1.212
		C35.504,5.999,35.455,5.206,34.849,5.206L34.849,5.206z M3.016,13.439c0-0.487-0.395-0.882-0.882-0.882
		c-0.488,0-0.884,0.396-0.884,0.882c0,7.575,0,15.148,0,22.721c0,0.487,0.396,0.884,0.884,0.884c0.487,0,0.882-0.396,0.882-0.884
		v-5.117h36.968v5.117c0,0.487,0.396,0.884,0.885,0.884c0.485,0,0.882-0.396,0.882-0.884c0-3.692,0-7.386,0-11.079
		c0-0.396-0.072-0.771-0.224-1.136c-0.453-1.094-1.515-1.798-2.71-1.798H14.612V19.8c0-0.766-0.311-1.518-0.853-2.059
		c-0.271-0.27-0.594-0.485-0.945-0.63c-0.352-0.146-0.73-0.222-1.113-0.222H3.016V13.439L3.016,13.439z M3.016,29.276v-5.362
		c11.934,0,23.867,0,35.801,0c0.675,0,1.167,0.503,1.167,1.167v4.195H3.016L3.016,29.276z M3.016,22.147v-3.492h8.686
		c0.31,0,0.59,0.118,0.808,0.335c0.215,0.215,0.336,0.503,0.336,0.81v2.348H3.016L3.016,22.147z M15.468,12.467h5.692
		c0.697,0,1.01,0.97,0.32,1.337l-3.477,2.098h3.156c0.39,0,0.707,0.317,0.707,0.707c0,0.391-0.317,0.707-0.707,0.707h-5.692
		c-0.385,0-0.707-0.314-0.707-0.707c0-0.267,0.148-0.5,0.385-0.629l3.477-2.101h-3.156c-0.391,0-0.707-0.316-0.707-0.706
		C14.761,12.784,15.077,12.467,15.468,12.467L15.468,12.467z M23.598,8.578c-0.342,0-0.619,0.277-0.619,0.618
		c0,0.341,0.277,0.619,0.619,0.619h2.033l-2.282,1.29c-0.218,0.096-0.37,0.313-0.37,0.565c0,0.342,0.277,0.619,0.619,0.619h4.416
		c0.342,0,0.617-0.277,0.617-0.619c0-0.341-0.275-0.618-0.617-0.618h-2.07l2.226-1.258c0.266-0.069,0.462-0.311,0.462-0.598
		c0-0.341-0.275-0.618-0.617-0.618H23.598z"/>
</g>
</svg>
