<?xml version="1.0" encoding="utf-8"?>
<!-- Generator: Adobe Illustrator 15.0.0, SVG Export Plug-In . SVG Version: 6.00 Build 0)  -->
<!DOCTYPE svg PUBLIC "-//W3C//DTD SVG 1.1//EN" "http://www.w3.org/Graphics/SVG/1.1/DTD/svg11.dtd">
<svg version="1.1" id="图层_1" xmlns="http://www.w3.org/2000/svg" xmlns:xlink="http://www.w3.org/1999/xlink" x="0px" y="0px"
	 width="37.32px" height="50px" viewBox="0 0 37.32 50" enable-background="new 0 0 37.32 50" xml:space="preserve">
<g>
	<path fill="#595758" d="M15.49,34.395l0.48-0.338l-2.832-4.009l-0.48,0.339L15.49,34.395L15.49,34.395z M15.665,35.346
		c-0.204,0.153-0.483,0.125-0.633-0.09l-3.322-4.704l-0.016-0.019c-0.125-0.169-0.143-0.434,0.107-0.612l1.19-0.838
		c0.196-0.142,0.472-0.095,0.611,0.103l3.316,4.698c0.156,0.202,0.124,0.482-0.088,0.634L15.665,35.346z"/>
	<path fill="#595758" d="M18.469,27.943h0.583v-4.905h-0.583V27.943L18.469,27.943z M19.491,28.82h-1.447h-0.012
		c-0.24,0-0.438-0.195-0.438-0.438v-5.771v-0.011c0-0.24,0.195-0.438,0.438-0.438h1.448h0.012c0.242,0,0.439,0.196,0.439,0.438
		v5.769v0.013C19.927,28.625,19.73,28.82,19.491,28.82z"/>
	<path fill="#595758" d="M37.321,41.479V8.521c0-1.109-0.911-2.021-2.022-2.021H2.021c-0.679,0-2.022,0.548-2.022,2.021v32.955
		c0,1.127,0.901,2.023,2.027,2.023h33.272C36.421,43.5,37.321,42.589,37.321,41.479L37.321,41.479z M35.569,41.479
		c0,0.154-0.116,0.272-0.271,0.272c-2.771,0-33.206,0.003-33.285,0.003c-0.206,0-0.265-0.13-0.265-0.275V8.521
		c0-0.154,0.114-0.271,0.271-0.271h33.279c0.152,0,0.271,0.121,0.271,0.271V41.479z"/>
	<path fill="#595758" d="M21.673,18.729c3.038,0,3.182-4.591,0-4.607c-0.24,0-0.438,0.196-0.438,0.438v3.732
		C21.235,18.663,21.588,18.729,21.673,18.729L21.673,18.729z M22.125,15.063c0.368,0,0.992,0.524,0.992,1.368
		c0,0.841-0.728,1.353-0.991,1.353L22.125,15.063z"/>
	<path fill="#595758" d="M15.635,18.729c-3.037,0-3.181-4.591,0-4.607c0.239,0,0.437,0.196,0.437,0.438v3.732
		C16.071,18.663,15.72,18.729,15.635,18.729L15.635,18.729z M15.183,15.063c-0.37,0-0.99,0.524-0.99,1.368
		c0,0.841,0.725,1.353,0.988,1.353L15.183,15.063z"/>
	<path fill="#595758" d="M22.024,34.395l-0.479-0.338l2.83-4.009l0.48,0.339L22.024,34.395L22.024,34.395z M21.853,35.346
		c0.203,0.153,0.482,0.125,0.633-0.09l3.32-4.704l0.016-0.019c0.123-0.169,0.146-0.434-0.105-0.612l-1.191-0.838
		c-0.196-0.142-0.471-0.095-0.61,0.103l-3.315,4.698c-0.154,0.202-0.123,0.482,0.09,0.634L21.853,35.346z"/>
</g>
</svg>
