<?xml version="1.0" standalone="no"?><!DOCTYPE svg PUBLIC "-//W3C//DTD SVG 1.1//EN" "http://www.w3.org/Graphics/SVG/1.1/DTD/svg11.dtd"><svg t="1523700134533" class="icon" style="" viewBox="0 0 1025 1024" version="1.1" xmlns="http://www.w3.org/2000/svg" p-id="2710" xmlns:xlink="http://www.w3.org/1999/xlink" width="32.03125" height="32"><defs><style type="text/css"></style></defs><path d="M833.212164 326.675092c-7.066178-12.240398-22.720906-16.437925-34.962328-9.367652l-73.691168 42.545519 0-73.617456c0-8.481052-6.875754-15.356806-15.356806-15.356806s-15.356806 6.875754-15.356806 15.356806l0 91.349447-156.031289 90.084047 0-180.170141 79.111097-45.674212c7.344648-4.240526 9.861117-13.631725 5.620591-20.977397-4.240526-7.345672-13.632748-9.863164-20.977397-5.620591l-63.754291 36.808216 0-85.090013c0-14.136452-11.459248-25.594676-25.594676-25.594676s-25.594676 11.458225-25.594676 25.594676l0 85.090013-63.753267-36.808216c-7.344648-4.242574-16.737895-1.724057-20.977397 5.620591-4.240526 7.345672-1.724057 16.737895 5.620591 20.977397l79.110073 45.674212 0 180.170141-156.031289-90.084047 0-91.349447c0-8.481052-6.875754-15.356806-15.356806-15.356806s-15.356806 6.875754-15.356806 15.356806l0 73.616432-73.691168-42.545519c-12.242446-7.068226-27.89615-2.87377-34.962328 9.367652-7.068226 12.241422-2.87377 27.895126 9.367652 34.962328l73.691168 42.545519-63.753267 36.808216c-7.344648 4.240526-9.861117 13.631725-5.620591 20.977397 2.84408 4.927487 8.006015 7.681474 13.313327 7.681474 2.604514 0 5.245885-0.663414 7.66407-2.060883l79.110073-45.674212 156.032313 90.08507-156.031289 90.084047-79.111097-45.675236c-7.345672-4.243597-16.737895-1.724057-20.977397 5.620591-4.240526 7.345672-1.724057 16.737895 5.620591 20.977397l63.754291 36.808216-73.691168 42.545519c-12.242446 7.067202-16.435877 22.720906-9.367652 34.962328 4.740134 8.211796 13.343017 12.801433 22.189561 12.801433 4.341881 0 8.743141-1.10569 12.773791-3.433782l73.691168-42.545519 0 73.616432c0 8.481052 6.875754 15.356806 15.356806 15.356806s15.356806-6.875754 15.356806-15.356806l0-91.349447 156.031289-90.084047 0 180.169117-79.110073 45.674212c-7.344648 4.240526-9.861117 13.631725-5.620591 20.977397 2.84408 4.927487 8.006015 7.681474 13.313327 7.681474 2.604514 0 5.245885-0.663414 7.66407-2.060883l63.753267-36.808216 0 85.091037c0 14.136452 11.459248 25.594676 25.594676 25.594676s25.594676-11.458225 25.594676-25.594676l0-85.091037 63.754291 36.808216c2.418185 1.396446 5.058532 2.060883 7.66407 2.060883 5.307312 0 10.47027-2.755011 13.313327-7.681474 4.240526-7.345672 1.724057-16.737895-5.620591-20.977397l-79.111097-45.674212 0-180.169117 156.031289 90.084047 0 91.349447c0 8.481052 6.875754 15.356806 15.356806 15.356806s15.356806-6.875754 15.356806-15.356806l0-73.617456 73.691168 42.545519c4.031673 2.327068 8.430886 3.433782 12.773791 3.433782 8.84552 0 17.449427-4.590661 22.189561-12.801433 7.068226-12.241422 2.87377-27.895126-9.367652-34.962328l-73.692192-42.545519 63.755315-36.808216c7.344648-4.240526 9.861117-13.631725 5.620591-20.977397s-13.632748-9.864188-20.977397-5.620591l-79.111097 45.675236-156.031289-90.084047 156.031289-90.08507 79.110073 45.674212c2.418185 1.396446 5.058532 2.060883 7.66407 2.060883 5.307312 0 10.47027-2.755011 13.313327-7.681474 4.240526-7.345672 1.724057-16.737895-5.620591-20.977397l-63.754291-36.808216 73.691168-42.545519C836.085934 354.570217 840.28039 338.916513 833.212164 326.675092z" p-id="2711" fill="#3de4ff"></path></svg>