<?xml version="1.0" standalone="no"?><!DOCTYPE svg PUBLIC "-//W3C//DTD SVG 1.1//EN" "http://www.w3.org/Graphics/SVG/1.1/DTD/svg11.dtd"><svg t="1531902823188" class="icon" style="" viewBox="0 0 1025 1024" version="1.1" xmlns="http://www.w3.org/2000/svg" p-id="1609" xmlns:xlink="http://www.w3.org/1999/xlink" width="200.1953125" height="200"><defs><style type="text/css"></style></defs><path d="M512.21909 359.103546c-84.30784 0-152.896454 68.589637-152.896454 152.897477s68.588614 152.896454 152.896454 152.896454 152.896454-68.588614 152.896454-152.896454S596.52693 359.103546 512.21909 359.103546zM512.21909 634.183866c-67.371331 0-122.182842-54.810487-122.182842-122.182842s54.811511-122.183866 122.182842-122.183866c67.372355 0 122.182842 54.811511 122.182842 122.183866S579.591445 634.183866 512.21909 634.183866z" p-id="1610" fill="#FF7F50"></path><path d="M512.21909 287.745589c14.135428 0 25.594676-11.459248 25.594676-25.594676l0-79.250332c0-14.136452-11.459248-25.594676-25.594676-25.594676s-25.594676 11.458225-25.594676 25.594676l0 79.250332C486.624414 276.28634 498.083663 287.745589 512.21909 287.745589z" p-id="1611" fill="#FF7F50"></path><path d="M512.21909 736.255435c-14.135428 0-25.594676 11.458225-25.594676 25.594676l0 79.250332c0 14.135428 11.459248 25.594676 25.594676 25.594676s25.594676-11.459248 25.594676-25.594676l0-79.250332C537.813767 747.71366 526.354518 736.255435 512.21909 736.255435z" p-id="1612" fill="#FF7F50"></path><path d="M317.45077 353.428695c4.998128 4.998128 11.548318 7.496169 18.098508 7.496169s13.100379-2.49804 18.098508-7.496169c9.995233-9.995233 9.995233-26.201782 0-36.195991l-56.038008-56.038008c-9.996257-9.996257-26.200758-9.996257-36.195991 0-9.995233 9.995233-9.995233 26.201782 0 36.195991L317.45077 353.428695z" p-id="1613" fill="#FF7F50"></path><path d="M706.987411 670.573353c-9.996257-9.996257-26.200758-9.996257-36.195991 0-9.995233 9.995233-9.995233 26.201782 0 36.195991l56.038008 56.038008c4.998128 4.998128 11.548318 7.496169 18.098508 7.496169s13.100379-2.49804 18.098508-7.496169c9.995233-9.995233 9.995233-26.201782 0-36.195991L706.987411 670.573353z" p-id="1614" fill="#FF7F50"></path><path d="M287.964679 512.001024c0-14.135428-11.459248-25.594676-25.594676-25.594676l-79.250332 0c-14.135428 0-25.594676 11.459248-25.594676 25.594676s11.459248 25.594676 25.594676 25.594676L262.370003 537.5957C276.505431 537.5957 287.964679 526.135428 287.964679 512.001024z" p-id="1615" fill="#FF7F50"></path><path d="M841.319534 486.406347 762.069202 486.406347c-14.135428 0-25.594676 11.459248-25.594676 25.594676s11.459248 25.594676 25.594676 25.594676l79.250332 0c14.135428 0 25.594676-11.459248 25.594676-25.594676S855.454961 486.406347 841.319534 486.406347z" p-id="1616" fill="#FF7F50"></path><path d="M317.45077 670.573353l-56.038008 56.038008c-9.995233 9.995233-9.995233 26.201782 0 36.195991 4.998128 4.998128 11.548318 7.496169 18.098508 7.496169s13.100379-2.49804 18.098508-7.496169l56.038008-56.038008c9.995233-9.995233 9.995233-26.201782 0-36.195991C343.651528 660.577096 327.447027 660.577096 317.45077 670.573353z" p-id="1617" fill="#FF7F50"></path><path d="M688.889927 360.924864c6.55019 0 13.100379-2.49804 18.098508-7.496169l56.038008-56.038008c9.995233-9.995233 9.995233-26.201782 0-36.195991-9.996257-9.996257-26.200758-9.996257-36.195991 0l-56.038008 56.038008c-9.995233 9.995233-9.995233 26.201782 0 36.195991C675.789548 358.426823 682.339737 360.924864 688.889927 360.924864z" p-id="1618" fill="#FF7F50"></path></svg>