<?xml version="1.0" encoding="utf-8"?>
<!-- Generator: Adobe Illustrator 15.0.0, SVG Export Plug-In . SVG Version: 6.00 Build 0)  -->
<!DOCTYPE svg PUBLIC "-//W3C//DTD SVG 1.1//EN" "http://www.w3.org/Graphics/SVG/1.1/DTD/svg11.dtd">
<svg version="1.1" id="图层_1" xmlns="http://www.w3.org/2000/svg" xmlns:xlink="http://www.w3.org/1999/xlink" x="0px" y="0px"
	 width="150px" height="150px" viewBox="0 0 150 150" enable-background="new 0 0 150 150" xml:space="preserve">
<g>
	<path fill-rule="evenodd" clip-rule="evenodd" fill="#DCDDDD" d="M75,150c41.309,0,75-33.691,75-75S116.309,0,75,0S0,33.691,0,75
		S33.691,150,75,150z"/>
	<g>
		<path fill="#9B9FAC" d="M75.004,75.977c-5.534,0-10.555-2.25-14.188-5.884c-3.634-3.632-5.884-8.65-5.884-14.185
			c0-5.536,2.25-10.555,5.884-14.188s8.654-5.884,14.188-5.884s10.555,2.25,14.188,5.884s5.884,8.652,5.884,14.188
			c0,5.527-2.254,10.543-5.888,14.181C84.904,74.255,81.066,75.977,75.004,75.977z"/>
		<path fill="#9B9FAC" d="M100.358,114.168H49.654c-2.808-0.15-4.736-0.693-6.849-2.654c-2.111-1.966-2.718-3.772-2.917-6.567
			c0-6.814,2.941-12.96,7.69-17.405c4.72-4.428,11.234-7.153,18.396-7.153h18.059c7.707,0.207,12.626,1.758,18.38,7.108
			c4.748,4.415,7.69,10.526,7.698,17.293c-0.146,3.322-0.346,4.265-2.877,6.669C105.469,113.141,103.031,114.168,100.358,114.168z"
			/>
	</g>
</g>
</svg>
