<?xml version="1.0" encoding="utf-8"?>
<!-- Generator: Adobe Illustrator 15.0.0, SVG Export Plug-In . SVG Version: 6.00 Build 0)  -->
<!DOCTYPE svg PUBLIC "-//W3C//DTD SVG 1.1//EN" "http://www.w3.org/Graphics/SVG/1.1/DTD/svg11.dtd">
<svg version="1.1" id="图层_1" xmlns="http://www.w3.org/2000/svg" xmlns:xlink="http://www.w3.org/1999/xlink" x="0px" y="0px"
	 width="30px" height="30px" viewBox="0 0 30 30" enable-background="new 0 0 30 30" xml:space="preserve">
<path fill-rule="evenodd" clip-rule="evenodd" fill="none" stroke="#9B9FAC" stroke-width="0.9921" stroke-miterlimit="22.9256" d="
	M333.919,398.753v0.415c0,0.076,0.062,0.139,0.138,0.139h12.995h12.994c0.076,0,0.138-0.063,0.138-0.139
	c0-7.027-3.931-13.375-11.16-14.764C340.413,382.973,333.999,390.617,333.919,398.753z"/>
<path fill-rule="evenodd" clip-rule="evenodd" fill="none" stroke="#9B9FAC" stroke-width="0.9921" stroke-linejoin="bevel" stroke-miterlimit="22.9256" d="
	M334.679,399.493h24.745l-0.156,0.773c-0.039,0.194-0.209,0.333-0.406,0.333h-23.62c-0.197,0-0.367-0.139-0.406-0.333
	L334.679,399.493z M334.679,399.493h24.745"/>
<path fill-rule="evenodd" clip-rule="evenodd" fill="none" stroke="#9B9FAC" stroke-width="0.2835" stroke-miterlimit="22.9256" d="
	M347.052,394.676c3.484,0,6.327-2.152,6.327-4.79s-2.843-4.79-6.327-4.79c-3.485,0-6.328,2.152-6.328,4.79
	S343.566,394.676,347.052,394.676z"/>
<ellipse fill-rule="evenodd" clip-rule="evenodd" fill="none" stroke="#9B9FAC" stroke-width="0.0283" stroke-miterlimit="22.9256" cx="347.011" cy="384.666" rx="0.228" ry="0.073"/>
<path fill-rule="evenodd" clip-rule="evenodd" fill="#9B9FAC" d="M341.793,389.708c0.02,0,0.035-0.016,0.035-0.034
	c0-0.02-0.016-0.035-0.035-0.035c-0.019,0-0.034,0.016-0.034,0.035C341.759,389.692,341.774,389.708,341.793,389.708
	L341.793,389.708z M341.512,389.426c0,0.02,0.016,0.035,0.034,0.035s0.034-0.016,0.034-0.035c0-0.019-0.016-0.034-0.034-0.034
	S341.512,389.407,341.512,389.426L341.512,389.426z M341.512,389.55c0,0.019,0.016,0.034,0.034,0.034s0.034-0.016,0.034-0.034
	s-0.016-0.034-0.034-0.034S341.512,389.531,341.512,389.55L341.512,389.55z M341.512,389.797c0,0.02,0.016,0.035,0.034,0.035
	s0.034-0.016,0.034-0.035s-0.016-0.034-0.034-0.034S341.512,389.777,341.512,389.797L341.512,389.797z M341.512,389.92
	c0,0.02,0.016,0.035,0.034,0.035s0.034-0.016,0.034-0.035c0-0.018-0.016-0.033-0.034-0.033S341.512,389.902,341.512,389.92
	L341.512,389.92z M341.299,389.708c0.019,0,0.034-0.016,0.034-0.034c0-0.02-0.016-0.035-0.034-0.035
	c-0.02,0-0.035,0.016-0.035,0.035C341.264,389.692,341.279,389.708,341.299,389.708L341.299,389.708z M341.422,389.708
	c0.02,0,0.035-0.016,0.035-0.034c0-0.02-0.016-0.035-0.035-0.035c-0.019,0-0.034,0.016-0.034,0.035
	C341.388,389.692,341.403,389.708,341.422,389.708L341.422,389.708z M341.546,389.708c0.019,0,0.034-0.016,0.034-0.034
	c0-0.02-0.016-0.035-0.034-0.035s-0.034,0.016-0.034,0.035C341.512,389.692,341.527,389.708,341.546,389.708L341.546,389.708z
	 M341.67,389.708c0.019,0,0.034-0.016,0.034-0.034c0-0.02-0.016-0.035-0.034-0.035c-0.02,0-0.035,0.016-0.035,0.035
	C341.635,389.692,341.65,389.708,341.67,389.708z"/>
<path fill-rule="evenodd" clip-rule="evenodd" fill="#9B9FAC" d="M352.948,389.672c0.019,0,0.034-0.016,0.034-0.035
	c0-0.019-0.016-0.034-0.034-0.034c-0.02,0-0.035,0.016-0.035,0.034C352.913,389.656,352.929,389.672,352.948,389.672
	L352.948,389.672z M352.453,389.672c0.02,0,0.034-0.016,0.034-0.035c0-0.019-0.015-0.034-0.034-0.034s-0.034,0.016-0.034,0.034
	C352.419,389.656,352.434,389.672,352.453,389.672L352.453,389.672z M352.577,389.672c0.019,0,0.034-0.016,0.034-0.035
	c0-0.019-0.016-0.034-0.034-0.034c-0.02,0-0.035,0.016-0.035,0.034C352.542,389.656,352.558,389.672,352.577,389.672
	L352.577,389.672z M352.7,389.672c0.02,0,0.035-0.016,0.035-0.035c0-0.019-0.016-0.034-0.035-0.034
	c-0.019,0-0.034,0.016-0.034,0.034C352.666,389.656,352.682,389.672,352.7,389.672L352.7,389.672z M352.824,389.672
	c0.019,0,0.034-0.016,0.034-0.035c0-0.019-0.016-0.034-0.034-0.034c-0.02,0-0.034,0.016-0.034,0.034
	C352.79,389.656,352.805,389.672,352.824,389.672z"/>
<path fill-rule="evenodd" clip-rule="evenodd" fill="none" stroke="#9B9FAC" stroke-width="0.4252" stroke-miterlimit="22.9256" d="
	M338.156,396.855c0.462-1.129,0.755-3.641-0.549-4.109c-1.212-0.395-2.185,1.699-2.388,2.723c-0.152,0.89-0.172,2.524,0.804,2.979
	C336.996,398.867,337.826,397.602,338.156,396.855z"/>
<path fill-rule="evenodd" clip-rule="evenodd" fill="none" stroke="#9B9FAC" stroke-width="0.2835" stroke-linecap="round" stroke-linejoin="bevel" stroke-miterlimit="22.9256" d="
	M338.51,394.156l-0.021-0.064c-0.156-0.457-0.436-0.93-0.929-1.033l-0.022-0.004c-1.11-0.17-1.665,1.441-1.803,2.291
	c-0.066,0.507-0.065,0.938,0.032,1.439c0.174,0.791,0.704,1.619,1.525,1.294c0.035-0.015,0.07-0.031,0.104-0.05"/>
<path fill-rule="evenodd" clip-rule="evenodd" fill="none" stroke="#9B9FAC" stroke-width="0.4252" stroke-miterlimit="22.9256" d="
	M355.919,396.855c-0.462-1.129-0.754-3.641,0.55-4.109c1.211-0.395,2.184,1.699,2.387,2.723c0.153,0.89,0.172,2.524-0.804,2.979
	C357.079,398.867,356.249,397.602,355.919,396.855z"/>
<path fill-rule="evenodd" clip-rule="evenodd" fill="none" stroke="#9B9FAC" stroke-width="0.2835" stroke-linecap="round" stroke-linejoin="bevel" stroke-miterlimit="22.9256" d="
	M355.565,394.156l0.021-0.064c0.156-0.457,0.436-0.93,0.93-1.033l0.022-0.004c1.11-0.17,1.665,1.441,1.802,2.291
	c0.066,0.507,0.065,0.938-0.031,1.439c-0.175,0.791-0.704,1.619-1.525,1.294c-0.036-0.015-0.07-0.031-0.105-0.05"/>
<path fill-rule="evenodd" clip-rule="evenodd" fill="#9B9FAC" d="M346.953,394.313c-0.01-0.004-0.014-0.016-0.01-0.025
	c0.005-0.009,0.017-0.013,0.026-0.009c0.01,0.005,0.015,0.016,0.01,0.024C346.976,394.313,346.964,394.316,346.953,394.313
	L346.953,394.313z M347.114,394.333c-0.013-0.052-0.015-0.11-0.002-0.19c0.069-0.006,0.124-0.059,0.124-0.129
	c0-0.068-0.062-0.129-0.137-0.129s-0.137,0.066-0.137,0.129c0,0.064,0.038,0.104,0.092,0.122l0,0c0,0-0.034,0.079-0.034,0.188
	C347.049,394.332,347.086,394.335,347.114,394.333L347.114,394.333z M347.174,394.334c-0.01,0.002-0.021-0.004-0.023-0.014
	c-0.002-0.01,0.005-0.02,0.016-0.021c0.011-0.003,0.021,0.004,0.023,0.014S347.186,394.332,347.174,394.334L347.174,394.334z
	 M347.246,394.313c-0.01,0.004-0.021,0-0.026-0.01c-0.005-0.009,0-0.02,0.01-0.024c0.01-0.004,0.022,0,0.026,0.009
	C347.261,394.297,347.256,394.309,347.246,394.313L347.246,394.313z M347.311,394.277c-0.009,0.006-0.021,0.004-0.027-0.004
	c-0.006-0.008-0.005-0.021,0.005-0.026c0.008-0.006,0.021-0.005,0.027,0.005C347.322,394.26,347.319,394.271,347.311,394.277
	L347.311,394.277z M347.366,394.23c-0.007,0.007-0.02,0.008-0.027,0c-0.008-0.006-0.009-0.018-0.001-0.025
	c0.007-0.008,0.019-0.008,0.027-0.002C347.373,394.21,347.374,394.222,347.366,394.23L347.366,394.23z M347.411,394.172
	c-0.006,0.01-0.018,0.013-0.027,0.008c-0.01-0.006-0.013-0.018-0.007-0.026c0.005-0.009,0.018-0.012,0.026-0.007
	C347.413,394.152,347.416,394.163,347.411,394.172L347.411,394.172z M347.441,394.107c-0.004,0.01-0.015,0.016-0.024,0.012
	c-0.011-0.003-0.017-0.014-0.014-0.023c0.004-0.01,0.015-0.015,0.025-0.012S347.444,394.098,347.441,394.107L347.441,394.107z
	 M347.457,394.037c-0.001,0.012-0.011,0.019-0.021,0.018s-0.019-0.01-0.018-0.021s0.011-0.018,0.021-0.017
	S347.458,394.027,347.457,394.037L347.457,394.037z M347.457,393.967c0.001,0.01-0.007,0.02-0.018,0.021s-0.021-0.007-0.021-0.017
	s0.007-0.02,0.018-0.02C347.446,393.949,347.456,393.957,347.457,393.967L347.457,393.967z M347.441,393.897
	c0.003,0.01-0.002,0.021-0.013,0.023s-0.021-0.002-0.025-0.012c-0.003-0.01,0.003-0.021,0.014-0.023
	C347.427,393.883,347.438,393.888,347.441,393.897L347.441,393.897z M347.411,393.833c0.005,0.009,0.002,0.021-0.008,0.025
	c-0.009,0.005-0.021,0.003-0.026-0.007c-0.006-0.01-0.003-0.021,0.007-0.025C347.394,393.82,347.405,393.824,347.411,393.833
	L347.411,393.833z M347.366,393.775c0.008,0.008,0.007,0.02-0.001,0.026c-0.009,0.007-0.021,0.006-0.027-0.002
	c-0.008-0.007-0.007-0.019,0.001-0.025C347.347,393.767,347.359,393.768,347.366,393.775L347.366,393.775z M347.312,393.729
	c0.008,0.006,0.011,0.017,0.004,0.025c-0.007,0.008-0.019,0.01-0.027,0.004c-0.01-0.006-0.011-0.018-0.005-0.025
	C347.29,393.724,347.302,393.722,347.312,393.729L347.312,393.729z M347.246,393.692c0.01,0.005,0.015,0.015,0.01,0.024
	c-0.004,0.01-0.016,0.014-0.026,0.01c-0.01-0.004-0.014-0.016-0.01-0.025C347.225,393.692,347.236,393.688,347.246,393.692
	L347.246,393.692z M347.174,393.67c0.012,0.002,0.018,0.013,0.016,0.022c-0.002,0.011-0.013,0.017-0.023,0.015
	s-0.018-0.012-0.016-0.022C347.153,393.674,347.164,393.668,347.174,393.67L347.174,393.67z M347.1,393.662
	c0.011,0,0.021,0.009,0.021,0.02c0,0.01-0.01,0.019-0.021,0.019s-0.02-0.009-0.02-0.019
	C347.08,393.671,347.089,393.662,347.1,393.662L347.1,393.662z M347.025,393.67c0.01-0.002,0.021,0.004,0.023,0.015
	c0.002,0.011-0.005,0.021-0.016,0.022s-0.021-0.004-0.023-0.015C347.008,393.683,347.015,393.672,347.025,393.67L347.025,393.67z
	 M346.953,393.692c0.011-0.004,0.022,0,0.026,0.009c0.005,0.01,0,0.021-0.01,0.025s-0.021,0-0.026-0.01
	C346.939,393.707,346.943,393.697,346.953,393.692L346.953,393.692z M346.889,393.729c0.009-0.007,0.021-0.005,0.027,0.004
	c0.007,0.008,0.004,0.02-0.004,0.025c-0.009,0.006-0.021,0.004-0.028-0.004C346.878,393.745,346.88,393.734,346.889,393.729
	L346.889,393.729z M346.832,393.775c0.008-0.008,0.021-0.009,0.028-0.001c0.008,0.007,0.009,0.019,0.002,0.025
	c-0.008,0.008-0.02,0.009-0.028,0.002C346.826,393.795,346.825,393.783,346.832,393.775L346.832,393.775z M346.789,393.832
	c0.005-0.008,0.017-0.012,0.026-0.006c0.01,0.005,0.013,0.016,0.007,0.025c-0.005,0.009-0.017,0.012-0.026,0.007
	S346.783,393.842,346.789,393.832L346.789,393.832z M346.758,393.897c0.004-0.01,0.015-0.015,0.025-0.012
	c0.01,0.003,0.016,0.013,0.012,0.023c-0.003,0.01-0.014,0.015-0.024,0.012S346.754,393.907,346.758,393.897L346.758,393.897z
	 M346.742,393.967c0.001-0.01,0.011-0.018,0.021-0.016c0.011,0,0.02,0.01,0.019,0.02c-0.002,0.01-0.012,0.018-0.022,0.017
	S346.741,393.977,346.742,393.967L346.742,393.967z M346.742,394.037c-0.001-0.01,0.007-0.019,0.018-0.02s0.021,0.006,0.022,0.017
	c0.001,0.01-0.008,0.02-0.019,0.021S346.743,394.048,346.742,394.037L346.742,394.037z M346.758,394.107
	c-0.004-0.01,0.002-0.021,0.013-0.023s0.021,0.002,0.024,0.012c0.004,0.01-0.002,0.021-0.012,0.023
	C346.772,394.123,346.762,394.117,346.758,394.107L346.758,394.107z M346.789,394.172c-0.006-0.009-0.003-0.02,0.007-0.025
	c0.009-0.005,0.021-0.002,0.026,0.007c0.006,0.009,0.003,0.021-0.007,0.026C346.806,394.185,346.794,394.182,346.789,394.172
	L346.789,394.172z M346.832,394.23c-0.007-0.009-0.006-0.021,0.002-0.027c0.009-0.006,0.021-0.006,0.028,0.002
	c0.007,0.008,0.006,0.02-0.002,0.025C346.853,394.238,346.84,394.237,346.832,394.23L346.832,394.23z M346.889,394.277
	c-0.009-0.006-0.011-0.018-0.005-0.025c0.007-0.01,0.019-0.012,0.028-0.006c0.008,0.007,0.011,0.02,0.004,0.027
	S346.897,394.283,346.889,394.277z"/>
<g>
	<path fill="#9B9FAC" d="M14.387,23.809h2.017V19.24c0-0.274-0.106-0.533-0.296-0.727c-0.191-0.194-0.444-0.303-0.713-0.303
		c-0.554,0-1.008,0.461-1.008,1.029V23.809L14.387,23.809z M23.006,25.308h-5.871v-0.001h-0.004h-0.004h-0.005h-0.003h-0.003h-0.002
		H17.11h-0.004h-0.004h-0.004h-0.001h-0.003h-0.004l-0.004-0.001l-0.004-0.001h-0.004h-0.001h-0.003h-0.004h-0.004l-0.004-0.001
		h-0.003H17.06l-0.004-0.001h-0.003h-0.004l-0.004-0.001l-0.004-0.001l0,0h-0.004h-0.004L17.029,25.3l-0.004-0.001h-0.002h-0.002
		h-0.004l-0.004-0.002H17.01c-0.04,0.007-0.081,0.01-0.125,0.01h-3.213h-0.019l-0.001,0.001H7.785c-1.006,0-1.825-0.835-1.825-1.862
		v-9.791l-1.747,1.424c-0.134,0.11-0.297,0.163-0.458,0.163c-0.215,0-0.429-0.097-0.573-0.284c-0.254-0.324-0.201-0.793,0.117-1.051
		l10.725-8.73c0.383-0.313,0.861-0.483,1.351-0.483h0.003c0.489,0,0.97,0.171,1.354,0.485l9.974,8.154
		c0.316,0.257,0.367,0.729,0.114,1.055c-0.253,0.322-0.715,0.375-1.033,0.116l-0.952-0.778v1.955c0,0.414-0.329,0.75-0.733,0.75
		c-0.406,0-0.734-0.336-0.734-0.75v-3.155l-7.556-6.179c-0.256-0.211-0.615-0.211-0.873,0l-7.508,6.113v10.986
		c0,0.199,0.16,0.363,0.356,0.363h5.134V19.24c0-1.393,1.111-2.528,2.477-2.528c0.661,0,1.284,0.264,1.751,0.741
		s0.726,1.113,0.726,1.787v4.568h5.134c0.196,0,0.356-0.164,0.356-0.363v-2.434c0-0.414,0.329-0.75,0.733-0.75
		c0.406,0,0.734,0.336,0.734,0.75v2.434C24.833,24.473,24.015,25.308,23.006,25.308z"/>
</g>
</svg>
