<?xml version="1.0" encoding="utf-8"?>
<!-- Generator: Adobe Illustrator 15.0.0, SVG Export Plug-In . SVG Version: 6.00 Build 0)  -->
<!DOCTYPE svg PUBLIC "-//W3C//DTD SVG 1.1//EN" "http://www.w3.org/Graphics/SVG/1.1/DTD/svg11.dtd">
<svg version="1.1" id="图层_1" xmlns="http://www.w3.org/2000/svg" xmlns:xlink="http://www.w3.org/1999/xlink" x="0px" y="0px"
	 width="30px" height="30px" viewBox="0 0 30 30" enable-background="new 0 0 30 30" xml:space="preserve">
<g>
	<path fill="#9B9FAC" d="M13.07,18.131c3.403,0,6.188,2.708,6.188,6.018c0,0.993-2.072,1.806-3.094,1.806H5.644
		c-1.021,0-3.096-0.813-3.096-1.806c0-3.31,2.785-6.018,6.189-6.018H13.07L13.07,18.131z M10.904,16.624
		c-2.734,0-4.951-2.156-4.951-4.814c0-2.659,2.217-4.814,4.951-4.814s4.95,2.155,4.95,4.814
		C15.854,14.468,13.638,16.624,10.904,16.624L10.904,16.624z M19.098,13.674c2.732,0,4.951-2.155,4.951-4.815
		c0-2.657-2.219-4.813-4.951-4.813c-1.953,0-3.641,1.098-4.448,2.694c1.563,1.215,2.565,3.085,2.565,5.182
		c0,0.449-0.045,0.896-0.139,1.334C17.693,13.524,18.377,13.674,19.098,13.674L19.098,13.674z M24.357,23.005
		c1.02,0,3.094-0.813,3.094-1.807c0-3.31-2.785-6.017-6.189-6.017H16.93c-0.203,0-0.408,0.01-0.611,0.03
		c-0.464,0.789-1.091,1.477-1.835,2.02c3.13,0.506,5.662,2.809,6.419,5.773H24.357z"/>
</g>
</svg>
