<?xml version="1.0" encoding="utf-8"?>
<!-- Generator: Adobe Illustrator 15.0.0, SVG Export Plug-In . SVG Version: 6.00 Build 0)  -->
<!DOCTYPE svg PUBLIC "-//W3C//DTD SVG 1.1//EN" "http://www.w3.org/Graphics/SVG/1.1/DTD/svg11.dtd">
<svg version="1.1" id="图层_1" xmlns="http://www.w3.org/2000/svg" xmlns:xlink="http://www.w3.org/1999/xlink" x="0px" y="0px"
	 width="50px" height="50px" viewBox="0 0 50 50" enable-background="new 0 0 50 50" xml:space="preserve">
<g>
	<path fill="#848793" d="M29.15,11.957c2.904,0.894,5.408,2.708,7.172,5.098c1.719,2.333,2.734,5.216,2.734,8.331
		c0,3.881-1.574,7.401-4.113,9.938h-0.004c-2.539,2.544-6.059,4.122-9.94,4.122c-3.88,0-7.396-1.578-9.936-4.122h-0.004
		c-2.541-2.537-4.115-6.058-4.115-9.938c0-3.115,1.018-5.998,2.741-8.335c1.762-2.386,4.269-4.2,7.174-5.098l0.417,1.365
		c-2.607,0.804-4.86,2.431-6.443,4.581h-0.002c-1.542,2.089-2.458,4.682-2.458,7.486c0,3.486,1.417,6.646,3.699,8.928v0.004
		c2.283,2.283,5.44,3.696,8.928,3.696c3.487,0,6.645-1.413,8.928-3.696v-0.004c2.283-2.282,3.699-5.441,3.699-8.928
		c0-2.799-0.914-5.392-2.455-7.482c-1.584-2.149-3.832-3.775-6.439-4.585L29.15,11.957z"/>
	<path fill-rule="evenodd" clip-rule="evenodd" fill="#A4D6E7" d="M25.039,14.319c-1.042,0-1.884-0.843-1.884-1.882
		c0-1.042,0.842-1.884,1.884-1.884c1.036,0,1.879,0.842,1.879,1.884C26.918,13.477,26.074,14.319,25.039,14.319z"/>
</g>
</svg>
