<?xml version="1.0" standalone="no"?><!DOCTYPE svg PUBLIC "-//W3C//DTD SVG 1.1//EN" "http://www.w3.org/Graphics/SVG/1.1/DTD/svg11.dtd"><svg t="1540380224860" class="icon" style="" viewBox="0 0 1024 1024" version="1.1" xmlns="http://www.w3.org/2000/svg" p-id="8403" xmlns:xlink="http://www.w3.org/1999/xlink" width="20" height="20"><defs><style type="text/css"></style></defs><path d="M575.8 510.8l370.4-370.5c17.4-17.4 17.4-45.7 0-63.1s-45.6-17.4-63.1 0L512.7 447.8 142.2 77.3C131 66 114.5 61.6 99.2 65.7S71.8 81.9 67.6 97.3s0.3 31.8 11.5 43.1l370.5 370.5L79.3 881.3C68 892.6 63.6 909 67.8 924.4a44.39 44.39 0 0 0 31.5 31.5c15.4 4.1 31.8-0.3 43.1-11.5l370.4-370.5 370.4 370.5c17.4 17.3 45.6 17.3 63.1 0 17.4-17.4 17.4-45.6 0-63.1L575.8 510.8z" p-id="8404"></path></svg>