<?xml version="1.0" standalone="no"?><!DOCTYPE svg PUBLIC "-//W3C//DTD SVG 1.1//EN" "http://www.w3.org/Graphics/SVG/1.1/DTD/svg11.dtd"><svg t="1540380199489" class="icon" style="" viewBox="0 0 1024 1024" version="1.1" xmlns="http://www.w3.org/2000/svg" p-id="7614" xmlns:xlink="http://www.w3.org/1999/xlink" width="20" height="20"><defs><style type="text/css"></style></defs><path d="M862.847693 570.474786 161.152307 570.474786c-32.292474 0-58.474786-26.182312-58.474786-58.474786s26.182312-58.474786 58.474786-58.474786l701.695387 0c32.292474 0 58.474786 26.182312 58.474786 58.474786S895.140167 570.474786 862.847693 570.474786z" p-id="7615"></path><path d="M862.847693 862.847693 161.152307 862.847693c-32.292474 0-58.474786-26.182312-58.474786-58.474786 0-32.292474 26.182312-58.474786 58.474786-58.474786l701.695387 0c32.292474 0 58.474786 26.182312 58.474786 58.474786C921.322479 836.665381 895.140167 862.847693 862.847693 862.847693z" p-id="7616"></path><path d="M862.847693 278.100856 161.152307 278.100856c-32.292474 0-58.474786-26.182312-58.474786-58.474786s26.182312-58.474786 58.474786-58.474786l701.695387 0c32.292474 0 58.474786 26.182312 58.474786 58.474786S895.140167 278.100856 862.847693 278.100856z" p-id="7617"></path></svg>