<?xml version="1.0" encoding="utf-8"?>
<!-- Generator: Adobe Illustrator 15.0.0, SVG Export Plug-In . SVG Version: 6.00 Build 0)  -->
<!DOCTYPE svg PUBLIC "-//W3C//DTD SVG 1.1//EN" "http://www.w3.org/Graphics/SVG/1.1/DTD/svg11.dtd">
<svg version="1.1" id="图层_1" xmlns="http://www.w3.org/2000/svg" xmlns:xlink="http://www.w3.org/1999/xlink" x="0px" y="0px"
	 width="160px" height="26px" viewBox="0 0 160 26" enable-background="new 0 0 160 26" xml:space="preserve">
<g>
	<path fill-rule="evenodd" clip-rule="evenodd" d="M50.388,0.91v12.819c0,2.101-0.563,4.124-1.579,5.884
		c-1.015,1.757-2.486,3.255-4.308,4.307l0,0c-1.823,1.052-3.854,1.58-5.886,1.58c-2.029,0-4.062-0.528-5.883-1.58l0,0
		c-1.822-1.052-3.293-2.55-4.306-4.307l0,0c-1.017-1.76-1.578-3.783-1.578-5.884V0.91V0.5h0.411c0.653,0,1.299,0.131,1.896,0.378
		c0.597,0.247,1.146,0.609,1.61,1.071h0.001c0.464,0.465,0.827,1.016,1.076,1.612c0.247,0.6,0.378,1.248,0.378,1.901v8.266
		c0,1.145,0.304,2.241,0.856,3.197l0,0c0.551,0.959,1.353,1.771,2.34,2.34c0.986,0.571,2.094,0.856,3.198,0.856
		c1.108,0,2.213-0.285,3.2-0.856c0.99-0.569,1.79-1.381,2.343-2.34c0.551-0.952,0.855-2.056,0.855-3.197V5.463h0.002
		c0-0.653,0.128-1.301,0.375-1.895C45.636,2.97,46,2.417,46.464,1.956c0.462-0.465,1.013-0.827,1.611-1.073
		c0.6-0.251,1.246-0.382,1.901-0.382h0.411V0.91z"/>
	<path fill-rule="evenodd" clip-rule="evenodd" d="M111.499,25.087V12.271c0-2.1,0.562-4.123,1.581-5.883
		c1.014-1.761,2.484-3.258,4.303-4.31h0.004c1.824-1.052,3.854-1.578,5.884-1.578c2.029,0,4.062,0.526,5.884,1.578l0,0
		c1.82,1.052,3.292,2.549,4.309,4.31l0,0c1.017,1.76,1.578,3.783,1.578,5.883v12.816V25.5h-0.411c-0.657,0-1.302-0.132-1.898-0.378
		c-0.593-0.246-1.141-0.612-1.605-1.077l0,0c-0.469-0.468-0.834-1.017-1.078-1.609c-0.25-0.597-0.381-1.241-0.381-1.898v-8.267
		c0-1.145-0.305-2.244-0.853-3.199l-0.004,0.003c-0.552-0.959-1.354-1.773-2.344-2.344l0,0c-0.988-0.571-2.091-0.856-3.196-0.856
		c-1.106,0-2.213,0.285-3.2,0.856l0,0c-0.988,0.571-1.79,1.385-2.341,2.341c-0.552,0.955-0.853,2.055-0.853,3.199v8.267
		c0,0.654-0.132,1.299-0.379,1.896c-0.25,0.596-0.609,1.145-1.077,1.609v0.003c-0.466,0.462-1.013,0.827-1.61,1.074
		c-0.593,0.246-1.237,0.378-1.897,0.378h-0.414V25.087z"/>
	<path fill-rule="evenodd" clip-rule="evenodd" d="M103.788,25.087V5.463c0-0.653,0.131-1.298,0.378-1.895l0,0
		c0.244-0.597,0.609-1.145,1.074-1.61c0.465-0.464,1.018-0.83,1.609-1.077c0.601-0.251,1.244-0.382,1.901-0.382h0.411v0.41v24.177
		V25.5h-0.411h-4.553h-0.41V25.087z"/>
	<path fill-rule="evenodd" clip-rule="evenodd" d="M157.828,11.017h0.003v0.004c0.6,0.596,0.968,1.424,0.968,2.337
		c0,0.911-0.371,1.738-0.968,2.338l0,0c-0.603,0.599-1.427,0.968-2.341,0.968c-0.91,0-1.737-0.372-2.337-0.968l0,0
		c-0.597-0.601-0.969-1.428-0.969-2.338c0-0.914,0.369-1.741,0.969-2.337v-0.004c0.596-0.596,1.427-0.968,2.337-0.968
		C156.404,10.049,157.229,10.418,157.828,11.017z"/>
	<path fill-rule="evenodd" clip-rule="evenodd" d="M97.806,4.162c2.26,2.26,3.661,5.383,3.661,8.833
		c0,3.447-1.401,6.573-3.661,8.834c-2.265,2.261-5.388,3.659-8.837,3.659c-3.447,0-6.572-1.398-8.833-3.659
		s-3.659-5.387-3.659-8.834c0-3.45,1.399-6.576,3.659-8.837c2.259-2.26,5.382-3.658,8.833-3.658
		C92.418,0.5,95.541,1.898,97.806,4.162L97.806,4.162z M96.041,12.95c0-1.956-0.789-3.725-2.07-5.005
		c-1.28-1.279-3.053-2.071-5.009-2.071c-1.953,0-3.723,0.792-5.002,2.071h-0.003c-1.28,1.28-2.069,3.049-2.069,5.005
		c0,1.953,0.791,3.724,2.072,5.002v0.004c1.276,1.279,3.046,2.071,5.002,2.071s3.726-0.792,5.009-2.075l0,0
		C95.249,16.674,96.041,14.903,96.041,12.95z"/>
	<path d="M73.179,11.021c0.596,0.596,0.968,1.424,0.968,2.337c0,0.911-0.372,1.738-0.97,2.338c-0.598,0.599-1.425,0.968-2.339,0.968
		c-0.913,0-1.74-0.372-2.337-0.968c-0.598-0.601-0.97-1.428-0.97-2.338c0-0.914,0.37-1.741,0.968-2.341
		c0.599-0.596,1.426-0.968,2.339-0.968c0.914,0,1.739,0.372,2.337,0.968L73.179,11.021z"/>
	<path d="M73.732,25.5h-8.904c-3.304,0-6.553-1.355-8.908-3.713c-2.171-2.17-3.587-5.19-3.587-8.781
		c0-3.646,1.368-6.702,3.546-8.882C58.178,1.821,61.378,0.5,64.828,0.5h8.904h0.412v0.41c0,1.276-0.615,2.534-1.569,3.46
		c-0.93,0.907-2.189,1.503-3.52,1.503h-4.227c-1.909,0-3.549,0.818-4.75,2.058c-1.315,1.36-2.106,3.227-2.146,5.086L57.93,13.16
		h0.001c0,1.734,0.675,3.457,1.855,4.754c1.178,1.296,2.863,2.168,4.883,2.209l0.159,0.004v-0.004h4.231
		c1.284,0,2.648,0.523,3.638,1.484c0.866,0.844,1.447,2.021,1.447,3.479V25.5H73.732z"/>
	<path d="M158.386,25.5h-8.907c-3.303,0-6.551-1.355-8.907-3.713c-2.171-2.17-3.584-5.19-3.584-8.781
		c0-3.646,1.365-6.702,3.543-8.882c2.301-2.302,5.501-3.624,8.948-3.624h8.907h0.411v0.41c0,1.276-0.616,2.534-1.568,3.46
		c-0.933,0.907-2.192,1.503-3.521,1.503h-4.229c-1.908,0-3.547,0.818-4.748,2.058c-1.314,1.36-2.107,3.227-2.145,5.086l-0.004,0.142
		h0.004c0,1.734,0.673,3.457,1.855,4.754c1.177,1.296,2.859,2.168,4.883,2.209l0.154,0.004v-0.004h4.232
		c1.282,0,2.648,0.523,3.637,1.484c0.868,0.844,1.449,2.021,1.449,3.479V25.5H158.386z"/>
	<path fill-rule="evenodd" clip-rule="evenodd" d="M1.201,20.092h0.008c0.071-1.328,0.621-2.578,1.556-3.524
		c1.002-1.01,2.358-1.584,3.777-1.584h8.811c1.606,0,3.091-0.865,3.893-2.27c0.805-1.404,0.805-3.143,0-4.546
		c-0.802-1.405-2.287-2.271-3.893-2.271H6.541c-1.419,0-2.772-0.567-3.774-1.578C1.765,3.306,1.201,1.934,1.201,0.5h14.151
		c3.515,0,6.761,1.895,8.518,4.97c1.759,3.075,1.759,6.865,0,9.94c-1.757,3.074-5.003,4.97-8.518,4.97H6.552
		c-0.157,2.234-2.126,4.707-5.352,4.707V20.092z"/>
</g>
</svg>
