<?xml version="1.0" encoding="utf-8"?>
<!-- Generator: Adobe Illustrator 15.0.0, SVG Export Plug-In . SVG Version: 6.00 Build 0)  -->
<!DOCTYPE svg PUBLIC "-//W3C//DTD SVG 1.1//EN" "http://www.w3.org/Graphics/SVG/1.1/DTD/svg11.dtd">
<svg version="1.1" id="图层_1" xmlns="http://www.w3.org/2000/svg" xmlns:xlink="http://www.w3.org/1999/xlink" x="0px" y="0px"
	 width="212px" height="100px" viewBox="0 0 212 100" enable-background="new 0 0 212 100" xml:space="preserve">
<g>
	<path fill-rule="evenodd" clip-rule="evenodd" fill="#FFFFFF" d="M0,56.298c28.149,28.111,66.311,43.894,106.091,43.869
		c39.784-0.024,77.795-15.721,105.907-43.869L155.526-0.167c-13.115,13.131-30.918,20.518-49.484,20.53
		c-18.563,0.012-36.438-7.415-49.573-20.53L0,56.298z"/>
	<path fill-rule="evenodd" clip-rule="evenodd" fill="#040000" d="M106.001,63.074c1.549,0,2.81-1.26,2.81-2.81
		c0-1.549-1.261-2.809-2.81-2.809s-2.813,1.26-2.813,2.809C103.188,61.814,104.452,63.074,106.001,63.074z"/>
	
		<path fill-rule="evenodd" clip-rule="evenodd" fill="#B4B3B3" stroke="#B4B3B3" stroke-width="0.7089" stroke-miterlimit="22.926" d="
		M106.001,63.074c1.549,0,2.81-1.26,2.81-2.81c0-1.549-1.261-2.809-2.81-2.809s-2.813,1.26-2.813,2.809
		C103.188,61.814,104.452,63.074,106.001,63.074z"/>
</g>
</svg>
