<?xml version="1.0" encoding="utf-8"?>
<!-- Generator: Adobe Illustrator 15.0.0, SVG Export Plug-In . SVG Version: 6.00 Build 0)  -->
<!DOCTYPE svg PUBLIC "-//W3C//DTD SVG 1.1//EN" "http://www.w3.org/Graphics/SVG/1.1/DTD/svg11.dtd">
<svg version="1.1" id="图层_1" xmlns="http://www.w3.org/2000/svg" xmlns:xlink="http://www.w3.org/1999/xlink" x="0px" y="0px"
	 width="100px" height="212px" viewBox="0 0 100 212" enable-background="new 0 0 100 212" xml:space="preserve">
<g>
	<path fill-rule="evenodd" clip-rule="evenodd" fill="#FFFFFF" d="M56.302,212c28.112-28.148,43.89-66.311,43.865-106.094
		C100.143,66.12,84.446,28.112,56.302,0L-0.167,56.471c13.135,13.117,20.522,30.92,20.535,49.484
		c0.012,18.565-7.416,36.441-20.535,49.581L56.302,212z"/>
	<path fill-rule="evenodd" clip-rule="evenodd" fill="#040000" d="M60.257,108.812c1.549,0,2.81-1.264,2.81-2.81
		c0-1.549-1.261-2.815-2.81-2.815s-2.809,1.267-2.809,2.815C57.448,107.548,58.708,108.812,60.257,108.812z"/>
	
		<path fill-rule="evenodd" clip-rule="evenodd" fill="#B4B3B3" stroke="#B4B3B3" stroke-width="0.7089" stroke-miterlimit="22.926" d="
		M60.257,108.812c1.549,0,2.81-1.264,2.81-2.81c0-1.549-1.261-2.815-2.81-2.815s-2.809,1.267-2.809,2.815
		C57.448,107.548,58.708,108.812,60.257,108.812z"/>
</g>
<path fill-rule="evenodd" clip-rule="evenodd" fill="#FFFFFF" d="M321.735,424.075c6.753-6.762,10.543-15.929,10.537-25.485
	s-3.776-18.687-10.537-25.439l-13.564,13.564c3.155,3.151,4.93,7.428,4.933,11.887c0.003,4.46-1.781,8.754-4.933,11.91
	L321.735,424.075z"/>
<circle fill-rule="evenodd" clip-rule="evenodd" fill="#040000" cx="322.686" cy="398.613" r="0.675"/>
<circle fill-rule="evenodd" clip-rule="evenodd" fill="#B4B3B3" stroke="#B4B3B3" stroke-width="0.7089" stroke-miterlimit="22.926" cx="322.686" cy="398.613" r="0.675"/>
</svg>
