<?xml version="1.0" encoding="utf-8"?>
<!-- Generator: Adobe Illustrator 15.0.0, SVG Export Plug-In . SVG Version: 6.00 Build 0)  -->
<!DOCTYPE svg PUBLIC "-//W3C//DTD SVG 1.1//EN" "http://www.w3.org/Graphics/SVG/1.1/DTD/svg11.dtd">
<svg version="1.1" id="图层_1" xmlns="http://www.w3.org/2000/svg" xmlns:xlink="http://www.w3.org/1999/xlink" x="0px" y="0px"
	 width="100px" height="212px" viewBox="0 0 100 212" enable-background="new 0 0 100 212" xml:space="preserve">
<g>
	<path fill-rule="evenodd" clip-rule="evenodd" fill="#FFFFFF" d="M43.702,0C15.589,28.147-0.188,66.313-0.168,106.096
		c0.024,39.78,15.719,77.792,43.87,105.904l56.466-56.469c-13.135-13.119-20.518-30.917-20.534-49.486
		c-0.008-18.566,7.415-36.438,20.534-49.578L43.702,0z"/>
	<path fill-rule="evenodd" clip-rule="evenodd" fill="#040000" d="M39.75,108.812c1.549,0,2.809-1.264,2.809-2.81
		c0-1.549-1.26-2.815-2.809-2.815c-1.549,0-2.812,1.267-2.812,2.815C36.939,107.548,38.201,108.812,39.75,108.812z"/>
	
		<path fill-rule="evenodd" clip-rule="evenodd" fill="#040000" stroke="#040000" stroke-width="0.7089" stroke-miterlimit="22.926" d="
		M39.75,108.812c1.549,0,2.809-1.264,2.809-2.81c0-1.549-1.26-2.815-2.809-2.815c-1.549,0-2.812,1.267-2.812,2.815
		C36.939,107.548,38.201,108.812,39.75,108.812z"/>
</g>
</svg>
