<?xml version="1.0" encoding="utf-8"?>
<!-- Generator: Adobe Illustrator 15.0.0, SVG Export Plug-In . SVG Version: 6.00 Build 0)  -->
<!DOCTYPE svg PUBLIC "-//W3C//DTD SVG 1.1//EN" "http://www.w3.org/Graphics/SVG/1.1/DTD/svg11.dtd">
<svg version="1.1" id="图层_1" xmlns="http://www.w3.org/2000/svg" xmlns:xlink="http://www.w3.org/1999/xlink" x="0px" y="0px"
	 width="212px" height="100px" viewBox="0 0 212 100" enable-background="new 0 0 212 100" xml:space="preserve">
<g>
	<path fill-rule="evenodd" clip-rule="evenodd" fill="#FFFFFF" d="M212.001,43.701c-28.148-28.112-66.314-43.89-106.09-43.868
		C66.123-0.143,28.115,15.554-0.001,43.701l56.477,56.466c13.119-13.133,30.913-20.519,49.484-20.532
		c18.563-0.01,36.434,7.415,49.573,20.532L212.001,43.701z"/>
	<path fill-rule="evenodd" clip-rule="evenodd" fill="#040000" d="M106.004,42.544c1.549,0,2.81-1.262,2.81-2.809
		c0-1.549-1.261-2.815-2.81-2.815s-2.809,1.267-2.809,2.815C103.195,41.282,104.455,42.544,106.004,42.544z"/>
	
		<path fill-rule="evenodd" clip-rule="evenodd" fill="#040000" stroke="#040000" stroke-width="0.7089" stroke-miterlimit="22.926" d="
		M106.004,42.544c1.549,0,2.81-1.262,2.81-2.809c0-1.549-1.261-2.815-2.81-2.815s-2.809,1.267-2.809,2.815
		C103.195,41.282,104.455,42.544,106.004,42.544z"/>
</g>
</svg>
