<?xml version="1.0" encoding="utf-8"?>
<!-- Generator: Adobe Illustrator 15.0.0, SVG Export Plug-In . SVG Version: 6.00 Build 0)  -->
<!DOCTYPE svg PUBLIC "-//W3C//DTD SVG 1.1//EN" "http://www.w3.org/Graphics/SVG/1.1/DTD/svg11.dtd">
<svg version="1.1" id="图层_1" xmlns="http://www.w3.org/2000/svg" xmlns:xlink="http://www.w3.org/1999/xlink" x="0px" y="0px"
	 width="100px" height="212px" viewBox="0 0 100 212" enable-background="new 0 0 100 212" xml:space="preserve">
<g>
	<path fill-rule="evenodd" clip-rule="evenodd" fill="#FFFFFF" d="M43.7,0C15.587,28.146-0.192,66.311-0.168,106.095
		C-0.144,145.875,15.551,183.887,43.7,212l56.468-56.47c-13.135-13.119-20.522-30.921-20.534-49.484
		c-0.008-18.568,7.415-36.439,20.534-49.577L43.7,0z"/>
	
		<path fill-rule="evenodd" clip-rule="evenodd" fill="#040000" stroke="#332C2B" stroke-width="0.7087" stroke-miterlimit="22.9256" d="
		M39.748,108.811c1.547,0,2.812-1.264,2.812-2.813c0-1.546-1.265-2.809-2.812-2.809c-1.549,0-2.811,1.263-2.811,2.809
		C36.937,107.547,38.199,108.811,39.748,108.811z"/>
</g>
</svg>
