<?xml version="1.0" encoding="utf-8"?>
<!-- Generator: Adobe Illustrator 15.0.0, SVG Export Plug-In . SVG Version: 6.00 Build 0)  -->
<!DOCTYPE svg PUBLIC "-//W3C//DTD SVG 1.1//EN" "http://www.w3.org/Graphics/SVG/1.1/DTD/svg11.dtd">
<svg version="1.1" id="图层_1" xmlns="http://www.w3.org/2000/svg" xmlns:xlink="http://www.w3.org/1999/xlink" x="0px" y="0px"
	 width="100px" height="212px" viewBox="0 0 100 212" enable-background="new 0 0 100 212" xml:space="preserve">
<g>
	<path fill-rule="evenodd" clip-rule="evenodd" fill="#FFFFFF" d="M56.301,212c28.116-28.148,43.891-66.311,43.866-106.094
		C100.143,66.12,84.449,28.112,56.301,0L-0.167,56.471c13.137,13.117,20.522,30.92,20.536,49.484
		c0.01,18.565-7.415,36.441-20.536,49.581L56.301,212z"/>
	<path fill-rule="evenodd" clip-rule="evenodd" fill="#040000" d="M60.256,108.812c1.55,0,2.81-1.264,2.81-2.81
		c0-1.549-1.26-2.815-2.81-2.815c-1.549,0-2.809,1.267-2.809,2.815C57.447,107.548,58.707,108.812,60.256,108.812z"/>
	
		<path fill-rule="evenodd" clip-rule="evenodd" fill="#040000" stroke="#040000" stroke-width="0.7089" stroke-miterlimit="22.926" d="
		M60.256,108.812c1.55,0,2.81-1.264,2.81-2.81c0-1.549-1.26-2.815-2.81-2.815c-1.549,0-2.809,1.267-2.809,2.815
		C57.447,107.548,58.707,108.812,60.256,108.812z"/>
</g>
</svg>
