<?xml version="1.0" encoding="utf-8"?>
<!-- Generator: Adobe Illustrator 15.0.0, SVG Export Plug-In . SVG Version: 6.00 Build 0)  -->
<!DOCTYPE svg PUBLIC "-//W3C//DTD SVG 1.1//EN" "http://www.w3.org/Graphics/SVG/1.1/DTD/svg11.dtd">
<svg version="1.1" id="图层_1" xmlns="http://www.w3.org/2000/svg" xmlns:xlink="http://www.w3.org/1999/xlink" x="0px" y="0px"
	 width="212px" height="100px" viewBox="0 0 212 100" enable-background="new 0 0 212 100" xml:space="preserve">
<g>
	<path fill-rule="evenodd" clip-rule="evenodd" fill="#FFFFFF" d="M211.998,43.701C183.857,15.589,145.69-0.189,105.906-0.167
		C66.122-0.143,28.11,15.554,0.002,43.701l56.469,56.466c13.123-13.133,30.918-20.518,49.484-20.532
		c18.571-0.01,36.442,7.416,49.578,20.532L211.998,43.701z"/>
	<path fill-rule="evenodd" clip-rule="evenodd" fill="#040000" d="M106.004,42.544c1.549,0,2.81-1.262,2.81-2.809
		c0-1.549-1.261-2.815-2.81-2.815s-2.813,1.267-2.813,2.815C103.19,41.282,104.455,42.544,106.004,42.544z"/>
	
		<path fill-rule="evenodd" clip-rule="evenodd" fill="#B4B3B3" stroke="#B4B3B3" stroke-width="0.7089" stroke-miterlimit="22.926" d="
		M106.004,42.544c1.549,0,2.81-1.262,2.81-2.809c0-1.549-1.261-2.815-2.81-2.815s-2.813,1.267-2.813,2.815
		C103.19,41.282,104.455,42.544,106.004,42.544z"/>
</g>
</svg>
