<?xml version="1.0" encoding="utf-8"?>
<!-- Generator: Adobe Illustrator 15.0.0, SVG Export Plug-In . SVG Version: 6.00 Build 0)  -->
<!DOCTYPE svg PUBLIC "-//W3C//DTD SVG 1.1//EN" "http://www.w3.org/Graphics/SVG/1.1/DTD/svg11.dtd">
<svg version="1.1" id="图层_1" xmlns="http://www.w3.org/2000/svg" xmlns:xlink="http://www.w3.org/1999/xlink" x="0px" y="0px"
	 width="212px" height="100px" viewBox="0 0 212 100" enable-background="new 0 0 212 100" xml:space="preserve">
<g>
	<path fill-rule="evenodd" clip-rule="evenodd" fill="#FFFFFF" d="M212,44.144C183.852,16.032,145.686,0.252,105.905,0.276
		C66.121,0.301,28.112,15.997,0,44.144l56.471,56.466c13.118-13.131,30.919-20.522,49.483-20.53
		c18.567-0.012,36.438,7.415,49.578,20.53L212,44.144z"/>
	
		<path fill-rule="evenodd" clip-rule="evenodd" fill="#040000" stroke="#332C2B" stroke-width="0.7087" stroke-miterlimit="22.9256" d="
		M105.999,42.987c1.549,0,2.813-1.262,2.813-2.811c0-1.547-1.265-2.811-2.813-2.811c-1.547,0-2.81,1.264-2.81,2.811
		C103.189,41.725,104.452,42.987,105.999,42.987z"/>
</g>
</svg>
