<?xml version="1.0" encoding="utf-8"?>
<!-- Generator: Adobe Illustrator 15.0.0, SVG Export Plug-In . SVG Version: 6.00 Build 0)  -->
<!DOCTYPE svg PUBLIC "-//W3C//DTD SVG 1.1//EN" "http://www.w3.org/Graphics/SVG/1.1/DTD/svg11.dtd">
<svg version="1.1" id="图层_1" xmlns="http://www.w3.org/2000/svg" xmlns:xlink="http://www.w3.org/1999/xlink" x="0px" y="0px"
	 width="100px" height="212px" viewBox="0 0 100 212" enable-background="new 0 0 100 212" xml:space="preserve">
<g>
	<path fill-rule="evenodd" clip-rule="evenodd" fill="#FFFFFF" d="M43.701,0C15.588,28.146-0.188,66.313-0.169,106.095
		c0.026,39.78,15.721,77.792,43.87,105.905l56.469-56.469c-13.136-13.12-20.522-30.918-20.53-49.486
		c-0.017-18.567,7.411-36.438,20.53-49.578L43.701,0z"/>
	<path fill-rule="evenodd" clip-rule="evenodd" fill="#040000" d="M39.749,108.811c1.549,0,2.812-1.265,2.812-2.809
		c0-1.549-1.262-2.815-2.812-2.815c-1.549,0-2.809,1.267-2.809,2.815C36.94,107.546,38.2,108.811,39.749,108.811z"/>
	
		<path fill-rule="evenodd" clip-rule="evenodd" fill="#B4B3B3" stroke="#B4B3B3" stroke-width="0.7089" stroke-miterlimit="22.926" d="
		M39.749,108.811c1.549,0,2.812-1.265,2.812-2.809c0-1.549-1.262-2.815-2.812-2.815c-1.549,0-2.809,1.267-2.809,2.815
		C36.94,107.546,38.2,108.811,39.749,108.811z"/>
</g>
</svg>
