<?xml version="1.0" encoding="utf-8"?>
<!-- Generator: Adobe Illustrator 15.0.0, SVG Export Plug-In . SVG Version: 6.00 Build 0)  -->
<!DOCTYPE svg PUBLIC "-//W3C//DTD SVG 1.1//EN" "http://www.w3.org/Graphics/SVG/1.1/DTD/svg11.dtd">
<svg version="1.1" id="图层_1" xmlns="http://www.w3.org/2000/svg" xmlns:xlink="http://www.w3.org/1999/xlink" x="0px" y="0px"
	 width="32px" height="32px" viewBox="0 0 32 32" enable-background="new 0 0 32 32" xml:space="preserve">
<path fill="#F75226" d="M22.679,16.483c0,3.814-3.093,6.908-6.908,6.908c-3.814,0-6.904-3.094-6.904-6.908
	c0-3.814,3.09-6.908,6.904-6.908C19.586,9.576,22.679,12.669,22.679,16.483z"/>
<path fill="#F75226" d="M15.772,3.805c-6.992,0-12.679,5.688-12.679,12.68c0,6.992,5.688,12.68,12.679,12.68
	c6.991,0,12.68-5.688,12.68-12.68C28.452,9.493,22.764,3.805,15.772,3.805 M15.772,31.041c-3.07,0-5.922-0.955-8.275-2.588
	c-2.685-1.86-4.715-4.602-5.674-7.807c-0.396-1.32-0.606-2.718-0.606-4.162c0-2.45,0.606-4.759,1.679-6.787
	C3.971,7.669,5.51,5.923,7.37,4.603c2.373-1.686,5.275-2.674,8.402-2.674c2.595,0,5.034,0.68,7.146,1.876
	c2.672,1.512,4.823,3.845,6.104,6.653c0.842,1.837,1.308,3.878,1.308,6.026c0,2.862-0.831,5.537-2.266,7.793
	c-1.334,2.098-3.19,3.83-5.383,5.018C20.623,30.407,18.27,31.041,15.772,31.041L15.772,31.041z"/>
</svg>
