<?xml version="1.0" encoding="utf-8"?>
<!-- Generator: Adobe Illustrator 15.0.0, SVG Export Plug-In . SVG Version: 6.00 Build 0)  -->
<!DOCTYPE svg PUBLIC "-//W3C//DTD SVG 1.1//EN" "http://www.w3.org/Graphics/SVG/1.1/DTD/svg11.dtd">
<svg version="1.1" id="图层_1" xmlns="http://www.w3.org/2000/svg" xmlns:xlink="http://www.w3.org/1999/xlink" x="0px" y="0px"
	 width="58px" height="58px" viewBox="0 0 58 58" enable-background="new 0 0 58 58" xml:space="preserve">
<path fill-rule="evenodd" clip-rule="evenodd" fill="none" stroke="#221616" stroke-width="0.5669" stroke-miterlimit="22.9256" d="
	M150.238,342.406c7.503,0,13.621-6.118,13.621-13.62s-6.118-13.62-13.621-13.62c-7.502,0-13.62,6.118-13.62,13.62
	S142.736,342.406,150.238,342.406z"/>
<g>
	<path fill="#221616" d="M145.363,326.724c-0.398,0.381-0.415,1.014-0.034,1.413c0.38,0.4,1.013,0.416,1.413,0.036l3.496-3.313
		l3.497,3.313c0.399,0.38,1.032,0.364,1.413-0.036c0.381-0.399,0.365-1.032-0.035-1.413l-4.135-3.918l-0.012-0.014
		c-0.381-0.401-1.016-0.419-1.418-0.038l0.689,0.728l-0.688-0.724L145.363,326.724z"/>
	<path fill="#221616" d="M151.241,323.481c0-0.554-0.448-1.003-1.003-1.003c-0.553,0-1.002,0.449-1.002,1.003v10.609
		c0,0.554,0.449,1.002,1.002,1.002c0.555,0,1.003-0.448,1.003-1.002V323.481z"/>
</g>
<g>
	
		<path fill-rule="evenodd" clip-rule="evenodd" fill="none" stroke="#221616" stroke-width="0.5669" stroke-miterlimit="22.9256" d="
		M29,42.62c7.502,0,13.62-6.118,13.62-13.62S36.502,15.38,29,15.38S15.379,21.498,15.379,29S21.498,42.62,29,42.62z"/>
	<g>
		<path fill="#221616" d="M24.125,26.938c-0.399,0.381-0.416,1.014-0.035,1.414c0.381,0.399,1.014,0.416,1.413,0.035L29,25.073
			l3.496,3.313c0.399,0.381,1.032,0.364,1.413-0.035c0.381-0.4,0.365-1.033-0.035-1.414l-4.135-3.918l-0.012-0.014
			c-0.381-0.401-1.016-0.418-1.417-0.038L29,23.695l-0.689-0.724L24.125,26.938z"/>
		<path fill="#221616" d="M30.002,23.695c0-0.554-0.448-1.002-1.002-1.002s-1.003,0.448-1.003,1.002v10.609
			c0,0.554,0.449,1.002,1.003,1.002s1.002-0.448,1.002-1.002V23.695z"/>
	</g>
</g>
</svg>
