<?xml version="1.0" encoding="utf-8"?>
<!-- Generator: Adobe Illustrator 15.0.0, SVG Export Plug-In . SVG Version: 6.00 Build 0)  -->
<!DOCTYPE svg PUBLIC "-//W3C//DTD SVG 1.1//EN" "http://www.w3.org/Graphics/SVG/1.1/DTD/svg11.dtd">
<svg version="1.1" id="图层_1" xmlns="http://www.w3.org/2000/svg" xmlns:xlink="http://www.w3.org/1999/xlink" x="0px" y="0px"
	 width="6px" height="6px" viewBox="0 0 6 6" enable-background="new 0 0 6 6" xml:space="preserve">
<g>
	<path fill="#A6DAEF" d="M3,5.93c-0.809,0-1.541-0.328-2.071-0.857V5.07H0.928C0.397,4.541,0.069,3.808,0.069,3
		c0-0.808,0.328-1.541,0.858-2.071l0.001,0v0C1.459,0.398,2.191,0.07,3,0.07c0.808,0,1.54,0.328,2.07,0.858l0.001,0l0.001,0
		C5.602,1.459,5.931,2.192,5.931,3c0,0.808-0.329,1.541-0.858,2.07H5.071L5.07,5.072C4.54,5.602,3.808,5.93,3,5.93L3,5.93z
		 M1.691,2.515C1.548,2.377,1.32,2.382,1.184,2.525c-0.138,0.143-0.133,0.37,0.01,0.507l1.229,1.185l0.255,0.246l0.25-0.254
		l1.887-1.915C4.952,2.153,4.95,1.925,4.81,1.786C4.668,1.647,4.44,1.649,4.302,1.791L2.664,3.453L1.691,2.515z"/>
</g>
</svg>
