<?xml version="1.0" standalone="no"?><!DOCTYPE svg PUBLIC "-//W3C//DTD SVG 1.1//EN" "http://www.w3.org/Graphics/SVG/1.1/DTD/svg11.dtd"><svg t="1532486729558" class="icon" style="" viewBox="0 0 1046 1024" version="1.1" xmlns="http://www.w3.org/2000/svg" p-id="2165" xmlns:xlink="http://www.w3.org/1999/xlink" width="204.296875" height="200"><defs><style type="text/css"></style></defs><path d="M1020.586667 518.030222C1020.586667 246.215111 797.969067 25.895822 523.377778 25.895822c-274.591289 0-497.208889 220.342044-497.208889 492.1344C26.168889 789.799822 248.786489 1010.119111 523.377778 1010.119111c274.591289 0 497.208889-220.342044 497.208889-492.111644z m-522.535823-6.485333c-2.389333 9.193244 0.455111 18.932622 7.486578 25.417955l153.076622 141.312a26.350933 26.350933 0 0 0 37.000534-1.251555 25.713778 25.713778 0 0 0-1.274311-36.613689l-144.839111-133.711644 0.045511-1.615645V297.870222c0-14.313244-11.719111-25.895822-26.168889-25.895822-14.449778 0-26.168889 11.605333-26.168889 25.895822v207.212089c0 2.230044 0.250311 4.391822 0.841955 6.462578z m-419.544177 6.485333c0-243.188622 199.179378-440.32 444.871111-440.32s444.871111 197.131378 444.871111 440.32c0 243.188622-199.179378 440.32-444.871111 440.32S78.506667 761.218844 78.506667 518.030222z m751.342933 370.301156a26.350933 26.350933 0 0 0-25.417956-7.190756c-9.147733 2.321067-16.315733 9.352533-18.773333 18.386489-2.4576 9.033956 0.227556 18.682311 6.9632 25.235911l91.158756 91.249778c6.530844 6.7584 16.247467 9.489067 25.3952 7.168 9.147733-2.321067 16.338489-9.329778 18.773333-18.363733a25.713778 25.713778 0 0 0-6.9632-25.235911l-91.136-91.249778z m-589.255111 36.408889a25.713778 25.713778 0 0 0-0.500622-36.317867 26.350933 26.350933 0 0 0-36.704711-0.091022l-91.158756 91.249778a25.713778 25.713778 0 0 0-6.9632 25.235911c2.4576 9.033956 9.6256 16.042667 18.773333 18.363733 9.170489 2.321067 18.887111-0.4096 25.417956-7.168l91.136-91.249778zM850.284089 51.8144c79.507911 0.022756 143.997156 63.761067 144.133689 142.449778 0 14.336 11.719111 25.918578 26.168889 25.918578 14.449778 0 26.168889-11.605333 26.168889-25.895823C1046.755556 87.085511 958.714311 0 850.284089 0h-25.759289c-14.449778 0-26.168889 11.605333-26.168889 25.895822 0 14.313244 11.719111 25.895822 26.168889 25.895822h25.759289zM196.471467 0C88.064 0 0 87.108267 0 194.264178c0 14.290489 11.719111 25.895822 26.168889 25.895822 14.449778 0 26.168889-11.605333 26.168889-25.895822 0-78.552178 64.625778-142.449778 144.133689-142.449778h25.759289c14.449778 0 26.168889-11.605333 26.168888-25.918578C248.399644 11.605333 236.657778 0 222.230756 0H196.471467z" p-id="2166" fill="#c9caca"></path></svg>