<?xml version="1.0" standalone="no"?><!DOCTYPE svg PUBLIC "-//W3C//DTD SVG 1.1//EN" "http://www.w3.org/Graphics/SVG/1.1/DTD/svg11.dtd"><svg t="1524191710846" class="icon" style="" viewBox="0 0 1024 1024" version="1.1" xmlns="http://www.w3.org/2000/svg" p-id="2788" xmlns:xlink="http://www.w3.org/1999/xlink" width="32" height="32"><defs><style type="text/css"></style></defs><path d="M910.051556 917.404444H161.834667a14.222222 14.222222 0 1 1 0-28.444444h748.216889a14.222222 14.222222 0 1 1 0 28.444444zM821.546667 341.518222a42.339556 42.339556 0 0 1-30.293334-12.629333l-120.817777-122.538667a43.52 43.52 0 0 1 0-60.828444l40.291555-40.903111c15.985778-16.298667 44.359111-16.355556 60.529778-0.028445l120.931555 122.595556c16.483556 16.881778 16.469333 44.145778 0 60.828444l-40.419555 40.874667a42.154667 42.154667 0 0 1-30.222222 12.629333zM740.977778 120.376889a13.824 13.824 0 0 0-9.955556 4.152889l-40.32 40.931555a15.132444 15.132444 0 0 0-0.014222 20.906667l120.789333 122.510222c5.319111 5.347556 14.72 5.418667 20.024889 0.014222l40.448-40.888888a15.189333 15.189333 0 0 0-0.056889-20.920889l-120.860444-122.524445a14.108444 14.108444 0 0 0-10.055111-4.181333zM378.311111 790.926222a42.382222 42.382222 0 0 1-30.222222-12.586666l-121.002667-122.581334a43.505778 43.505778 0 0 1-0.071111-60.8l362.766222-367.786666c15.886222-16.099556 44.714667-16.071111 60.544 0l120.846223 122.567111a43.349333 43.349333 0 0 1-0.056889 60.885333l-362.524445 367.672889a42.282667 42.282667 0 0 1-30.279111 12.629333z m241.749333-547.968a14.136889 14.136889 0 0 0-10.026666 4.181334L247.281778 614.912a15.089778 15.089778 0 0 0 0.056889 20.864l120.945777 122.538667c5.333333 5.333333 14.762667 5.376 20.053334-0.014223l362.581333-367.701333a15.047111 15.047111 0 0 0 0-20.892444l-120.846222-122.567111a14.136889 14.136889 0 0 0-10.012445-4.181334zM159.004444 879.644444c-10.026667 0-18.787556-3.939556-24.675555-11.093333-6.257778-7.608889-8.504889-17.92-6.328889-29.070222l29.169778-147.697778c3.783111-19.114667 16.355556-25.927111 26.908444-25.927111 5.589333 0 14.094222 1.877333 22.897778 10.780444l120.903111 122.638223c9.102222 9.329778 12.515556 20.408889 9.429333 30.421333-3.072 9.955556-12.003556 17.109333-24.533333 19.655111l-145.621333 29.454222c-2.844444 0.568889-5.575111 0.839111-8.149334 0.839111z m26.524445-184.135111a12.970667 12.970667 0 0 0-0.440889 1.777778l-29.169778 147.683556c-0.64 3.214222-0.071111 4.977778 0.369778 5.504 0.355556 0.440889 1.408 0.725333 2.702222 0.725333a12.544 12.544 0 0 0 2.531556-0.284444l145.607111-29.454223a13.696 13.696 0 0 0 1.934222-0.512 16.554667 16.554667 0 0 0-1.493333-1.749333l-120.846222-122.567111c-0.426667-0.455111-0.839111-0.810667-1.194667-1.123556z" fill="#595757" p-id="2789"></path></svg>