<?xml version="1.0" encoding="utf-8"?>
<!-- Generator: Adobe Illustrator 15.0.0, SVG Export Plug-In . SVG Version: 6.00 Build 0)  -->
<!DOCTYPE svg PUBLIC "-//W3C//DTD SVG 1.1//EN" "http://www.w3.org/Graphics/SVG/1.1/DTD/svg11.dtd">
<svg version="1.1" id="图层_1" xmlns="http://www.w3.org/2000/svg" xmlns:xlink="http://www.w3.org/1999/xlink" x="0px" y="0px"
	 width="64px" height="64px" viewBox="0 0 64 64" enable-background="new 0 0 64 64" xml:space="preserve">
<path fill="#9C9EAB" d="M58.069,10.307c0.958-0.029,2.101,0.385,2.813,1.089c0.749,0.741,1.156,1.701,1.188,2.678l0,0
	c0.031,0.992-0.346,2.075-1.054,2.783l-33.506,35.67c-0.734,0.825-1.829,1.341-2.936,1.341c-1.072,0-2.056-0.474-2.821-1.219
	L2.66,33.84c-0.522-0.498-1.154-2.015-1.16-2.743c-0.008-0.995,0.363-1.992,1.113-2.755c0.756-0.742,2.016-1.158,2.752-1.163
	c0.992-0.007,1.99,0.366,2.754,1.119l16.352,16.108L55.35,11.529C55.99,10.782,57.099,10.336,58.069,10.307"/>
</svg>
