<?xml version="1.0" encoding="utf-8"?>
<!-- Generator: Adobe Illustrator 15.0.0, SVG Export Plug-In . SVG Version: 6.00 Build 0)  -->
<!DOCTYPE svg PUBLIC "-//W3C//DTD SVG 1.1//EN" "http://www.w3.org/Graphics/SVG/1.1/DTD/svg11.dtd">
<svg version="1.1" id="图层_1" xmlns="http://www.w3.org/2000/svg" xmlns:xlink="http://www.w3.org/1999/xlink" x="0px" y="0px"
	 width="150px" height="150px" viewBox="0 0 150 150" enable-background="new 0 0 150 150" xml:space="preserve">
<g>
	<radialGradient id="SVGID_1_" cx="75" cy="75" r="82.6974" gradientUnits="userSpaceOnUse">
		<stop  offset="0" style="stop-color:#717071"/>
		<stop  offset="0.28" style="stop-color:#838692"/>
		<stop  offset="0.76" style="stop-color:#FFFFFF"/>
		<stop  offset="1" style="stop-color:#FFFFFF"/>
	</radialGradient>
	<path fill-rule="evenodd" clip-rule="evenodd" fill="url(#SVGID_1_)" d="M75.002,138.561c-35.104,0-63.561-28.456-63.561-63.561
		s28.456-63.561,63.561-63.561c35.103,0,63.557,28.456,63.557,63.561S110.104,138.561,75.002,138.561L75.002,138.561z
		 M75.002,128.734c29.678,0,53.73-24.058,53.73-53.734s-24.053-53.734-53.73-53.734c-29.677,0-53.736,24.058-53.736,53.734
		S45.325,128.734,75.002,128.734z"/>
	<path fill="#838692" d="M128.279,75c0-29.425-23.855-53.279-53.277-53.279c-29.425,0-53.279,23.854-53.279,53.279
		s23.854,53.278,53.279,53.278C104.424,128.278,128.279,104.425,128.279,75L128.279,75z M129.652,75
		c0,30.182-24.469,54.65-54.65,54.65S20.349,105.182,20.349,75c0-30.182,24.472-54.65,54.653-54.65
		C105.181,20.35,129.652,44.818,129.652,75z"/>
	<path fill="#838692" d="M122.867,94.681c-1.111,3.794-8.509,14.509-11.528,17.11l-0.455-0.527
		c2.914-2.506,10.249-13.127,11.313-16.777L122.867,94.681z"/>
	<path fill="#838692" d="M27.832,94.432c0.559,1.912,2.619,5.532,4.936,8.985c2.3,3.433,4.842,6.685,6.385,7.906l-0.434,0.547
		c-1.602-1.269-4.197-4.586-6.533-8.069c-2.347-3.499-4.442-7.192-5.023-9.173L27.832,94.432z"/>
	<path fill="#838692" d="M47.547,108.521c0.008-13.644,16.151-18.884,27.455-18.884c11.846,0,27.514,5.451,27.438,19.654l0,0
		c-0.145,13.426-16.866,18.461-27.904,18.461l0,0C63.496,127.698,47.545,121.7,47.547,108.521L47.547,108.521z M48.246,108.521
		c-0.004,12.749,15.669,18.483,26.29,18.533l0,0c10.611,0,27.065-4.788,27.212-17.771c0.07-13.761-15.32-18.949-26.746-18.949
		C64.129,90.333,48.247,95.306,48.246,108.521z"/>
	<path fill="#838692" d="M119.987,105.244c-0.942,1.369-7.296,10.525-9.219,8.908l-0.005-0.004
		c-1.749-1.495,3.473-9.66,4.364-11.023c1.05-1.599,7.643-11.383,9.75-9.709c1.813,1.634-3.765,10.121-4.886,11.823L119.987,105.244
		L119.987,105.244z M119.414,104.848c0.92-1.392,6.119-9.579,5.028-10.885c-1.349-1.068-7.991,8.415-8.729,9.544
		c-0.767,1.163-5.683,8.836-4.497,10.112C112.346,114.554,118.714,105.865,119.414,104.848z"/>
	<path fill="#838692" d="M30.014,105.239c-1.212-1.834-5.367-9.565-5.055-11.639c0.186-1.205,1.342-0.491,1.342-0.479
		c2.305,1.229,6.381,6.754,8.055,9.187l0.006,0.004c1.106,1.68,6.631,10.246,4.908,11.803c-2.107,1.631-8.225-7.375-9.256-8.873
		V105.239L30.014,105.239z M30.594,104.854c0.743,1.088,6.829,9.58,8.188,8.759l0.038-0.027c1.063-1.175-4.144-9.528-5.036-10.882
		c-0.52-0.757-7.957-10.144-8.146-8.864C25.369,95.638,29.493,103.191,30.594,104.854z"/>
	<path fill="#838692" d="M79.767,75c0-2.633-2.134-4.765-4.765-4.765c-2.633,0-4.764,2.131-4.764,4.765
		c0,2.634,2.131,4.764,4.764,4.764C77.633,79.764,79.767,77.634,79.767,75L79.767,75z M80.464,75c0,3.015-2.447,5.462-5.462,5.462
		c-3.014,0-5.461-2.447-5.461-5.462c0-3.014,2.447-5.462,5.461-5.462C78.017,69.538,80.464,71.986,80.464,75z"/>
	<path fill="#838692" d="M75.002,86.421c-0.406,0-0.735-0.329-0.735-0.733c0-0.405,0.329-0.733,0.735-0.733
		c0.404,0,0.73,0.328,0.73,0.733C75.732,86.092,75.406,86.421,75.002,86.421L75.002,86.421z M75.002,85.96
		c0.151,0,0.275-0.122,0.275-0.272c0-0.154-0.124-0.275-0.275-0.275c-0.154,0-0.278,0.121-0.278,0.275
		C74.724,85.839,74.848,85.96,75.002,85.96z"/>
	<path fill="#838692" d="M75.002,65.045c-0.406,0-0.735-0.327-0.735-0.731s0.329-0.735,0.735-0.735c0.4,0,0.73,0.331,0.73,0.735
		S75.406,65.045,75.002,65.045L75.002,65.045z M75.002,64.588c0.151,0,0.275-0.122,0.275-0.274c0-0.152-0.124-0.277-0.275-0.277
		c-0.15,0-0.278,0.125-0.278,0.277C74.724,64.467,74.848,64.588,75.002,64.588z"/>
	<path fill="#838692" d="M63.582,75c0-0.403,0.326-0.733,0.734-0.733c0.402,0,0.732,0.33,0.732,0.733s-0.33,0.731-0.732,0.731
		C63.908,75.731,63.582,75.403,63.582,75L63.582,75z M64.039,75c0,0.151,0.122,0.274,0.277,0.274c0.15,0,0.273-0.123,0.273-0.274
		c0-0.154-0.123-0.274-0.273-0.274C64.164,74.726,64.039,74.849,64.039,75z"/>
	<path fill="#838692" d="M84.953,75c0-0.403,0.331-0.733,0.734-0.733c0.404,0,0.731,0.33,0.731,0.733s-0.327,0.731-0.731,0.731
		C85.284,75.731,84.953,75.403,84.953,75L84.953,75z M85.411,75c0,0.151,0.12,0.274,0.276,0.274c0.151,0,0.275-0.123,0.275-0.274
		s-0.124-0.274-0.275-0.274C85.531,74.726,85.411,74.846,85.411,75z"/>
	<path fill-rule="evenodd" clip-rule="evenodd" fill="#838692" d="M52.066,110.659c0.086,0,0.148-0.051,0.148-0.111
		c0-0.063-0.063-0.112-0.148-0.112c-0.082,0-0.148,0.05-0.148,0.112C51.918,110.608,51.984,110.659,52.066,110.659z"/>
	<ellipse fill-rule="evenodd" clip-rule="evenodd" fill="#838692" cx="51.536" cy="110.547" rx="0.147" ry="0.112"/>
	<ellipse fill-rule="evenodd" clip-rule="evenodd" fill="#838692" cx="51.004" cy="110.547" rx="0.148" ry="0.112"/>
	<path fill-rule="evenodd" clip-rule="evenodd" fill="#838692" d="M50.474,110.659c0.079,0,0.147-0.051,0.147-0.111
		c0-0.063-0.068-0.112-0.147-0.112c-0.085,0-0.151,0.05-0.151,0.112C50.322,110.608,50.389,110.659,50.474,110.659z"/>
	<ellipse fill-rule="evenodd" clip-rule="evenodd" fill="#838692" cx="49.941" cy="110.547" rx="0.147" ry="0.112"/>
	<ellipse fill-rule="evenodd" clip-rule="evenodd" fill="#838692" cx="51.004" cy="111.35" rx="0.148" ry="0.113"/>
	<path fill-rule="evenodd" clip-rule="evenodd" fill="#838692" d="M50.856,110.948c0,0.064,0.065,0.114,0.147,0.114
		s0.148-0.05,0.148-0.114c0-0.06-0.066-0.108-0.148-0.108S50.856,110.889,50.856,110.948z"/>
	<ellipse fill-rule="evenodd" clip-rule="evenodd" fill="#838692" cx="51.004" cy="110.147" rx="0.148" ry="0.11"/>
	<ellipse fill-rule="evenodd" clip-rule="evenodd" fill="#838692" cx="51.004" cy="109.747" rx="0.148" ry="0.11"/>
	<path fill-rule="evenodd" clip-rule="evenodd" fill="#838692" d="M100.064,110.543c0.082,0,0.146-0.051,0.146-0.111
		c0-0.063-0.064-0.113-0.146-0.113s-0.152,0.051-0.152,0.113C99.912,110.492,99.982,110.543,100.064,110.543z"/>
	<ellipse fill-rule="evenodd" clip-rule="evenodd" fill="#838692" cx="99.529" cy="110.431" rx="0.149" ry="0.112"/>
	<ellipse fill-rule="evenodd" clip-rule="evenodd" fill="#838692" cx="98.997" cy="110.431" rx="0.147" ry="0.112"/>
	<ellipse fill-rule="evenodd" clip-rule="evenodd" fill="#838692" cx="98.465" cy="110.431" rx="0.147" ry="0.112"/>
	<ellipse fill-rule="evenodd" clip-rule="evenodd" fill="#838692" cx="97.935" cy="110.431" rx="0.146" ry="0.112"/>
	<path fill-rule="evenodd" clip-rule="evenodd" fill="#838692" d="M74.939,126.596c0.053-0.225,0.063-0.471,0.008-0.818
		c-0.297-0.026-0.534-0.255-0.534-0.555c0-0.295,0.265-0.554,0.589-0.554c0.326,0,0.586,0.279,0.586,0.554
		c0,0.275-0.162,0.446-0.395,0.523l0,0c0,0,0.15,0.341,0.15,0.814C75.219,126.592,75.062,126.603,74.939,126.596z"/>
	<path fill-rule="evenodd" clip-rule="evenodd" fill="#838692" d="M74.681,126.602c0.043,0.009,0.091-0.018,0.101-0.06
		c0.009-0.045-0.02-0.086-0.065-0.096c-0.047-0.01-0.093,0.017-0.101,0.061C74.604,126.55,74.634,126.592,74.681,126.602z"/>
	<path fill-rule="evenodd" clip-rule="evenodd" fill="#838692" d="M74.371,126.511c0.045,0.015,0.096,0,0.114-0.043
		c0.018-0.041,0-0.087-0.044-0.107c-0.041-0.019-0.092,0-0.11,0.042C74.313,126.442,74.331,126.491,74.371,126.511z"/>
	<path fill-rule="evenodd" clip-rule="evenodd" fill="#838692" d="M74.091,126.354c0.04,0.028,0.091,0.02,0.12-0.018
		c0.027-0.036,0.02-0.086-0.02-0.112c-0.038-0.024-0.092-0.017-0.116,0.02C74.047,126.279,74.053,126.328,74.091,126.354z"/>
	<path fill-rule="evenodd" clip-rule="evenodd" fill="#838692" d="M73.851,126.151c0.031,0.034,0.085,0.036,0.12,0.006
		c0.038-0.029,0.038-0.08,0.007-0.114c-0.029-0.032-0.085-0.036-0.12-0.006C73.822,126.069,73.822,126.118,73.851,126.151z"/>
	<path fill-rule="evenodd" clip-rule="evenodd" fill="#838692" d="M73.661,125.905c0.026,0.036,0.077,0.05,0.116,0.027
		c0.043-0.022,0.055-0.073,0.033-0.107c-0.025-0.041-0.076-0.054-0.116-0.031C73.652,125.817,73.641,125.866,73.661,125.905z"/>
	<path fill-rule="evenodd" clip-rule="evenodd" fill="#838692" d="M73.533,125.623c0.012,0.045,0.061,0.066,0.104,0.055
		c0.047-0.014,0.069-0.061,0.058-0.102c-0.018-0.042-0.064-0.067-0.108-0.054C73.539,125.537,73.517,125.583,73.533,125.623z"/>
	<circle fill-rule="evenodd" clip-rule="evenodd" fill="#838692" cx="73.548" cy="125.317" r="0.086"/>
	<path fill-rule="evenodd" clip-rule="evenodd" fill="#838692" d="M73.463,125.021c-0.004,0.043,0.031,0.082,0.076,0.089
		c0.047,0.004,0.087-0.03,0.094-0.074c0.004-0.042-0.027-0.081-0.074-0.088C73.51,124.945,73.469,124.978,73.463,125.021z"/>
	<path fill-rule="evenodd" clip-rule="evenodd" fill="#838692" d="M73.529,124.722c-0.013,0.04,0.01,0.087,0.057,0.103
		c0.044,0.012,0.091-0.012,0.108-0.052c0.012-0.046-0.011-0.088-0.058-0.102C73.594,124.655,73.545,124.68,73.529,124.722z"/>
	<path fill-rule="evenodd" clip-rule="evenodd" fill="#838692" d="M73.661,124.443c-0.021,0.038-0.009,0.086,0.033,0.108
		c0.04,0.022,0.091,0.009,0.116-0.027c0.021-0.038,0.01-0.09-0.033-0.108C73.738,124.395,73.688,124.406,73.661,124.443z"/>
	<path fill-rule="evenodd" clip-rule="evenodd" fill="#838692" d="M73.851,124.199c-0.028,0.03-0.028,0.081,0.007,0.108
		c0.035,0.032,0.091,0.031,0.12-0.004c0.031-0.034,0.031-0.083-0.007-0.115C73.936,124.16,73.882,124.164,73.851,124.199z"/>
	<path fill-rule="evenodd" clip-rule="evenodd" fill="#838692" d="M74.091,123.99c-0.038,0.026-0.044,0.078-0.016,0.112
		c0.024,0.036,0.078,0.045,0.116,0.019c0.039-0.024,0.047-0.078,0.02-0.112C74.182,123.975,74.131,123.965,74.091,123.99z"/>
	<path fill-rule="evenodd" clip-rule="evenodd" fill="#838692" d="M74.371,123.839c-0.04,0.016-0.059,0.065-0.04,0.107
		c0.019,0.038,0.065,0.057,0.11,0.038c0.044-0.018,0.062-0.063,0.044-0.104C74.467,123.839,74.416,123.819,74.371,123.839z"/>
	<circle fill-rule="evenodd" clip-rule="evenodd" fill="#838692" cx="74.698" cy="123.822" r="0.08"/>
	<circle fill-rule="evenodd" clip-rule="evenodd" fill="#838692" cx="75.002" cy="123.793" r="0.08"/>
	<path fill-rule="evenodd" clip-rule="evenodd" fill="#838692" d="M75.324,123.744c-0.047-0.011-0.092,0.02-0.101,0.061
		c-0.015,0.044,0.019,0.088,0.065,0.096c0.045,0.012,0.09-0.016,0.102-0.062C75.396,123.798,75.367,123.753,75.324,123.744z"/>
	<path fill-rule="evenodd" clip-rule="evenodd" fill="#838692" d="M75.63,123.839c-0.045-0.02-0.093,0-0.11,0.041
		c-0.02,0.041,0,0.087,0.041,0.104c0.043,0.019,0.094,0,0.113-0.038C75.692,123.904,75.67,123.854,75.63,123.839z"/>
	<path fill-rule="evenodd" clip-rule="evenodd" fill="#838692" d="M75.911,123.99c-0.04-0.025-0.093-0.016-0.116,0.019
		c-0.033,0.034-0.023,0.086,0.014,0.112c0.039,0.026,0.092,0.018,0.121-0.019C75.955,124.068,75.949,124.017,75.911,123.99z"/>
	<path fill-rule="evenodd" clip-rule="evenodd" fill="#838692" d="M76.148,124.199c-0.029-0.035-0.082-0.039-0.119-0.011
		c-0.034,0.032-0.037,0.081-0.007,0.115c0.032,0.035,0.086,0.036,0.122,0.004C76.178,124.28,76.182,124.229,76.148,124.199z"/>
	<path fill-rule="evenodd" clip-rule="evenodd" fill="#838692" d="M76.338,124.443c-0.021-0.037-0.072-0.054-0.117-0.027
		c-0.036,0.019-0.051,0.07-0.027,0.108c0.023,0.036,0.077,0.05,0.113,0.027C76.353,124.529,76.363,124.481,76.338,124.443z"/>
	<path fill-rule="evenodd" clip-rule="evenodd" fill="#838692" d="M76.471,124.722c-0.014-0.042-0.063-0.066-0.107-0.051
		c-0.043,0.014-0.069,0.056-0.055,0.102c0.014,0.04,0.064,0.063,0.109,0.052C76.462,124.809,76.484,124.762,76.471,124.722z"/>
	<path fill-rule="evenodd" clip-rule="evenodd" fill="#838692" d="M76.539,125.021c-0.004-0.044-0.046-0.076-0.094-0.073
		c-0.047,0.007-0.082,0.046-0.074,0.088c0.002,0.044,0.047,0.076,0.091,0.074C76.51,125.104,76.543,125.064,76.539,125.021z"/>
	<path fill-rule="evenodd" clip-rule="evenodd" fill="#838692" d="M76.539,125.327c0.004-0.046-0.029-0.085-0.077-0.088
		c-0.044-0.008-0.089,0.025-0.091,0.068c-0.008,0.044,0.027,0.085,0.074,0.092C76.493,125.401,76.535,125.371,76.539,125.327z"/>
	<path fill-rule="evenodd" clip-rule="evenodd" fill="#838692" d="M76.471,125.623c0.014-0.04-0.009-0.086-0.053-0.101
		c-0.045-0.014-0.096,0.012-0.109,0.054c-0.015,0.041,0.012,0.088,0.055,0.102C76.407,125.689,76.457,125.668,76.471,125.623z"/>
	<path fill-rule="evenodd" clip-rule="evenodd" fill="#838692" d="M76.342,125.905c0.021-0.039,0.011-0.088-0.035-0.111
		c-0.036-0.022-0.09-0.01-0.113,0.031c-0.023,0.034-0.009,0.085,0.027,0.107C76.266,125.955,76.316,125.941,76.342,125.905z"/>
	<path fill-rule="evenodd" clip-rule="evenodd" fill="#838692" d="M76.148,126.151c0.033-0.033,0.029-0.082-0.004-0.114
		c-0.036-0.03-0.09-0.026-0.122,0.006c-0.03,0.034-0.027,0.085,0.007,0.114C76.066,126.188,76.119,126.186,76.148,126.151z"/>
	<path fill-rule="evenodd" clip-rule="evenodd" fill="#838692" d="M75.911,126.354c0.038-0.026,0.044-0.075,0.019-0.11
		c-0.029-0.036-0.082-0.044-0.121-0.02c-0.037,0.026-0.045,0.076-0.014,0.112C75.818,126.374,75.871,126.381,75.911,126.354z"/>
	<circle fill-rule="evenodd" clip-rule="evenodd" fill="#838692" cx="75.595" cy="126.436" r="0.083"/>
</g>
</svg>
