<?xml version="1.0" encoding="utf-8"?>
<!-- Generator: Adobe Illustrator 15.0.0, SVG Export Plug-In . SVG Version: 6.00 Build 0)  -->
<!DOCTYPE svg PUBLIC "-//W3C//DTD SVG 1.1//EN" "http://www.w3.org/Graphics/SVG/1.1/DTD/svg11.dtd">
<svg version="1.1" id="图层_1" xmlns="http://www.w3.org/2000/svg" xmlns:xlink="http://www.w3.org/1999/xlink" x="0px" y="0px"
	 width="150px" height="150px" viewBox="0 0 150 150" enable-background="new 0 0 150 150" xml:space="preserve">
<g>
	<path fill="#848793" d="M89.103,40.431l1.061,0.3l0.024,0.009c13.32,4.059,23.768,12.229,31.039,22.676
		c7.79,11.191,11.939,25.003,12.086,39.175l0.002,0.011v1.791c0,0.24-0.051,0.487-0.146,0.723v0.012
		c-0.096,0.229-0.237,0.439-0.416,0.618h-0.002c-0.178,0.175-0.388,0.315-0.616,0.41v0.002c-0.231,0.098-0.48,0.148-0.731,0.148
		H75.268H19.13c-0.249,0-0.499-0.051-0.729-0.148v-0.002c-0.227-0.095-0.439-0.235-0.617-0.41h-0.005
		c-0.175-0.175-0.314-0.389-0.412-0.618v-0.012c-0.097-0.235-0.146-0.482-0.146-0.723v-1.791l0.005-0.011
		c0.146-14.382,4.467-28.383,12.464-39.645C37.184,52.39,47.903,44.238,61.433,40.43l0.025-0.004
		c1.384-0.361,2.74-0.671,4.105-0.928c1.369-0.26,2.758-0.47,4.204-0.622c1.849-0.193,3.689-0.292,5.502-0.292
		c1.816,0,3.655,0.098,5.509,0.292c1.438,0.152,2.83,0.362,4.199,0.622c1.365,0.257,2.721,0.571,4.103,0.928L89.103,40.431
		L89.103,40.431z M89.452,43.252L89.452,43.252l-1.058-0.298l0,0c-1.304-0.339-2.591-0.633-3.9-0.882
		c-1.311-0.249-2.633-0.447-3.987-0.589c-1.718-0.181-3.467-0.272-5.238-0.272c-1.769,0-3.517,0.091-5.238,0.272
		c-1.356,0.142-2.676,0.342-3.986,0.589c-1.307,0.249-2.597,0.543-3.899,0.882l0,0C49.227,46.591,38.99,54.38,31.827,64.466
		c-7.683,10.821-11.841,24.291-11.98,38.136h0.003v1.077h55.417h55.42v-1.077h0.002c-0.136-13.639-4.126-26.929-11.618-37.688
		C112.125,54.931,102.157,47.127,89.452,43.252z"/>
	<path fill="#848793" d="M113.002,93.515c-0.951-2.916-1.606-7.104-1.011-10.691c0.456-2.758,1.647-5.174,3.997-6.455l0.006-0.002
		c0.927-0.488,1.854-0.635,2.757-0.527c0.995,0.116,1.957,0.544,2.854,1.151l0.012,0.008c1.853,1.336,3.269,3.301,4.309,5.498
		c1.273,2.684,2,5.721,2.306,8.35v0.017c0.224,2.487,0.144,6.025-0.964,8.655c-0.831,1.968-2.22,3.437-4.457,3.671l-0.012,0.005
		c-2.097,0.177-3.941-0.849-5.47-2.385c-2.056-2.068-3.553-5.088-4.327-7.279L113.002,93.515L113.002,93.515z M116.879,98.43
		c1.154,1.588,2.597,2.877,4.354,3.34v0.004c0.842,0.2,1.598,0.163,2.282-0.086c0.681-0.247,1.301-0.709,1.864-1.351
		c0.667-0.814,1.151-1.826,1.474-2.963c0.496-2.139,0.504-4.572,0.341-6.41h-0.004c-0.155-1.344-0.426-2.798-0.828-4.252
		l-0.004-0.012v-0.004c-0.494-1.682-1.151-3.285-1.935-4.689c-1.153-2.072-2.58-3.689-4.134-4.446
		c-1.092-0.526-2.255-0.626-3.438-0.147l0,0c-1.797,0.781-2.817,2.496-3.337,4.539c-0.713,2.81-0.472,6.238,0.031,8.758l0,0
		l0.141,0.605C114.197,93.314,115.241,96.174,116.879,98.43z"/>
	<path fill="#848793" d="M117.527,99.729c0.284,0.155,0.586,0.277,0.893,0.357c0.31,0.081,0.63,0.128,0.946,0.13
		c1.869-0.01,3.199-1.06,4.041-2.685c0.695-1.334,1.071-3.05,1.158-4.905c0.092-1.872-0.108-3.877-0.561-5.767
		c-0.944-3.954-2.996-7.417-5.817-8.09l0,0l-0.069-0.017l-0.073-0.015l0,0c-1.227-0.214-2.22,0.161-3.01,0.845
		c-1.054,0.909-1.763,2.363-2.188,3.72l0,0l-0.082,0.274l-0.502-0.146l0.08-0.277l0.002-0.006c0.451-1.433,1.207-2.979,2.349-3.963
		c0.902-0.777,2.041-1.207,3.441-0.964l0.008,0.002l0.081,0.018h0.004l0.076,0.02h0.008c3.036,0.724,5.216,4.347,6.205,8.478
		c0.463,1.938,0.665,3.996,0.573,5.911c-0.092,1.93-0.487,3.721-1.217,5.125c-0.931,1.794-2.411,2.953-4.502,2.967h-0.005
		c-0.364-0.002-0.73-0.055-1.076-0.146c-0.353-0.095-0.696-0.23-1.016-0.406L117.527,99.729z"/>
	<path fill="#848793" d="M130,105.246l-0.677,3.34c-0.146,0.73-0.535,1.354-1.073,1.79c-0.533,0.439-1.222,0.7-1.965,0.7v0.006
		H24.25c-0.738,0-1.426-0.259-1.968-0.7c-0.536-0.441-0.924-1.063-1.074-1.788v-0.008l-0.675-3.34l2.567-0.512l0.673,3.336l0,0
		c0.024,0.111,0.086,0.208,0.172,0.276c0.083,0.068,0.19,0.108,0.304,0.108h102.036v0.006c0.11,0,0.217-0.042,0.305-0.114
		c0.089-0.072,0.15-0.167,0.173-0.271l0.673-3.341L130,105.246z"/>
	<path fill="#848793" d="M102.978,65.684c-0.033-4.917-1.89-9.19-4.825-12.632c-3.328-3.904-8.045-6.744-13.066-8.243
		c-1.595-0.478-3.22-0.841-4.857-1.08c-1.648-0.239-3.307-0.36-4.963-0.359c-6.99-0.006-14.478,2.337-19.912,6.744
		c-4.623,3.75-7.757,9.002-7.798,15.572c0.056,2.42,0.541,4.752,1.415,6.912c0.876,2.169,2.142,4.162,3.752,5.883h0.007l0.311,0.34
		h-0.001c0.157,0.163,0.319,0.329,0.483,0.492c5.588,5.54,13.527,8.341,21.497,8.394c7.977,0.053,15.974-2.638,21.676-8.078
		c0.165-0.159,0.336-0.324,0.501-0.493l0.299-0.313l0,0l0.311-0.34h0.005c1.61-1.723,2.878-3.714,3.754-5.883
		C102.436,70.437,102.921,68.102,102.978,65.684L102.978,65.684z M99.348,52.028c3.167,3.712,5.169,8.335,5.199,13.661v0.018
		c-0.057,2.619-0.582,5.142-1.522,7.471c-0.947,2.344-2.317,4.5-4.062,6.366l0,0l-0.308,0.336l-0.011,0.012l-0.319,0.333
		l-0.012,0.015c-0.173,0.174-0.353,0.354-0.538,0.525c-6,5.729-14.4,8.566-22.761,8.51c-8.366-0.059-16.71-3.008-22.599-8.848
		c-0.173-0.174-0.348-0.351-0.521-0.533l-0.01-0.01l-0.309-0.336l0.001-0.004c-1.745-1.864-3.118-4.019-4.063-6.363
		c-0.941-2.329-1.463-4.854-1.521-7.473v-0.019c0.04-7.101,3.406-12.765,8.376-16.794c5.719-4.637,13.577-7.104,20.903-7.096
		c1.749-0.003,3.483,0.124,5.191,0.374c1.719,0.252,3.416,0.627,5.076,1.127C90.832,44.881,95.817,47.887,99.348,52.028z"/>
	<path fill="#848793" d="M25.105,86.741c-0.398,1.444-0.663,2.889-0.82,4.221h-0.004c-0.162,1.839-0.155,4.27,0.341,6.41
		c0.322,1.137,0.808,2.146,1.474,2.965c0.562,0.642,1.182,1.104,1.866,1.349c0.682,0.247,1.438,0.284,2.279,0.084l0,0
		c1.754-0.463,3.203-1.753,4.356-3.34c1.637-2.256,2.682-5.115,3.198-7.116l0.138-0.604l0,0c0.501-2.52,0.74-5.95,0.029-8.764
		c-0.518-2.041-1.54-3.753-3.336-4.537h-0.004c-1.183-0.479-2.345-0.376-3.436,0.151c-1.554,0.755-2.978,2.374-4.134,4.446
		C26.264,83.42,25.599,85.044,25.105,86.741L25.105,86.741z M39.484,82.823c0.594,3.587-0.061,7.771-1.011,10.691l-0.005,0.014
		c-0.773,2.19-2.269,5.21-4.325,7.278c-1.53,1.538-3.371,2.563-5.471,2.386l-0.011-0.004c-2.238-0.235-3.628-1.709-4.456-3.672
		c-1.108-2.631-1.186-6.169-0.965-8.656v-0.016c0.306-2.628,1.032-5.665,2.308-8.35c1.042-2.199,2.453-4.163,4.306-5.498
		l0.012-0.008c0.897-0.608,1.859-1.035,2.854-1.151c0.903-0.106,1.83,0.039,2.757,0.527l0.008,0.002
		C37.837,77.648,39.028,80.064,39.484,82.823z"/>
	<path fill="#848793" d="M34.201,100.188c-0.319,0.176-0.66,0.313-1.011,0.406c-0.351,0.092-0.715,0.145-1.079,0.146h-0.005
		c-2.092-0.014-3.569-1.173-4.503-2.967c-0.729-1.404-1.122-3.196-1.216-5.125c-0.093-1.917,0.112-3.973,0.577-5.911
		c0.986-4.129,3.169-7.758,6.207-8.478h0.006l0.078-0.02h0.004l0.078-0.018l0.008-0.002c1.405-0.245,2.541,0.187,3.443,0.964
		c1.139,0.984,1.895,2.53,2.348,3.963v0.006l0.08,0.277l-0.5,0.146l-0.081-0.274l0,0c-0.426-1.356-1.134-2.811-2.189-3.72
		c-0.791-0.684-1.785-1.059-3.011-0.845l0,0l-0.07,0.015L33.29,78.77l0,0c-2.822,0.673-4.874,4.136-5.82,8.09
		c-0.453,1.894-0.652,3.9-0.56,5.767c0.087,1.854,0.465,3.573,1.159,4.905c0.842,1.625,2.17,2.676,4.038,2.685
		c0.319-0.002,0.641-0.045,0.949-0.13c0.308-0.08,0.61-0.202,0.893-0.357L34.201,100.188z"/>
</g>
<line fill="#848793" x1="12.5" y1="72.445" x2="34.914" y2="77.552"/>
</svg>
