<?xml version="1.0" encoding="utf-8"?>
<!-- Generator: Adobe Illustrator 15.0.0, SVG Export Plug-In . SVG Version: 6.00 Build 0)  -->
<!DOCTYPE svg PUBLIC "-//W3C//DTD SVG 1.1//EN" "http://www.w3.org/Graphics/SVG/1.1/DTD/svg11.dtd">
<svg version="1.1" id="图层_1" xmlns="http://www.w3.org/2000/svg" xmlns:xlink="http://www.w3.org/1999/xlink" x="0px" y="0px"
	 width="150px" height="150px" viewBox="0 0 150 150" enable-background="new 0 0 150 150" xml:space="preserve">
<g>
	<path fill="#838692" d="M38.232,83.707c-0.409-1.299-1.112-2.712-2.142-3.587c-0.763-0.65-1.723-0.997-2.885-0.767l0,0
		c-1.333,0.296-2.422,1.206-3.283,2.375c-1.182,1.601-1.947,3.68-2.366,5.352c-0.304,1.392-0.482,2.791-0.485,4.177
		c-0.003,1.387,0.164,2.769,0.545,4.139h0.001c0.158,0.524,0.363,1.061,0.611,1.567c0.484,0.977,1.136,1.863,1.939,2.411
		c0.778,0.53,1.714,0.748,2.786,0.427h0.003c0.23-0.067,0.469-0.163,0.711-0.282l0.266,0.539c-0.274,0.136-0.546,0.244-0.807,0.319
		l0,0c-1.269,0.382-2.373,0.124-3.296-0.508c-0.897-0.614-1.614-1.578-2.139-2.642c-0.266-0.54-0.486-1.106-0.651-1.66V95.56
		c-0.398-1.425-0.574-2.865-0.571-4.303c0.004-1.435,0.184-2.875,0.499-4.301l0.003-0.013c0.432-1.731,1.228-3.895,2.469-5.571
		c0.942-1.277,2.146-2.273,3.641-2.605l0.006-0.003c1.368-0.274,2.492,0.136,3.392,0.9c1.128,0.956,1.889,2.475,2.325,3.864
		L38.232,83.707z"/>
	<path fill="#838692" d="M20.914,101.777v1.711H75h54.089c-0.005-15.046-4.369-29.334-12.728-40.392
		c-7.746-10.246-18.929-17.725-33.26-20.477c-2.734-0.455-5.414-0.688-8.026-0.713c-13.935-0.138-26.126,5.566-35.394,14.666
		C30.396,65.686,24.041,78.207,21.8,91.676c-0.553,3.326-0.856,6.707-0.89,10.102H20.914L20.914,101.777z M19.729,103.503v-1.726
		l0.003-0.005c0.034-3.466,0.342-6.909,0.904-10.287v-0.003c2.28-13.713,8.757-26.464,18.218-35.754
		c9.481-9.305,21.962-15.142,36.231-15.001c2.683,0.027,5.43,0.267,8.222,0.728l0.018,0.002
		c14.639,2.813,26.064,10.458,33.98,20.927c8.521,11.272,12.966,25.814,12.966,41.118c0,0.322-0.131,0.617-0.341,0.825
		c-0.213,0.214-0.505,0.343-0.827,0.343H75H20.898c-0.322,0-0.615-0.129-0.826-0.343C19.861,104.12,19.729,103.825,19.729,103.503z"
		/>
	<path fill="#838692" d="M111.196,83.528l0.084-0.271l0.003-0.004c0.336-0.981,0.806-1.98,1.459-2.797
		c0.669-0.831,1.531-1.474,2.634-1.707l0.009-0.003l0.095-0.016h0.007c2.018-0.311,3.615,0.695,4.836,2.247
		c1.702,2.163,2.665,5.419,3.007,7.542l0.002,0.011c0.142,1.065,0.211,2.057,0.192,3.045c-0.017,0.99-0.122,1.98-0.327,3.043
		l-0.001,0.008c-0.135,0.611-0.324,1.236-0.561,1.834v0.004c-0.487,1.232-1.188,2.361-2.086,3.116
		c-0.926,0.777-2.057,1.163-3.377,0.872v-0.001c-0.235-0.053-0.481-0.129-0.73-0.227h-0.003c-0.069-0.027-0.151-0.065-0.234-0.104
		l-0.007-0.003l-0.216-0.109l0.265-0.538l0.217,0.109c0.059,0.028,0.124,0.057,0.2,0.088v0.002c0.218,0.085,0.434,0.148,0.64,0.196
		l0,0c1.114,0.244,2.074-0.085,2.861-0.748c0.814-0.685,1.46-1.729,1.912-2.876h0.001c0.223-0.564,0.402-1.157,0.531-1.747
		c0.197-1.026,0.3-1.981,0.315-2.93c0.017-0.956-0.052-1.921-0.187-2.959c-0.332-2.052-1.259-5.188-2.887-7.26
		c-1.095-1.389-2.51-2.293-4.275-2.024l0,0l-0.086,0.017c-0.947,0.201-1.693,0.761-2.28,1.491c-0.603,0.751-1.04,1.689-1.356,2.61
		l-0.083,0.266L111.196,83.528z"/>
	<rect x="69.821" y="41.317" fill="#838692" width="10.358" height="0.601"/>
	<path fill="#838692" d="M27.736,82.155c-0.311,0.478-0.621,1.047-0.911,1.683c-1.149,2.495-2.07,6.038-2.129,9.326
		c-0.06,3.24,0.71,6.225,2.924,7.673c0.21,0.136,0.435,0.265,0.672,0.37c0.852,0.369,1.694,0.374,2.489,0.151
		c0.987-0.277,1.91-0.906,2.714-1.648h-0.001c1.113-1.085,2.006-2.382,2.716-3.778c0.825-1.623,1.403-3.39,1.797-5.126h0
		c0.394-1.974,0.612-4.213,0.375-6.34c-0.19-1.705-0.672-3.341-1.588-4.716c-0.453-0.627-0.926-1.085-1.408-1.394
		c-0.753-0.486-1.541-0.623-2.317-0.503c-0.795,0.119-1.589,0.503-2.333,1.038c-1.171,0.845-2.223,2.063-2.998,3.261V82.155
		L27.736,82.155z M26.279,83.588c0.306-0.667,0.629-1.262,0.956-1.76h0.001c0.811-1.255,1.915-2.534,3.147-3.422
		c0.819-0.591,1.699-1.015,2.593-1.149c0.915-0.138,1.843,0.021,2.732,0.595c0.544,0.35,1.074,0.861,1.575,1.556l0.006,0.009
		c0.976,1.464,1.486,3.193,1.687,4.98c0.245,2.202,0.022,4.504-0.382,6.526l-0.001,0.008c-0.405,1.78-1,3.596-1.85,5.272
		c-0.739,1.451-1.67,2.802-2.833,3.935l-0.006,0.004c-0.868,0.804-1.875,1.489-2.961,1.797c-0.92,0.257-1.9,0.246-2.896-0.184
		l-0.007-0.002c-0.264-0.122-0.515-0.261-0.749-0.413l0,0c-2.416-1.582-3.261-4.759-3.196-8.184
		C24.157,89.781,25.103,86.147,26.279,83.588z"/>
	<g>
		<path fill="#838692" d="M112.679,94.967c-0.083-0.203-0.164-0.416-0.242-0.631v-0.002c-0.887-2.47-1.561-6.113-1.38-9.391
			c0.185-3.345,1.257-6.332,3.879-7.402l0.004-0.003l0.194-0.073l0.018-0.009c0.168-0.054,0.343-0.101,0.518-0.136l0,0
			c2.19-0.435,4.163,0.899,5.766,2.909c1.563,1.954,2.783,4.557,3.492,6.742c0.243,0.744,0.429,1.439,0.549,2.048l0.001,0.006
			c0.376,2.199,0.561,5.474-0.175,8.202c-0.536,1.986-1.56,3.696-3.341,4.525l-0.007,0.002c-1.782,0.772-3.445,0.277-4.887-0.796
			c-1.997-1.491-3.562-4.123-4.387-5.984L112.679,94.967L112.679,94.967z M113,94.133c0.075,0.209,0.152,0.412,0.229,0.6l0,0
			c0.794,1.794,2.294,4.324,4.197,5.744c1.278,0.952,2.743,1.395,4.291,0.728l0,0c1.589-0.742,2.511-2.306,3.005-4.129
			c0.707-2.632,0.527-5.808,0.164-7.94h-0.002c-0.114-0.588-0.294-1.262-0.527-1.977c-0.695-2.133-1.878-4.666-3.389-6.558
			c-1.472-1.843-3.257-3.074-5.184-2.69v-0.003c-0.144,0.031-0.296,0.071-0.45,0.12l-0.18,0.07c-2.357,0.965-3.327,3.751-3.5,6.879
			C111.479,88.175,112.137,91.725,113,94.133L113,94.133z M115.335,78.027l-0.003,0.002L115.335,78.027z"/>
	</g>
	<path fill="#838692" d="M127.091,104.195l-0.651,3.219h0.002c-0.106,0.54-0.398,1.008-0.804,1.337l0,0
		c-0.399,0.328-0.916,0.524-1.468,0.524H25.832c-0.552,0-1.067-0.193-1.469-0.521c-0.401-0.329-0.692-0.796-0.802-1.338v-0.002
		l-0.65-3.219l1.155-0.23l0.649,3.218h0.002c0.052,0.264,0.197,0.492,0.396,0.655c0.195,0.16,0.448,0.255,0.719,0.255h98.338
		c0.269,0,0.522-0.095,0.72-0.255h0.002c0.194-0.161,0.338-0.39,0.392-0.653h0.002l0.649-3.22L127.091,104.195z"/>
	
		<line fill="none" stroke="#232323" stroke-width="0.0567" stroke-linejoin="bevel" stroke-miterlimit="22.9256" x1="75.619" y1="86.517" x2="75.619" y2="86.517"/>
	<path fill="#838692" d="M75,85.101c-7.342,0-13.994-2.255-18.81-5.9c-4.84-3.662-7.835-8.737-7.835-14.34
		c0-5.607,2.995-10.678,7.835-14.342c4.818-3.646,11.47-5.901,18.81-5.901c7.342,0,13.994,2.255,18.811,5.901
		c4.84,3.664,7.835,8.735,7.835,14.342c0,5.604-2.995,10.678-7.835,14.34C88.994,82.846,82.345,85.101,75,85.101L75,85.101z
		 M56.552,78.72C61.27,82.292,67.793,84.501,75,84.501c7.209,0,13.731-2.209,18.449-5.781c4.692-3.551,7.597-8.453,7.597-13.86
		c0-5.407-2.904-10.311-7.597-13.863c-4.718-3.571-11.24-5.78-18.449-5.78c-7.207,0-13.73,2.209-18.448,5.78
		c-4.691,3.552-7.596,8.456-7.596,13.863C48.956,70.267,51.86,75.168,56.552,78.72z"/>
	<path fill="#838692" d="M74.861,43.447c-0.278,0-0.538-0.04-0.728-0.101c-0.256-0.081-0.416-0.223-0.416-0.402
		c0-0.177,0.161-0.319,0.416-0.4c0.189-0.063,0.449-0.1,0.728-0.1c0.278,0,0.538,0.038,0.728,0.1c0.254,0.081,0.413,0.223,0.413,0.4
		c0,0.179-0.158,0.321-0.413,0.402C75.4,43.407,75.139,43.447,74.861,43.447L74.861,43.447z M74.252,42.971
		c0.151,0.049,0.367,0.08,0.608,0.08s0.457-0.031,0.608-0.08c0.086-0.026,0.141-0.013,0.141-0.026c0-0.012-0.055,0-0.141-0.028l0,0
		c-0.151-0.045-0.367-0.079-0.608-0.079s-0.458,0.033-0.607,0.079h-0.001c-0.086,0.028-0.14,0.016-0.14,0.028
		C74.112,42.958,74.167,42.945,74.252,42.971z"/>
	<g>
		<path fill-rule="evenodd" clip-rule="evenodd" fill="#838692" d="M53.107,64.409c0.081,0,0.144-0.063,0.144-0.141
			c0-0.083-0.063-0.147-0.144-0.147c-0.079,0-0.143,0.064-0.143,0.147C52.965,64.346,53.028,64.409,53.107,64.409z"/>
		<path fill-rule="evenodd" clip-rule="evenodd" fill="#838692" d="M52.592,64.409c0.081,0,0.146-0.063,0.146-0.141
			c0-0.083-0.066-0.147-0.146-0.147c-0.079,0-0.142,0.064-0.142,0.147C52.45,64.346,52.513,64.409,52.592,64.409z"/>
		<path fill-rule="evenodd" clip-rule="evenodd" fill="#838692" d="M52.079,64.409c0.079,0,0.143-0.063,0.143-0.141
			c0-0.083-0.064-0.147-0.143-0.147c-0.081,0-0.146,0.064-0.146,0.147C51.934,64.346,51.999,64.409,52.079,64.409z"/>
		<path fill-rule="evenodd" clip-rule="evenodd" fill="#838692" d="M51.563,64.409c0.08,0,0.145-0.063,0.145-0.141
			c0-0.083-0.065-0.147-0.145-0.147s-0.144,0.064-0.144,0.147C51.42,64.346,51.484,64.409,51.563,64.409z"/>
		<path fill-rule="evenodd" clip-rule="evenodd" fill="#838692" d="M51.049,64.409c0.079,0,0.144-0.063,0.144-0.141
			c0-0.083-0.065-0.147-0.144-0.147s-0.145,0.064-0.145,0.147C50.904,64.346,50.97,64.409,51.049,64.409z"/>
		<circle fill-rule="evenodd" clip-rule="evenodd" fill="#838692" cx="52.078" cy="65.295" r="0.144"/>
		<circle fill-rule="evenodd" clip-rule="evenodd" fill="#838692" cx="52.078" cy="64.781" r="0.144"/>
		<circle fill-rule="evenodd" clip-rule="evenodd" fill="#838692" cx="52.078" cy="63.751" r="0.144"/>
		<path fill-rule="evenodd" clip-rule="evenodd" fill="#838692" d="M51.934,63.238c0,0.078,0.065,0.144,0.146,0.144
			c0.079,0,0.143-0.065,0.143-0.144c0-0.083-0.064-0.145-0.143-0.145C51.999,63.094,51.934,63.156,51.934,63.238z"/>
	</g>
	<g>
		<circle fill-rule="evenodd" clip-rule="evenodd" fill="#838692" cx="99.551" cy="64.115" r="0.144"/>
		<circle fill-rule="evenodd" clip-rule="evenodd" fill="#838692" cx="99.037" cy="64.115" r="0.144"/>
		<circle fill-rule="evenodd" clip-rule="evenodd" fill="#838692" cx="98.521" cy="64.115" r="0.144"/>
		<circle fill-rule="evenodd" clip-rule="evenodd" fill="#838692" cx="98.007" cy="64.115" r="0.144"/>
		<circle fill-rule="evenodd" clip-rule="evenodd" fill="#838692" cx="97.492" cy="64.115" r="0.144"/>
	</g>
	<g>
		<path fill-rule="evenodd" clip-rule="evenodd" fill="#838692" d="M75.143,83.666c0.052-0.218,0.06-0.457,0.01-0.794
			c-0.292-0.021-0.52-0.243-0.52-0.535c0-0.288,0.256-0.535,0.57-0.535c0.315,0,0.568,0.272,0.568,0.535
			c0,0.268-0.159,0.436-0.38,0.509l0,0c0,0,0.142,0.329,0.14,0.786C75.414,83.661,75.262,83.672,75.143,83.666z"/>
		<circle fill-rule="evenodd" clip-rule="evenodd" fill="#838692" cx="74.91" cy="83.596" r="0.078"/>
		<path fill-rule="evenodd" clip-rule="evenodd" fill="#838692" d="M74.594,83.583c0.042,0.016,0.091,0,0.11-0.042
			c0.018-0.036,0-0.084-0.042-0.1c-0.041-0.02-0.089,0-0.109,0.038C74.536,83.517,74.552,83.564,74.594,83.583z"/>
		<path fill-rule="evenodd" clip-rule="evenodd" fill="#838692" d="M74.323,83.434c0.038,0.026,0.088,0.019,0.116-0.018
			c0.027-0.035,0.019-0.084-0.017-0.109c-0.038-0.023-0.089-0.016-0.116,0.018C74.278,83.359,74.287,83.408,74.323,83.434z"/>
		<path fill-rule="evenodd" clip-rule="evenodd" fill="#838692" d="M74.091,83.236c0.031,0.03,0.083,0.033,0.117,0.006
			c0.033-0.029,0.036-0.078,0.005-0.111c-0.03-0.033-0.082-0.033-0.116-0.006C74.063,83.156,74.061,83.205,74.091,83.236z"/>
		<path fill-rule="evenodd" clip-rule="evenodd" fill="#838692" d="M73.907,82.998c0.023,0.035,0.073,0.049,0.114,0.027
			c0.039-0.022,0.052-0.068,0.029-0.106s-0.073-0.05-0.113-0.027C73.898,82.91,73.884,82.959,73.907,82.998z"/>
		<path fill-rule="evenodd" clip-rule="evenodd" fill="#838692" d="M73.781,82.726c0.014,0.041,0.061,0.064,0.103,0.053
			c0.043-0.015,0.067-0.058,0.052-0.101c-0.013-0.039-0.059-0.063-0.102-0.049C73.789,82.642,73.766,82.686,73.781,82.726z"/>
		<path fill-rule="evenodd" clip-rule="evenodd" fill="#838692" d="M73.716,82.438c0.004,0.045,0.044,0.073,0.089,0.068
			c0.047-0.004,0.078-0.044,0.073-0.083c-0.005-0.045-0.044-0.074-0.089-0.069C73.744,82.355,73.71,82.395,73.716,82.438z"/>
		<circle fill-rule="evenodd" clip-rule="evenodd" fill="#838692" cx="73.797" cy="82.149" r="0.082"/>
		<circle fill-rule="evenodd" clip-rule="evenodd" fill="#838692" cx="73.858" cy="81.876" r="0.081"/>
		<path fill-rule="evenodd" clip-rule="evenodd" fill="#838692" d="M73.907,81.585c-0.023,0.035-0.009,0.085,0.03,0.104
			c0.04,0.021,0.089,0.011,0.113-0.028c0.022-0.038,0.01-0.084-0.029-0.105C73.98,81.533,73.931,81.547,73.907,81.585z"/>
		<path fill-rule="evenodd" clip-rule="evenodd" fill="#838692" d="M74.091,81.346c-0.03,0.029-0.029,0.078,0.006,0.108
			c0.034,0.027,0.086,0.024,0.116-0.005c0.029-0.033,0.028-0.082-0.005-0.112C74.174,81.311,74.122,81.312,74.091,81.346z"/>
		<path fill-rule="evenodd" clip-rule="evenodd" fill="#838692" d="M74.323,81.146c-0.036,0.025-0.044,0.074-0.017,0.108
			c0.027,0.033,0.078,0.042,0.116,0.019c0.036-0.025,0.044-0.074,0.017-0.109C74.411,81.128,74.361,81.12,74.323,81.146z"/>
		<path fill-rule="evenodd" clip-rule="evenodd" fill="#838692" d="M74.594,80.997c-0.042,0.019-0.058,0.066-0.042,0.104
			c0.02,0.037,0.067,0.056,0.109,0.037c0.042-0.016,0.06-0.063,0.042-0.101C74.685,80.997,74.636,80.981,74.594,80.997z"/>
		<path fill-rule="evenodd" clip-rule="evenodd" fill="#838692" d="M74.894,80.908c-0.046,0.007-0.075,0.049-0.065,0.089
			c0.01,0.044,0.053,0.071,0.098,0.063c0.043-0.011,0.072-0.051,0.063-0.093C74.979,80.925,74.936,80.896,74.894,80.908z"/>
		<circle fill-rule="evenodd" clip-rule="evenodd" fill="#838692" cx="75.203" cy="80.955" r="0.079"/>
		<path fill-rule="evenodd" clip-rule="evenodd" fill="#838692" d="M75.513,80.908c-0.043-0.012-0.087,0.017-0.095,0.059
			c-0.012,0.042,0.017,0.082,0.062,0.093c0.046,0.009,0.089-0.019,0.099-0.063C75.587,80.957,75.559,80.915,75.513,80.908z"/>
		<path fill-rule="evenodd" clip-rule="evenodd" fill="#838692" d="M75.811,80.997c-0.041-0.016-0.089,0-0.107,0.041
			c-0.018,0.038,0,0.085,0.041,0.101c0.043,0.019,0.09,0,0.109-0.037C75.871,81.063,75.852,81.016,75.811,80.997z"/>
		<path fill-rule="evenodd" clip-rule="evenodd" fill="#838692" d="M76.081,81.145c-0.036-0.024-0.086-0.017-0.112,0.02
			c-0.029,0.035-0.02,0.084,0.018,0.109c0.036,0.023,0.088,0.015,0.114-0.019C76.127,81.221,76.119,81.172,76.081,81.145z"/>
		<path fill-rule="evenodd" clip-rule="evenodd" fill="#838692" d="M76.316,81.346c-0.031-0.034-0.084-0.038-0.118-0.009
			c-0.033,0.03-0.035,0.079-0.005,0.112c0.03,0.029,0.082,0.032,0.115,0.005C76.343,81.424,76.346,81.375,76.316,81.346z"/>
		<path fill-rule="evenodd" clip-rule="evenodd" fill="#838692" d="M76.499,81.585c-0.021-0.038-0.074-0.052-0.112-0.03
			c-0.04,0.021-0.053,0.067-0.031,0.105c0.024,0.039,0.074,0.049,0.113,0.028C76.509,81.67,76.522,81.62,76.499,81.585z"/>
		<circle fill-rule="evenodd" clip-rule="evenodd" fill="#838692" cx="76.547" cy="81.876" r="0.081"/>
		<path fill-rule="evenodd" clip-rule="evenodd" fill="#838692" d="M76.69,82.142c-0.003-0.044-0.045-0.073-0.091-0.067
			c-0.043,0.002-0.075,0.041-0.072,0.083c0.006,0.044,0.046,0.075,0.09,0.067C76.662,82.224,76.695,82.186,76.69,82.142z"/>
		<path fill-rule="evenodd" clip-rule="evenodd" fill="#838692" d="M76.69,82.438c0.005-0.043-0.028-0.082-0.073-0.084
			c-0.044-0.005-0.084,0.024-0.09,0.069c-0.003,0.039,0.029,0.079,0.072,0.083C76.646,82.511,76.688,82.482,76.69,82.438z"/>
		<path fill-rule="evenodd" clip-rule="evenodd" fill="#838692" d="M76.625,82.726c0.016-0.04-0.008-0.084-0.052-0.097
			c-0.044-0.015-0.089,0.01-0.103,0.049c-0.016,0.043,0.008,0.086,0.052,0.097C76.564,82.79,76.613,82.767,76.625,82.726z"/>
		<path fill-rule="evenodd" clip-rule="evenodd" fill="#838692" d="M76.499,82.998c0.023-0.039,0.01-0.088-0.03-0.106
			c-0.039-0.022-0.089-0.011-0.113,0.027c-0.021,0.038-0.009,0.084,0.031,0.106C76.425,83.047,76.478,83.033,76.499,82.998z"/>
		<path fill-rule="evenodd" clip-rule="evenodd" fill="#838692" d="M76.316,83.236c0.029-0.031,0.026-0.08-0.008-0.111
			c-0.033-0.027-0.085-0.027-0.115,0.006s-0.028,0.082,0.005,0.111C76.232,83.27,76.285,83.267,76.316,83.236z"/>
		<circle fill-rule="evenodd" clip-rule="evenodd" fill="#838692" cx="76.034" cy="83.37" r="0.079"/>
		<path fill-rule="evenodd" clip-rule="evenodd" fill="#838692" d="M75.811,83.583c0.043-0.019,0.061-0.066,0.043-0.104
			c-0.018-0.038-0.066-0.058-0.109-0.038c-0.041,0.016-0.059,0.063-0.041,0.1C75.722,83.583,75.77,83.599,75.811,83.583z"/>
	</g>
</g>
</svg>
