<?xml version="1.0" encoding="utf-8"?>
<!-- Generator: Adobe Illustrator 15.0.0, SVG Export Plug-In . SVG Version: 6.00 Build 0)  -->
<!DOCTYPE svg PUBLIC "-//W3C//DTD SVG 1.1//EN" "http://www.w3.org/Graphics/SVG/1.1/DTD/svg11.dtd">
<svg version="1.1" id="图层_1" xmlns="http://www.w3.org/2000/svg" xmlns:xlink="http://www.w3.org/1999/xlink" x="0px" y="0px"
	 width="19.19px" height="50px" viewBox="0 0 19.19 50" enable-background="new 0 0 19.19 50" xml:space="preserve">
<g>
	<path fill="#595758" d="M19.188,42.081V15.246c0-0.758-0.305-1.484-0.84-2.02c-0.268-0.265-0.582-0.474-0.927-0.615
		c-0.339-0.142-0.708-0.215-1.085-0.215v-0.003H2.854c-0.377,0-0.748,0.076-1.092,0.22c-0.341,0.14-0.656,0.351-0.924,0.62
		c-0.533,0.534-0.835,1.258-0.835,2.013l0.003,26.835c0.002,1.56,1.273,2.853,2.849,2.851l13.481,0.004
		C17.93,44.936,19.147,43.657,19.188,42.081L19.188,42.081z M17.754,42.081c-0.028,0.808-0.633,1.419-1.418,1.419H2.854
		c-0.788,0-1.42-0.631-1.422-1.419l0.002-26.835c0-0.377,0.149-0.739,0.416-1.005c0.132-0.132,0.288-0.236,0.46-0.306
		c0.168-0.071,0.354-0.107,0.544-0.107h13.481v-0.002c0.186,0,0.371,0.037,0.543,0.107c0.17,0.071,0.329,0.176,0.461,0.31
		c0.266,0.265,0.414,0.629,0.414,1.004L17.754,42.081L17.754,42.081z"/>
	<path fill="#595758" d="M8.318,6.939c0.83-1.652-1.148-1.753-0.774-2.647c0.142-0.338,0.613-0.447,0.965-0.278
		C9.322,4.405,9.943,5.203,9.92,6.07C9.887,7.396,8.601,8.658,9.54,9.881c0.228,0.296,0.148,0.706-0.175,0.915
		c-0.402,0.261-0.828,0.084-1.072-0.258c-0.249-0.345-0.584-0.916-0.575-1.336C7.738,8.204,7.997,7.581,8.318,6.939z"/>
	<path fill="#595758" d="M0.719,33.639c-0.396,0-0.716,0.319-0.716,0.715s0.32,0.717,0.716,0.717h17.752
		c0.396,0,0.718-0.321,0.718-0.717s-0.322-0.715-0.718-0.715H0.719z"/>
	<path fill="#595758" d="M5.013,31.548c-0.396,0-0.716,0.321-0.716,0.716s0.321,0.717,0.716,0.717h9.164
		c0.396,0,0.717-0.322,0.717-0.717s-0.322-0.716-0.717-0.716H5.013z"/>
	<path fill="#595758" d="M11.031,7.982c0.833-1.651-1.146-1.753-0.773-2.648c0.141-0.337,0.613-0.446,0.964-0.277
		c0.813,0.391,1.436,1.188,1.413,2.057c-0.034,1.325-1.321,2.587-0.383,3.809c0.228,0.297,0.149,0.706-0.172,0.917
		c-0.403,0.26-0.83,0.083-1.073-0.259c-0.249-0.345-0.584-0.915-0.575-1.336C10.453,9.247,10.71,8.623,11.031,7.982z"/>
	<path fill="#595758" d="M5.794,7.982c0.83-1.651-1.149-1.753-0.774-2.648C5.16,4.996,5.633,4.888,5.982,5.057
		c0.814,0.391,1.437,1.188,1.412,2.057c-0.032,1.325-1.32,2.587-0.38,3.809c0.229,0.297,0.149,0.706-0.175,0.917
		c-0.402,0.26-0.828,0.083-1.073-0.259c-0.25-0.345-0.585-0.915-0.576-1.336C5.213,9.247,5.471,8.623,5.794,7.982z"/>
</g>
</svg>
