<?xml version="1.0" standalone="no"?><!DOCTYPE svg PUBLIC "-//W3C//DTD SVG 1.1//EN" "http://www.w3.org/Graphics/SVG/1.1/DTD/svg11.dtd"><svg t="1525230533499" class="icon" style="" viewBox="0 0 1024 1024" version="1.1" xmlns="http://www.w3.org/2000/svg" p-id="1917" xmlns:xlink="http://www.w3.org/1999/xlink" width="64" height="64"><defs><style type="text/css"></style></defs><path d="M988.525714 325.763657C976.149943 160.855771 832.029257 36.834743 667.018971 49.152c-164.907886 12.3904-288.9728 156.613486-276.597028 321.521371a301.787429 301.787429 0 0 0 8.235886 50.775772 28.920686 28.920686 0 0 0-10.166858 6.056228L48.7424 738.362514c-6.0416 5.5296-10.9568 13.355886-10.9568 21.562515v192.6144c0 16.149943 16.032914 21.489371 32.197486 21.489371h175.542857c16.149943 0 26.3168-5.3248 26.3168-21.489371v-51.653486h88.488228c8.6016 0 16.764343-1.8432 22.3232-8.3968 5.558857-6.568229 7.943314-13.312 6.538972-21.796572l-8.952686-57.578057h53.233372c8.279771 0 16.193829-0.131657 21.738057-6.290285l155.223771-169.325715a298.686171 298.686171 0 0 0 101.507657 9.771886c164.893257-12.419657 288.9728-156.642743 276.5824-321.506743zM707.569371 588.917029a240.508343 240.508343 0 0 1-136.060342-30.090972 29.271771 29.271771 0 0 0-28.628115 51.039086c2.399086 1.345829 4.856686 2.516114 7.285029 3.7888l-129.726172 140.946286h-74.722742c-8.6016 0-16.764343 5.7344-22.3232 12.288-5.558857 6.568229-7.943314 17.173943-6.538972 25.658514l8.952686 49.824914h-80.2816c-16.149943 0-32.197486 20.874971-32.197486 37.024914v36.117943h-117.028571v-142.716343l322.7648-294.8096c2.530743 5.251657 5.193143 10.474057 8.045714 15.608686a29.257143 29.257143 0 0 0 51.170743-28.379428 239.981714 239.981714 0 0 1-29.520457-98.933029c-9.962057-132.725029 89.9072-248.817371 222.632228-258.779429 132.8128-9.815771 248.802743 89.921829 258.779429 222.632229 9.976686 132.7104-89.892571 248.788114-222.602972 258.779429z" fill="#3de4ff" p-id="1918"></path><path d="M740.688457 231.541029a65.550629 65.550629 0 0 0-65.492114 65.477485c0 17.481143 6.816914 33.938286 19.207314 46.314057a65.024 65.024 0 0 0 46.2848 19.163429 65.565257 65.565257 0 0 0 65.492114-65.492114 65.550629 65.550629 0 0 0-65.492114-65.462857z m0 101.6832a36.220343 36.220343 0 1 1-0.029257-72.440686 36.220343 36.220343 0 0 1 0.029257 72.440686zM664.078629 155.721143c-4.666514 0-9.347657 0.190171-13.9264 0.585143a14.628571 14.628571 0 1 0 2.486857 29.140114 141.312 141.312 0 0 1 11.439543-0.468114 14.628571 14.628571 0 1 0 0-29.257143zM594.461257 170.876343a167.687314 167.687314 0 0 0-97.470171 151.946971 14.628571 14.628571 0 1 0 29.257143 0 138.313143 138.313143 0 0 1 80.413257-125.3376 14.628571 14.628571 0 1 0-12.200229-26.609371zM394.620343 547.7376l-195.584 170.247314a14.628571 14.628571 0 1 0 19.207314 22.059886l195.569372-170.247314a14.599314 14.599314 0 1 0-19.192686-22.059886zM166.619429 746.218057l-24.064 20.962743a14.628571 14.628571 0 1 0 19.207314 22.059886l24.064-20.962743a14.628571 14.628571 0 1 0-19.207314-22.059886z" fill="#3de4ff" p-id="1919"></path></svg>