<?xml version="1.0" encoding="utf-8"?>
<!-- Generator: Adobe Illustrator 15.0.0, SVG Export Plug-In . SVG Version: 6.00 Build 0)  -->
<!DOCTYPE svg PUBLIC "-//W3C//DTD SVG 1.1//EN" "http://www.w3.org/Graphics/SVG/1.1/DTD/svg11.dtd">
<svg version="1.1" id="图层_1" xmlns="http://www.w3.org/2000/svg" xmlns:xlink="http://www.w3.org/1999/xlink" x="0px" y="0px"
	 width="5.6px" height="5.6px" viewBox="0 0 5.6 5.6" enable-background="new 0 0 5.6 5.6" xml:space="preserve">
<g>
	
		<path fill-rule="evenodd" clip-rule="evenodd" fill="none" stroke="#898989" stroke-width="0.2401" stroke-linecap="round" stroke-linejoin="round" stroke-miterlimit="22.9256" d="
		M3.563,3.976c0.562-0.35,0.823-1.03,0.64-1.666C4.021,1.673,3.439,1.235,2.778,1.235c-0.662,0-1.244,0.438-1.426,1.075
		c-0.182,0.636,0.08,1.315,0.642,1.666v0.857C2.015,4.993,2.16,5.106,2.321,5.09h0.914c0.162,0.017,0.307-0.097,0.329-0.257V3.976z"
		/>
	
		<line fill-rule="evenodd" clip-rule="evenodd" fill="none" stroke="#898989" stroke-width="0.2401" stroke-linecap="round" stroke-linejoin="round" stroke-miterlimit="22.9256" x1="3.292" y1="5.487" x2="2.264" y2="5.487"/>
	
		<line fill-rule="evenodd" clip-rule="evenodd" fill="none" stroke="#898989" stroke-width="0.2401" stroke-linecap="round" stroke-miterlimit="22.9256" x1="0.724" y1="2.655" x2="0.113" y2="2.655"/>
	
		<line fill-rule="evenodd" clip-rule="evenodd" fill="none" stroke="#898989" stroke-width="0.2401" stroke-linecap="round" stroke-miterlimit="22.9256" x1="5.486" y1="2.655" x2="4.875" y2="2.655"/>
	
		<line fill-rule="evenodd" clip-rule="evenodd" fill="none" stroke="#898989" stroke-width="0.2401" stroke-linecap="round" stroke-miterlimit="22.9256" x1="2.778" y1="0.112" x2="2.778" y2="0.723"/>
	<g>
		
			<line fill-rule="evenodd" clip-rule="evenodd" fill="none" stroke="#898989" stroke-width="0.2401" stroke-linecap="round" stroke-miterlimit="22.9256" x1="1.121" y1="1.31" x2="0.692" y2="0.876"/>
		
			<line fill-rule="evenodd" clip-rule="evenodd" fill="none" stroke="#898989" stroke-width="0.2401" stroke-linecap="round" stroke-miterlimit="22.9256" x1="4.434" y1="1.31" x2="4.863" y2="0.876"/>
	</g>
</g>
</svg>
