<?xml version="1.0" encoding="utf-8"?>
<!-- Generator: Adobe Illustrator 15.0.0, SVG Export Plug-In . SVG Version: 6.00 Build 0)  -->
<!DOCTYPE svg PUBLIC "-//W3C//DTD SVG 1.1//EN" "http://www.w3.org/Graphics/SVG/1.1/DTD/svg11.dtd">
<svg version="1.1" id="图层_1" xmlns="http://www.w3.org/2000/svg" xmlns:xlink="http://www.w3.org/1999/xlink" x="0px" y="0px"
	 width="43px" height="43px" viewBox="0 0 43 43" enable-background="new 0 0 43 43" xml:space="preserve">
<g>
	<path fill="#9B9FAC" d="M37.155,19.654c-0.478,0-0.864,0.386-0.864,0.863c0,0.479,0.387,0.865,0.864,0.865h3.979
		c0.478,0,0.865-0.386,0.865-0.865c0-0.477-0.388-0.863-0.865-0.863H37.155z"/>
	<path fill="#9B9FAC" d="M32.107,11.359c-0.354,0.32-0.379,0.868-0.059,1.221c0.321,0.352,0.868,0.377,1.221,0.056l2.945-2.674
		c0.354-0.321,0.377-0.868,0.06-1.221c-0.322-0.352-0.869-0.378-1.222-0.058L32.107,11.359z"/>
	<path fill="#9B9FAC" d="M20.635,8.415c0,0.477,0.388,0.863,0.866,0.863c0.478,0,0.865-0.386,0.865-0.863V3.539
		c0-0.477-0.387-0.865-0.865-0.865c-0.478,0-0.866,0.388-0.866,0.865V8.415z"/>
	<path fill="#9B9FAC" d="M9.73,12.636c0.353,0.321,0.9,0.296,1.22-0.056c0.321-0.353,0.295-0.901-0.057-1.221L7.947,8.684
		c-0.352-0.321-0.9-0.294-1.221,0.058c-0.32,0.353-0.294,0.9,0.058,1.221L9.73,12.636z"/>
	<path fill="#9B9FAC" d="M5.844,21.382c0.478,0,0.865-0.386,0.865-0.865c0-0.477-0.388-0.863-0.865-0.863H1.865
		C1.387,19.654,1,20.04,1,20.517c0,0.479,0.387,0.865,0.865,0.865H5.844z"/>
	<path fill="#9B9FAC" d="M33.353,24.712c0.038,0.476,0.457,0.829,0.933,0.79c0.476-0.04,0.829-0.457,0.79-0.933
		c-0.294-3.531-1.919-6.651-4.354-8.89c-2.435-2.24-5.682-3.598-9.221-3.598c-3.539,0-6.787,1.358-9.223,3.598
		c-2.435,2.239-4.058,5.359-4.354,8.89c-0.039,0.476,0.315,0.893,0.791,0.933c0.476,0.039,0.895-0.314,0.933-0.79
		c0.257-3.081,1.675-5.809,3.8-7.762c2.125-1.953,4.959-3.138,8.053-3.138s5.927,1.186,8.053,3.137
		C31.678,18.903,33.095,21.631,33.353,24.712z"/>
	<path fill="#9B9FAC" d="M14.796,38.595c-0.478,0-0.866,0.388-0.866,0.865c0,0.479,0.388,0.865,0.866,0.865h13.408
		c0.479,0,0.865-0.387,0.865-0.865c0-0.478-0.387-0.865-0.865-0.865H14.796z"/>
	<path fill="#9B9FAC" d="M12.933,32.687c-0.478,0-0.865,0.386-0.865,0.865c0,0.477,0.388,0.864,0.865,0.864h17.136
		c0.477,0,0.864-0.388,0.864-0.864c0-0.479-0.388-0.865-0.864-0.865H12.933z"/>
	<path fill="#9B9FAC" d="M8.466,27.014c-0.478,0-0.865,0.389-0.865,0.865c0,0.478,0.387,0.865,0.865,0.865h26.067
		c0.479,0,0.865-0.388,0.865-0.865c0-0.477-0.387-0.865-0.865-0.865H8.466z"/>
</g>
</svg>
