<?xml version="1.0" encoding="utf-8"?>
<!-- Generator: Adobe Illustrator 15.0.0, SVG Export Plug-In . SVG Version: 6.00 Build 0)  -->
<!DOCTYPE svg PUBLIC "-//W3C//DTD SVG 1.1//EN" "http://www.w3.org/Graphics/SVG/1.1/DTD/svg11.dtd">
<svg version="1.1" id="图层_1" xmlns="http://www.w3.org/2000/svg" xmlns:xlink="http://www.w3.org/1999/xlink" x="0px" y="0px"
	 width="9px" height="20px" viewBox="0 0 9 20" enable-background="new 0 0 9 20" xml:space="preserve">
<polygon fill="#FFFFFF" points="0.319,10 4.621,5.032 8.925,0.063 8.925,10 8.925,19.936 4.621,14.966 "/>
<path fill="#E6E5E5" d="M8.587,19.919c0.09,0.101,0.237,0.108,0.338,0.017c0.095-0.09,0.103-0.246,0.017-0.349L4.798,14.8L0.64,10
	l4.158-4.801l4.142-4.786c0.086-0.101,0.078-0.259-0.016-0.35c-0.1-0.09-0.247-0.083-0.337,0.019L4.444,4.867L0.142,9.833L0,10
	l0.142,0.166l4.302,4.967L8.587,19.919z"/>
</svg>
