<?xml version="1.0" encoding="utf-8"?>
<!-- Generator: Adobe Illustrator 15.0.0, SVG Export Plug-In . SVG Version: 6.00 Build 0)  -->
<!DOCTYPE svg PUBLIC "-//W3C//DTD SVG 1.1//EN" "http://www.w3.org/Graphics/SVG/1.1/DTD/svg11.dtd">
<svg version="1.1" id="图层_1" xmlns="http://www.w3.org/2000/svg" xmlns:xlink="http://www.w3.org/1999/xlink" x="0px" y="0px"
	 width="20px" height="24px" viewBox="0 0 20 24" enable-background="new 0 0 20 24" xml:space="preserve">
<g>
	<polygon fill="#EA5903" points="8.75,6.857 8.75,9.428 6.25,9.428 6.25,12 8.75,12 8.75,14.571 11.25,14.571 11.25,12 13.75,12 
		13.75,9.428 11.25,9.428 11.25,6.857 8.75,6.857 	"/>
	<path fill="#EA5903" d="M18.333,3.62c-3.7,0-7.181-3.145-7.215-3.177C10.801,0.147,10.4,0,10,0C9.601,0,9.201,0.147,8.883,0.44
		C8.832,0.489,5.386,3.62,1.667,3.62C0.746,3.62,0,4.388,0,5.334v5.185c0,4.694,2.706,8.634,9.047,13.174
		C9.334,23.898,9.667,24,10,24s0.666-0.102,0.952-0.308C17.294,19.152,20,15.213,20,10.519V5.334C20,4.388,19.254,3.62,18.333,3.62z
		 M18.333,10.519c0,3.456-1.666,6.994-8.333,11.767c-6.666-4.772-8.333-8.311-8.333-11.767V5.334c4.444,0,8.333-3.62,8.333-3.62
		s3.889,3.62,8.333,3.62V10.519z"/>
</g>
</svg>
