<?xml version="1.0" standalone="no"?><!DOCTYPE svg PUBLIC "-//W3C//DTD SVG 1.1//EN" "http://www.w3.org/Graphics/SVG/1.1/DTD/svg11.dtd"><svg t="1538020141944" class="icon" style="" viewBox="0 0 1024 1024" version="1.1" xmlns="http://www.w3.org/2000/svg" p-id="3110" xmlns:xlink="http://www.w3.org/1999/xlink" width="50" height="50"><defs><style type="text/css"></style></defs><path d="M512 1024a512 512 0 1 1 512-512 512.580405 512.580405 0 0 1-512 512z m0-994.979757A482.979757 482.979757 0 1 0 994.979757 512 483.477247 483.477247 0 0 0 512 29.020243z" p-id="3111" fill="#8e8e8e"></path><path d="M683.799838 636.86996H339.951417a27.527773 27.527773 0 0 0-27.444858 27.527773A27.444858 27.444858 0 0 0 339.951417 692.091336h343.848421a27.444858 27.444858 0 0 0 27.444858-27.444858 27.527773 27.527773 0 0 0-27.444858-27.776518z m43.779109-167.32243h-46.681133a24.874494 24.874494 0 0 0-24.874494 24.874494v46.100729a24.874494 24.874494 0 0 0 24.874494 24.874494h46.681133a24.874494 24.874494 0 0 0 24.874494-24.874494v-46.100729a24.874494 24.874494 0 0 0-24.874494-24.874494zM550.638381 565.397247H596.987854a24.874494 24.874494 0 0 0 24.874494-24.874494v-46.100729a24.874494 24.874494 0 0 0-24.874494-24.874494h-46.349473a24.874494 24.874494 0 0 0-24.874494 24.874494v46.100729a24.874494 24.874494 0 0 0 24.874494 24.874494z m-123.626235 0h46.349473a24.874494 24.874494 0 0 0 24.874494-24.874494v-46.100729a24.874494 24.874494 0 0 0-24.874494-24.874494H427.012146a24.874494 24.874494 0 0 0-24.874494 24.874494v46.100729a24.874494 24.874494 0 0 0 24.874494 24.874494z m-59.118381-24.874494v-46.100729a24.874494 24.874494 0 0 0-24.874494-24.874494h-46.598218a24.874494 24.874494 0 0 0-24.874494 24.874494v46.100729a24.874494 24.874494 0 0 0 24.874494 24.874494h46.598218a24.874494 24.874494 0 0 0 24.874494-24.874494zM727.578947 331.659919h-46.681133a24.874494 24.874494 0 0 0-24.874494 24.874494v46.432389a24.874494 24.874494 0 0 0 24.874494 24.874494h46.681133a24.874494 24.874494 0 0 0 24.874494-24.874494V356.534413a24.874494 24.874494 0 0 0-24.874494-24.874494zM550.638381 428.09004H596.987854a24.874494 24.874494 0 0 0 24.874494-24.874493V356.534413a24.874494 24.874494 0 0 0-24.874494-24.874494h-46.349473a24.874494 24.874494 0 0 0-24.874494 24.874494v46.432389a24.874494 24.874494 0 0 0 24.874494 25.123238z m-123.626235 0h46.349473a24.874494 24.874494 0 0 0 24.874494-24.874493V356.534413a24.874494 24.874494 0 0 0-24.874494-24.874494H427.012146a24.874494 24.874494 0 0 0-24.874494 24.874494v46.432389a24.874494 24.874494 0 0 0 24.874494 25.123238z m-130.591093 0h46.598218a24.874494 24.874494 0 0 0 24.874494-24.874493V356.534413a24.874494 24.874494 0 0 0-24.874494-24.874494h-46.598218a24.874494 24.874494 0 0 0-24.874494 24.874494v46.432389a24.874494 24.874494 0 0 0 24.874494 25.123238z" p-id="3112" fill="#8e8e8e"></path></svg>