<?xml version="1.0" standalone="no"?><!DOCTYPE svg PUBLIC "-//W3C//DTD SVG 1.1//EN" "http://www.w3.org/Graphics/SVG/1.1/DTD/svg11.dtd"><svg t="1538016801879" class="icon" style="" viewBox="0 0 1024 1024" version="1.1" xmlns="http://www.w3.org/2000/svg" p-id="1221" xmlns:xlink="http://www.w3.org/1999/xlink" width="50" height="50"><defs><style type="text/css"></style></defs><path d="M512 1024C229.2736 1024 0 794.7264 0 512 0 229.29408 229.2736 0 512 0s512 229.29408 512 512c0 282.7264-231.5264 512-512 512z m0-979.47648C253.76768 44.52352 44.52352 253.76768 44.52352 512S253.76768 979.47648 512 979.47648 979.47648 770.21184 979.47648 512C979.47648 253.76768 768 44.52352 512 44.52352z m232.3456 547.24608h-36.06528a18.06336 18.06336 0 0 1-18.04288-18.04288v-72.11008a18.0224 18.0224 0 0 1 18.04288-18.0224h36.06528c9.9328 0 18.0224 8.0896 18.0224 18.0224v72.11008a18.06336 18.06336 0 0 1-18.0224 18.04288z m0-162.28352h-36.06528a18.0224 18.0224 0 0 1-18.04288-18.0224V339.3536a18.0224 18.0224 0 0 1 18.04288-18.0224h36.06528c9.9328 0 18.0224 8.0896 18.0224 18.0224v72.11008c0 9.9328-8.0896 18.0224-18.0224 18.0224z m-144.24064 162.28352h-36.06528a18.06336 18.06336 0 0 1-18.04288-18.04288v-72.11008a18.0224 18.0224 0 0 1 18.04288-18.0224h36.06528c9.9328 0 18.0224 8.0896 18.0224 18.0224v72.11008a18.06336 18.06336 0 0 1-18.0224 18.04288z m0-162.28352h-36.06528a18.0224 18.0224 0 0 1-18.04288-18.0224V339.3536a18.0224 18.0224 0 0 1 18.04288-18.0224h36.06528c9.9328 0 18.0224 8.0896 18.0224 18.0224v72.11008c0 9.9328-8.0896 18.0224-18.0224 18.0224z m126.21824 252.416v18.0224a18.06336 18.06336 0 0 1-18.04288 18.04288H311.62368a18.06336 18.06336 0 0 1-18.0224-18.04288v-18.0224a18.0224 18.0224 0 0 1 18.0224-18.0224h396.65664a18.0224 18.0224 0 0 1 18.04288 18.0224z m-270.45888-90.13248h-36.06528a18.0224 18.0224 0 0 1-18.0224-18.04288v-72.11008a18.0224 18.0224 0 0 1 18.0224-18.0224h36.06528c9.9328 0 18.0224 8.0896 18.0224 18.0224v72.11008a18.0224 18.0224 0 0 1-18.0224 18.04288z m0-162.28352h-36.06528a18.0224 18.0224 0 0 1-18.0224-18.0224V339.3536a18.0224 18.0224 0 0 1 18.0224-18.0224h36.06528c9.9328 0 18.0224 8.0896 18.0224 18.0224v72.11008a18.0224 18.0224 0 0 1-18.0224 18.0224z m-144.24064 162.28352h-36.0448a18.06336 18.06336 0 0 1-18.04288-18.04288v-72.11008a18.0224 18.0224 0 0 1 18.04288-18.0224h36.0448c9.95328 0 18.04288 8.0896 18.04288 18.0224v72.11008a18.06336 18.06336 0 0 1-18.04288 18.04288z m0-162.28352h-36.0448a18.0224 18.0224 0 0 1-18.04288-18.0224V339.3536a18.0224 18.0224 0 0 1 18.04288-18.0224h36.0448c9.95328 0 18.04288 8.0896 18.04288 18.0224v72.11008c0 9.9328-8.0896 18.0224-18.04288 18.0224z" p-id="1222"></path></svg>