<?xml version="1.0" encoding="utf-8"?>
<!-- Generator: Adobe Illustrator 15.0.0, SVG Export Plug-In . SVG Version: 6.00 Build 0)  -->
<!DOCTYPE svg PUBLIC "-//W3C//DTD SVG 1.1//EN" "http://www.w3.org/Graphics/SVG/1.1/DTD/svg11.dtd">
<svg version="1.1" id="图层_1" xmlns="http://www.w3.org/2000/svg" xmlns:xlink="http://www.w3.org/1999/xlink" x="0px" y="0px"
	 width="20px" height="22px" viewBox="0 0 20 22" enable-background="new 0 0 20 22" xml:space="preserve">
<g>
	<path fill-rule="evenodd" clip-rule="evenodd" fill="#FFFFFF" d="M9.953,11.003c3.067,0,5.569-2.471,5.569-5.501
		C15.521,2.472,13.02,0,9.953,0c-3.068,0-5.57,2.472-5.57,5.501C4.383,8.532,6.885,11.003,9.953,11.003z"/>
	<path fill-rule="evenodd" clip-rule="evenodd" fill="#FFFFFF" d="M19.5,17.61c-0.731-5.95-4.614-6.776-4.623-6.794
		c-1.303,1.156-3.029,1.872-4.925,1.872c-1.875,0-3.584-0.7-4.875-1.852C5.075,10.834,1.191,11.66,0.5,17.69
		C2.793,20.335,6.176,22,9.952,22C13.805,22,17.247,20.268,19.5,17.61z"/>
</g>
</svg>
