<?xml version="1.0" encoding="utf-8"?>
<!-- Generator: Adobe Illustrator 15.0.0, SVG Export Plug-In . SVG Version: 6.00 Build 0)  -->
<!DOCTYPE svg PUBLIC "-//W3C//DTD SVG 1.1//EN" "http://www.w3.org/Graphics/SVG/1.1/DTD/svg11.dtd">
<svg version="1.1" id="图层_1" xmlns="http://www.w3.org/2000/svg" xmlns:xlink="http://www.w3.org/1999/xlink" x="0px" y="0px"
	 width="20px" height="22px" viewBox="0 0 20 22" enable-background="new 0 0 20 22" xml:space="preserve">
<path fill="#FFFFFF" d="M16.251,14.477c1.081,0.871,1.982,1.97,2.626,3.22c0.629,1.22,1.02,2.591,1.106,4.036L20,22h-0.265h-1.373
	h-0.23l-0.017-0.235c-0.08-1.158-0.404-2.273-0.93-3.271c-0.525-0.997-1.261-1.887-2.165-2.596l-0.257-0.203l0.045-0.033
	l-0.067-0.107c-0.067-0.128-0.108-0.274-0.108-0.43c0-0.26,0.106-0.498,0.276-0.67h0.001c0.171-0.17,0.405-0.278,0.662-0.278
	c0.133,0,0.262,0.031,0.378,0.084C16.063,14.312,16.167,14.387,16.251,14.477L16.251,14.477z M6.849,10.354
	c0.864,0.874,2.063,1.415,3.385,1.415c1.321,0,2.519-0.542,3.383-1.415c0.862-0.874,1.398-2.083,1.398-3.418
	c0-1.334-0.536-2.544-1.399-3.417c-0.864-0.874-2.061-1.415-3.382-1.415c-1.322,0-2.519,0.542-3.384,1.415
	c-0.864,0.875-1.4,2.084-1.4,3.417C5.449,8.271,5.984,9.481,6.849,10.354L6.849,10.354z M15.085,2.032
	C13.844,0.778,12.126,0,10.233,0S6.622,0.778,5.381,2.032C4.137,3.287,3.367,5.024,3.367,6.937c0,1.262,0.34,2.443,0.928,3.456
	c0.523,0.903,1.249,1.678,2.106,2.265C4.641,13.338,3.116,14.511,2,16.009H1.999c-1.19,1.599-1.923,3.571-1.991,5.713L0,21.983
	h0.255h1.373h0.24l0.008-0.245c0.078-2.158,0.989-4.105,2.417-5.519c1.425-1.41,3.367-2.293,5.514-2.331l0.026-0.002l0.023-0.004
	l0.129-0.03l0.071,0.009c0.058,0.008,0.12,0.018,0.181,0.018v-0.001c1.892-0.003,3.609-0.78,4.85-2.036s2.01-2.991,2.01-4.905
	C17.097,5.021,16.327,3.286,15.085,2.032z"/>
</svg>
