<?xml version="1.0" encoding="utf-8"?>
<!-- Generator: Adobe Illustrator 15.0.0, SVG Export Plug-In . SVG Version: 6.00 Build 0)  -->
<!DOCTYPE svg PUBLIC "-//W3C//DTD SVG 1.1//EN" "http://www.w3.org/Graphics/SVG/1.1/DTD/svg11.dtd">
<svg version="1.1" id="图层_1" xmlns="http://www.w3.org/2000/svg" xmlns:xlink="http://www.w3.org/1999/xlink" x="0px" y="0px"
	 width="20px" height="22px" viewBox="0 0 20 22" enable-background="new 0 0 20 22" xml:space="preserve">
<g>
	<path fill="#FFFFFF" d="M17.098,6.944c0-1.914-0.771-3.65-2.012-4.904s-2.959-2.032-4.852-2.032S6.623,0.786,5.381,2.04
		C4.137,3.295,3.367,5.032,3.367,6.944c0,1.263,0.34,2.444,0.928,3.457c0.523,0.903,1.25,1.678,2.107,2.265
		C4.641,13.347,3.116,14.52,2,16.018c-1.191,1.599-1.924,3.572-1.992,5.713L0,21.992h0.256h1.373h0.239l0.009-0.245
		c0.078-2.157,0.988-4.105,2.416-5.519c1.425-1.41,3.368-2.293,5.514-2.332l0.026-0.001l0.023-0.004l0.129-0.03l0.071,0.009
		c0.059,0.008,0.12,0.018,0.182,0.018v-0.001c1.891-0.003,3.608-0.78,4.849-2.036S17.098,8.86,17.098,6.944z M13.617,10.363
		c-0.865,0.874-2.062,1.415-3.383,1.415c-1.322,0-2.521-0.541-3.385-1.415c-0.865-0.873-1.4-2.083-1.4-3.419
		c0-1.332,0.536-2.542,1.4-3.417c0.865-0.873,2.063-1.414,3.385-1.414c1.321,0,2.517,0.541,3.381,1.414
		c0.864,0.874,1.4,2.084,1.4,3.417C15.016,8.28,14.479,9.49,13.617,10.363z"/>
	<path fill="#FFFFFF" d="M19.983,21.732c-0.087-1.445-0.478-2.816-1.106-4.036c-0.643-1.25-1.544-2.349-2.626-3.22
		c-0.083-0.09-0.187-0.165-0.3-0.217c-0.116-0.053-0.245-0.084-0.378-0.084c-0.258,0-0.492,0.108-0.662,0.277H14.91
		c-0.17,0.173-0.277,0.411-0.277,0.671c0,0.155,0.041,0.302,0.109,0.43l0.066,0.107l-0.044,0.033l0.257,0.203
		c0.903,0.709,1.639,1.599,2.165,2.596c0.525,0.998,0.85,2.113,0.929,3.271L18.132,22h0.231h1.373H20L19.983,21.732z"/>
</g>
</svg>
