<?xml version="1.0" standalone="no"?><!DOCTYPE svg PUBLIC "-//W3C//DTD SVG 1.1//EN" "http://www.w3.org/Graphics/SVG/1.1/DTD/svg11.dtd"><svg t="1538016829045" class="icon" style="" viewBox="0 0 1024 1024" version="1.1" xmlns="http://www.w3.org/2000/svg" p-id="2522" xmlns:xlink="http://www.w3.org/1999/xlink" width="50" height="50"><defs><style type="text/css"></style></defs><path d="M264.01792 308.37248c-19.40992-15.6672-49.408-14.35648-67.01056 2.95936-17.58208 17.29536-16.09728 44.032 3.31264 59.74016 44.44672 35.92192 69.94944 87.33184 69.94944 141.04064 0 53.65248-25.56416 105.088-70.19008 141.1328-10.33728 8.35584-15.56992 19.82464-15.56992 31.34464 0 10.13248 4.0448 20.30592 12.30336 28.40064 17.60256 17.29536 47.60064 18.6112 67.01056 2.91328 64.37888-52.06528 101.30944-126.34112 101.30944-203.79648 0.00512-77.54752-36.84352-151.80288-101.11488-203.73504zM443.85792 169.0112c-18.47808-16.55808-48.512-16.64-67.09248-0.16384-18.57536 16.4352-18.62144 43.24864-0.18944 59.81184 84.38784 75.66336 130.88256 176.3072 130.88256 283.45344 0 106.96192-46.56128 207.58528-131.10784 283.37664-9.20064 8.23808-13.80352 19.04128-13.80352 29.80864 0 10.86464 4.65408 21.72928 13.9776 29.98272 18.58048 16.48128 48.59904 16.39936 67.09248-0.16384 102.3488-91.7248 158.72-213.55008 158.72-343.00416 0.00512-129.64864-56.30464-251.50976-158.47936-343.10144zM622.1312 29.02528c-18.1248-16.84992-48.15872-17.408-67.072-1.23392-18.92864 16.1792-19.51744 42.94656-1.39264 59.79648 123.15648 114.46272 190.98112 265.23136 190.98112 424.50944 0 158.976-67.92192 309.67808-191.22176 424.3712-8.80128 8.192-13.184 18.71872-13.184 29.2608 0 11.10528 4.87936 22.22592 14.61248 30.54592 18.8928 16.14336 48.9472 15.58528 67.072-1.28 140.30336-130.51392 217.56928-301.99808 217.56928-482.87744 0.0256-181.23776-77.18912-352.7936-217.36448-483.09248z" p-id="2523"></path></svg>